<svg id="Layer_1" data-name="Layer 1" xmlns="http://www.w3.org/2000/svg" xmlns:xlink="http://www.w3.org/1999/xlink" viewBox="0 0 600 371"><defs><style>.cls-1,.cls-3,.cls-4{fill:none;}.cls-2{fill:#edebeb;}.cls-3{stroke:#333;}.cls-3,.cls-4,.cls-6,.cls-7{stroke-miterlimit:10;}.cls-4{stroke:#ccc;}.cls-5{clip-path:url(#clip-path);}.cls-6{fill:#d9cdb8;stroke-width:0.25px;}.cls-6,.cls-7{stroke:#d96c89;}.cls-7,.cls-8{fill:#d96c89;}.cls-9{font-size:7.64px;font-family:Futura-MediumItalic, Futura;font-weight:500;font-style:italic;}.cls-10{letter-spacing:-0.1em;}.cls-11{letter-spacing:-0.09em;}.cls-12{letter-spacing:0em;}.cls-13{letter-spacing:-0.07em;}.cls-14{letter-spacing:-0.05em;}.cls-15{letter-spacing:-0.09em;}.cls-16{letter-spacing:-0.08em;}.cls-17{letter-spacing:0.09em;}</style><clipPath id="clip-path"><rect class="cls-1" x="52.55" y="25.55" width="528.9" height="306.9"/></clipPath></defs><title>Net-income-chart</title><path class="cls-2" d="M0,0H600V371H0Z"/><path class="cls-3" d="M52.5,332.5h529"/><path class="cls-4" d="M52.5,271.5h529"/><path class="cls-4" d="M52.5,209.5h529"/><path class="cls-4" d="M52.5,148.5h529"/><path class="cls-4" d="M52.5,86.5h529"/><path class="cls-4" d="M52.5,25.5h529"/><g class="cls-5"><path class="cls-1" d="M175,332H96V297a2,2,0,0,1,2-2h75a2,2,0,0,1,2,2Z"/></g><g class="cls-5"><path class="cls-6" d="M175,332H96V297a2,2,0,0,1,2-2h75a2,2,0,0,1,2,2Z"/></g><g class="cls-5"><path class="cls-1" d="M296,332H217V232a2,2,0,0,1,2-2h75a2,2,0,0,1,2,2Z"/></g><g class="cls-5"><path class="cls-7" d="M296,332H217V232a2,2,0,0,1,2-2h75a2,2,0,0,1,2,2Z"/></g><g class="cls-5"><path class="cls-1" d="M418,332H339V147a2,2,0,0,1,2-2h75a2,2,0,0,1,2,2Z"/></g><g class="cls-5"><path class="cls-6" d="M418,332H339V147a2,2,0,0,1,2-2h75a2,2,0,0,1,2,2Z"/></g><g class="cls-5"><path class="cls-1" d="M539,332H460V80a2,2,0,0,1,2-2h75a2,2,0,0,1,2,2Z"/></g><g class="cls-5"><path class="cls-8" d="M539,332H460V80a2,2,0,0,1,2-2h75a2,2,0,0,1,2,2Z"/></g><path d="M126.67,348.43v1H121a2,2,0,0,1,.13-.73,3.78,3.78,0,0,1,.68-1.14,11.49,11.49,0,0,1,1.39-1.3,11.08,11.08,0,0,0,1.89-1.83,2.12,2.12,0,0,0,.5-1.27,1.37,1.37,0,0,0-.45-1,1.62,1.62,0,0,0-1.17-.44,1.65,1.65,0,0,0-1.22.45,1.8,1.8,0,0,0-.47,1.27l-1.08-.11a2.65,2.65,0,0,1,.83-1.84,2.88,2.88,0,0,1,2-.64,2.7,2.7,0,0,1,2,.68,2.27,2.27,0,0,1,.72,1.71,2.42,2.42,0,0,1-.22,1,4,4,0,0,1-.7,1,17.76,17.76,0,0,1-1.61,1.5,16.38,16.38,0,0,0-1.23,1.09,3.46,3.46,0,0,0-.44.56Zm1.45-3.21a7.84,7.84,0,0,1,.31-2.46,3,3,0,0,1,.93-1.43,2.36,2.36,0,0,1,1.56-.5,2.42,2.42,0,0,1,1.2.28,2.27,2.27,0,0,1,.88.81,4.31,4.31,0,0,1,.53,1.26,9.13,9.13,0,0,1,.18,2,7.68,7.68,0,0,1-.31,2.43,3,3,0,0,1-.92,1.44,2.64,2.64,0,0,1-3.52-.39A5.67,5.67,0,0,1,128.12,345.22Zm1.08,0a5.38,5.38,0,0,0,.5,2.81,1.41,1.41,0,0,0,2.44,0,8.17,8.17,0,0,0,0-5.63,1.46,1.46,0,0,0-1.24-.7,1.34,1.34,0,0,0-1.15.61A5.38,5.38,0,0,0,129.2,345.22Zm9.89,4.23H138v-6.72a6.46,6.46,0,0,1-1,.74,6.75,6.75,0,0,1-1.1.53v-1a6.23,6.23,0,0,0,1.53-1,4,4,0,0,0,1-1.15h.67Zm3-2.25,1.11-.09a2,2,0,0,0,.56,1.22,1.59,1.59,0,0,0,1.1.4,1.67,1.67,0,0,0,1.28-.58,2.16,2.16,0,0,0,.53-1.51,1.88,1.88,0,0,0-.52-1.42,1.7,1.7,0,0,0-1.32-.54,1.84,1.84,0,0,0-.93.24,1.92,1.92,0,0,0-.64.59l-1-.12.83-4.41h4.28v1H144l-.45,2.31a2.73,2.73,0,0,1,1.61-.54,2.54,2.54,0,0,1,1.89.78,2.72,2.72,0,0,1,.78,2,3.23,3.23,0,0,1-.67,2,2.74,2.74,0,0,1-2.25,1,2.83,2.83,0,0,1-1.93-.66A2.54,2.54,0,0,1,142.12,347.2Z"/><path d="M248.25,348.43v1h-5.68a2.28,2.28,0,0,1,.12-.73,4,4,0,0,1,.69-1.14,10.77,10.77,0,0,1,1.39-1.3,11.08,11.08,0,0,0,1.89-1.83,2.19,2.19,0,0,0,.5-1.27,1.37,1.37,0,0,0-.45-1,1.83,1.83,0,0,0-2.39,0,1.75,1.75,0,0,0-.47,1.27l-1.08-.11a2.61,2.61,0,0,1,.83-1.84,2.87,2.87,0,0,1,2-.64,2.7,2.7,0,0,1,2,.68,2.27,2.27,0,0,1,.72,1.71,2.42,2.42,0,0,1-.22,1,4.24,4.24,0,0,1-.7,1,19.26,19.26,0,0,1-1.61,1.5c-.64.53-1.05.89-1.24,1.09a4,4,0,0,0-.43.56Zm1.46-3.21a7.84,7.84,0,0,1,.31-2.46,3.09,3.09,0,0,1,.92-1.43,2.39,2.39,0,0,1,1.56-.5,2.49,2.49,0,0,1,1.21.28,2.24,2.24,0,0,1,.87.81,3.83,3.83,0,0,1,.53,1.26,8.49,8.49,0,0,1,.19,2,7.68,7.68,0,0,1-.31,2.43,3,3,0,0,1-.92,1.44,2.42,2.42,0,0,1-1.57.5,2.39,2.39,0,0,1-1.95-.89A5.67,5.67,0,0,1,249.71,345.22Zm1.08,0a5.28,5.28,0,0,0,.5,2.81,1.4,1.4,0,0,0,2.43,0,8.17,8.17,0,0,0,0-5.63,1.43,1.43,0,0,0-1.23-.7,1.35,1.35,0,0,0-1.16.61A5.5,5.5,0,0,0,250.79,345.22Zm9.89,4.23h-1.05v-6.72a6.14,6.14,0,0,1-1,.74,6.69,6.69,0,0,1-1.09.53v-1a6.63,6.63,0,0,0,1.53-1,3.8,3.8,0,0,0,.95-1.15h.68Zm8.5-6.48-1.05.07a2.11,2.11,0,0,0-.39-.9,1.44,1.44,0,0,0-1.06-.46,1.46,1.46,0,0,0-.89.29A2.61,2.61,0,0,0,265,343a5.81,5.81,0,0,0-.29,2,2.43,2.43,0,0,1,.92-.86,2.65,2.65,0,0,1,1.17-.28,2.35,2.35,0,0,1,1.78.78,2.77,2.77,0,0,1,.75,2,3.3,3.3,0,0,1-.36,1.52,2.51,2.51,0,0,1-1,1.06,2.85,2.85,0,0,1-3.53-.61,4.9,4.9,0,0,1-.83-3.19,5.74,5.74,0,0,1,.92-3.62,2.61,2.61,0,0,1,2.16-1,2.36,2.36,0,0,1,1.65.57A2.4,2.4,0,0,1,269.18,343Zm-4.3,3.7a2.57,2.57,0,0,0,.22,1.05,1.81,1.81,0,0,0,.64.75,1.7,1.7,0,0,0,.89.26,1.5,1.5,0,0,0,1.14-.53,2.13,2.13,0,0,0,.48-1.47,2,2,0,0,0-.48-1.4,1.52,1.52,0,0,0-1.19-.52,1.63,1.63,0,0,0-1.22.52A1.88,1.88,0,0,0,264.88,346.67Z"/><path d="M369.84,348.43v1h-5.69a2,2,0,0,1,.13-.73,3.78,3.78,0,0,1,.68-1.14,11,11,0,0,1,1.4-1.3,11.92,11.92,0,0,0,1.89-1.83,2.19,2.19,0,0,0,.5-1.27,1.35,1.35,0,0,0-.46-1,1.62,1.62,0,0,0-1.17-.44,1.65,1.65,0,0,0-1.22.45,1.8,1.8,0,0,0-.47,1.27l-1.07-.11a2.61,2.61,0,0,1,.82-1.84,2.88,2.88,0,0,1,2-.64,2.7,2.7,0,0,1,2,.68,2.3,2.3,0,0,1,.71,1.71,2.58,2.58,0,0,1-.21,1,4,4,0,0,1-.71,1,17.76,17.76,0,0,1-1.61,1.5c-.63.53-1,.89-1.23,1.09a4.12,4.12,0,0,0-.44.56Zm1.45-3.21a7.8,7.8,0,0,1,.32-2.46,2.94,2.94,0,0,1,.92-1.43,2.36,2.36,0,0,1,1.56-.5,2.42,2.42,0,0,1,1.2.28,2.2,2.2,0,0,1,.88.81,4.05,4.05,0,0,1,.53,1.26,9,9,0,0,1,.19,2,7.64,7.64,0,0,1-.32,2.43,2.88,2.88,0,0,1-.92,1.44,2.62,2.62,0,0,1-3.51-.39A5.59,5.59,0,0,1,371.29,345.22Zm1.08,0a5.38,5.38,0,0,0,.5,2.81,1.45,1.45,0,0,0,1.22.7,1.43,1.43,0,0,0,1.22-.7,8.17,8.17,0,0,0,0-5.63,1.45,1.45,0,0,0-1.24-.7,1.35,1.35,0,0,0-1.15.61A5.38,5.38,0,0,0,372.37,345.22Zm9.89,4.23h-1.05v-6.72a6,6,0,0,1-1,.74,7.11,7.11,0,0,1-1.09.53v-1a6.63,6.63,0,0,0,1.53-1,4.12,4.12,0,0,0,.95-1.15h.67Zm3.1-7.47v-1h5.56v.82a12.33,12.33,0,0,0-1.63,2.33,14.12,14.12,0,0,0-1.23,3,10.11,10.11,0,0,0-.41,2.36h-1.09A10.57,10.57,0,0,1,387,347a13.4,13.4,0,0,1,1.09-2.77,12.61,12.61,0,0,1,1.53-2.25Z"/><path d="M491.43,348.43v1h-5.69a2.28,2.28,0,0,1,.12-.73,4,4,0,0,1,.69-1.14,10.77,10.77,0,0,1,1.39-1.3,11.08,11.08,0,0,0,1.89-1.83,2.12,2.12,0,0,0,.5-1.27,1.37,1.37,0,0,0-.45-1,1.62,1.62,0,0,0-1.17-.44,1.65,1.65,0,0,0-1.22.45,1.8,1.8,0,0,0-.47,1.27l-1.08-.11a2.61,2.61,0,0,1,.83-1.84,2.88,2.88,0,0,1,2-.64,2.7,2.7,0,0,1,1.95.68,2.27,2.27,0,0,1,.72,1.71,2.42,2.42,0,0,1-.22,1,4,4,0,0,1-.7,1,17.76,17.76,0,0,1-1.61,1.5c-.64.53-1.05.89-1.24,1.09a4,4,0,0,0-.43.56Zm1.45-3.21a7.84,7.84,0,0,1,.31-2.46,3.09,3.09,0,0,1,.92-1.43,2.4,2.4,0,0,1,1.57-.5,2.45,2.45,0,0,1,1.2.28,2.18,2.18,0,0,1,.87.81,4.06,4.06,0,0,1,.54,1.26,9.13,9.13,0,0,1,.18,2,7.68,7.68,0,0,1-.31,2.43,3,3,0,0,1-.92,1.44,2.64,2.64,0,0,1-3.52-.39A5.67,5.67,0,0,1,492.88,345.22Zm1.08,0a5.28,5.28,0,0,0,.5,2.81,1.45,1.45,0,0,0,1.22.7,1.41,1.41,0,0,0,1.21-.7,8.17,8.17,0,0,0,0-5.63,1.43,1.43,0,0,0-1.23-.7,1.37,1.37,0,0,0-1.16.61A5.5,5.5,0,0,0,494,345.22Zm9.89,4.23H502.8v-6.72a6.46,6.46,0,0,1-1,.74,7.16,7.16,0,0,1-1.1.53v-1a6.23,6.23,0,0,0,1.53-1,4,4,0,0,0,1-1.15h.67Zm4.65-4.66a2.13,2.13,0,0,1-1-.68,1.84,1.84,0,0,1-.31-1.07,2.06,2.06,0,0,1,.67-1.57,2.53,2.53,0,0,1,1.8-.64,2.5,2.5,0,0,1,1.81.65,2.13,2.13,0,0,1,.69,1.6,1.75,1.75,0,0,1-.32,1,1.93,1.93,0,0,1-.95.68,2.27,2.27,0,0,1,1.2.83,2.37,2.37,0,0,1,.41,1.38,2.45,2.45,0,0,1-.78,1.84,2.8,2.8,0,0,1-2.05.75,2.86,2.86,0,0,1-2.05-.75,2.48,2.48,0,0,1-.78-1.87,2.21,2.21,0,0,1,.43-1.41A2.16,2.16,0,0,1,508.5,344.79Zm-.21-1.79a1.36,1.36,0,0,0,.39,1,1.42,1.42,0,0,0,1,.39,1.4,1.4,0,0,0,1-.38,1.35,1.35,0,0,0,0-1.92,1.36,1.36,0,0,0-1-.41,1.37,1.37,0,0,0-1,.4A1.25,1.25,0,0,0,508.29,343Zm-.33,4a2,2,0,0,0,.2.87,1.63,1.63,0,0,0,.64.66,1.89,1.89,0,0,0,.91.23,1.67,1.67,0,0,0,1.23-.48,1.64,1.64,0,0,0,.5-1.24,1.71,1.71,0,0,0-1.76-1.76,1.63,1.63,0,0,0-1.24.5A1.66,1.66,0,0,0,508,347Z"/><text class="cls-9" transform="translate(39.74 25.63)">$5 </text><text class="cls-9" transform="translate(40.27 89.28)">$4 </text><text class="cls-9" transform="translate(38.68 150.4)">$3</text><text class="cls-9" transform="translate(37.66 210.81)">$2</text><text class="cls-9" transform="translate(37.63 273.41)">$1</text><text class="cls-9" transform="translate(38.7 334.38)">0</text><text class="cls-9" transform="translate(52.81 24.14)">billion</text><text class="cls-9" transform="translate(117.95 288.02)">$<tspan class="cls-10" x="4.71" y="0">6</tspan><tspan class="cls-11" x="8.68" y="0">1</tspan><tspan class="cls-12" x="12.67" y="0">4M</tspan></text><text class="cls-9" transform="translate(241.66 223.98)">$<tspan class="cls-13" x="4.71" y="0">1</tspan><tspan x="8.88" y="0">.</tspan><tspan class="cls-14" x="11.24" y="0">6</tspan><tspan class="cls-12" x="15.54" y="0">7</tspan></text><text class="cls-9" transform="translate(361.79 137.74)">$3.05<tspan class="cls-15" x="21.21" y="0">	</tspan></text><text class="cls-9" transform="translate(484.9 70.54)">$4<tspan class="cls-16" x="9.43" y="0">.</tspan><tspan class="cls-11" x="11.18" y="0">1</tspan><tspan x="15.17" y="0">4</tspan><tspan class="cls-17" x="19.89" y="0">	</tspan></text></svg>