<svg id="Layer_1" data-name="Layer 1" xmlns="http://www.w3.org/2000/svg" viewBox="0 0 378.82 341.1"><defs><style>.cls-1{fill:#bf046b;}.cls-2{fill:#b3b3b3;}.cls-3{fill:#04adbf;}.cls-4{fill:#730a6c;}.cls-5{fill:#d96c89;}.cls-26,.cls-6{fill:none;}.cls-7{font-size:9.27px;}.cls-22,.cls-7{font-family:Futura-MediumItalic, Futura;font-weight:500;font-style:italic;}.cls-8{letter-spacing:-0.08em;}.cls-9{letter-spacing:-0.07em;}.cls-10{letter-spacing:3.57em;}.cls-11{letter-spacing:0.02em;}.cls-12{letter-spacing:0em;}.cls-13{letter-spacing:2.04em;}.cls-14{letter-spacing:-0.01em;}.cls-15{letter-spacing:0.01em;}.cls-16{letter-spacing:0em;}.cls-17{letter-spacing:-0.14em;}.cls-18{letter-spacing:0em;}.cls-19{letter-spacing:0em;}.cls-20{letter-spacing:0em;}.cls-21{letter-spacing:-0.01em;}.cls-22{font-size:9.27px;}.cls-23{letter-spacing:0.01em;}.cls-24{letter-spacing:0em;}.cls-25{letter-spacing:0.01em;}.cls-26{stroke:#020202;stroke-miterlimit:10;}</style></defs><title>Nvidia 2019 Revenue Division_Artboard 1</title><path class="cls-1" d="M212.2,97.53m0,0h9.87m-13.43-3.59v17.12h17V93.94Z" transform="translate(-12.69 -30.72)"/><path class="cls-1" d="M234.05,93.94v17.12h17V93.94Z" transform="translate(-12.69 -30.72)"/><path class="cls-1" d="M259.47,93.94v17.12h17V93.94Z" transform="translate(-12.69 -30.72)"/><path class="cls-1" d="M212.2,71.91m9.87,0-13.43-3.45v17h17V68.33h-17Z" transform="translate(-12.69 -30.72)"/><path class="cls-1" d="M234.05,68.46v17h17V68.33h-17Z" transform="translate(-12.69 -30.72)"/><path class="cls-1" d="M263,71.91m0,0-3.55-3.45v17h17V68.33h-17Z" transform="translate(-12.69 -30.72)"/><rect class="cls-1" x="272.19" y="63.22" width="16.99" height="17.12"/><rect class="cls-1" x="297.47" y="63.22" width="16.99" height="17.12"/><rect class="cls-1" x="272.19" y="37.61" width="16.99" height="17.12"/><rect class="cls-1" x="297.47" y="37.61" width="16.99" height="17.12"/><path class="cls-1" d="M212.2,224.87m0,0h9.87m-13.43-3.58v17.12h17V221.29Z" transform="translate(-12.69 -30.72)"/><path class="cls-1" d="M234.05,221.29v17.12h17V221.29Z" transform="translate(-12.69 -30.72)"/><path class="cls-1" d="M259.47,221.29v17.12h17V221.29Z" transform="translate(-12.69 -30.72)"/><path class="cls-1" d="M212.2,209.21v-10m0,0-3.56-3.45v17h17V195.67h-17Z" transform="translate(-12.69 -30.72)"/><path class="cls-1" d="M212.2,183.73v-9.95m9.87,0-13.43-3.59v17h17V170.06h-17Z" transform="translate(-12.69 -30.72)"/><path class="cls-1" d="M234.05,195.81v17h17V195.67h-17Z" transform="translate(-12.69 -30.72)"/><path class="cls-1" d="M259.47,195.81v17h17V195.67h-17Z" transform="translate(-12.69 -30.72)"/><path class="cls-1" d="M234.05,170.19v17h17V170.06h-17Z" transform="translate(-12.69 -30.72)"/><rect class="cls-1" x="246.78" y="139.34" width="16.99" height="17.12"/><rect class="cls-1" x="272.19" y="190.57" width="16.99" height="17.12"/><rect class="cls-1" x="297.47" y="190.57" width="16.99" height="17.12"/><rect class="cls-1" x="272.19" y="164.95" width="16.99" height="17.12"/><rect class="cls-1" x="297.47" y="164.95" width="16.99" height="17.12"/><rect class="cls-1" x="272.19" y="139.34" width="16.99" height="17.12"/><rect class="cls-1" x="297.47" y="139.34" width="16.99" height="17.12"/><path class="cls-1" d="M212.2,148.16m0,0h9.87m-13.43-3.58v17h17V144.45h-17Z" transform="translate(-12.69 -30.72)"/><path class="cls-1" d="M212.2,122.55m0,0h9.87M208.64,119v17.12h17V119Z" transform="translate(-12.69 -30.72)"/><path class="cls-1" d="M234.05,144.58v17h17V144.45h-17Z" transform="translate(-12.69 -30.72)"/><rect class="cls-1" x="246.78" y="113.73" width="16.99" height="17.12"/><path class="cls-1" d="M234.05,119v17.12h17V119Z" transform="translate(-12.69 -30.72)"/><rect class="cls-1" x="246.78" y="88.25" width="16.99" height="17.12"/><rect class="cls-1" x="272.19" y="113.73" width="16.99" height="17.12"/><rect class="cls-1" x="297.47" y="113.73" width="16.99" height="17.12"/><rect class="cls-1" x="272.19" y="88.25" width="16.99" height="17.12"/><rect class="cls-1" x="297.47" y="88.25" width="16.99" height="17.12"/><path class="cls-1" d="M212.2,302.09m0,0h9.87m-13.43-3.58v17h17V298.38h-17Z" transform="translate(-12.69 -30.72)"/><path class="cls-1" d="M234.05,298.51v17h17V298.38h-17Z" transform="translate(-12.69 -30.72)"/><rect class="cls-1" x="246.78" y="267.66" width="16.99" height="17.12"/><rect class="cls-1" x="272.19" y="267.66" width="16.99" height="17.12"/><rect class="cls-1" x="297.47" y="267.66" width="16.99" height="17.12"/><path class="cls-1" d="M208.64,272.9v17h17V272.76h-17Z" transform="translate(-12.69 -30.72)"/><path class="cls-1" d="M212.2,250.87m0,0h9.87m-13.43-3.59V264.4h17V247.28Z" transform="translate(-12.69 -30.72)"/><path class="cls-1" d="M237.61,276.48m9.87,9.95M234.05,272.9v17h17V272.76h-17Z" transform="translate(-12.69 -30.72)"/><rect class="cls-1" x="246.78" y="242.04" width="16.99" height="17.12"/><path class="cls-1" d="M234.05,247.28V264.4h17V247.28Z" transform="translate(-12.69 -30.72)"/><rect class="cls-1" x="246.78" y="216.56" width="16.99" height="17.12"/><rect class="cls-1" x="272.19" y="242.04" width="16.99" height="17.12"/><rect class="cls-1" x="297.47" y="242.04" width="16.99" height="17.12"/><rect class="cls-1" x="272.19" y="216.56" width="16.99" height="17.12"/><rect class="cls-1" x="297.47" y="216.56" width="16.99" height="17.12"/><path class="cls-2" d="M85.08,97.53m0,0H95M81.53,93.94v17.12h17V93.94Z" transform="translate(-12.69 -30.72)"/><path class="cls-3" d="M110.49,107.48v-10m0,0h9.88m-13.43-3.59v17.12h17V93.94Z" transform="translate(-12.69 -30.72)"/><path class="cls-3" d="M135.91,97.53m-3.56-3.59v17.12h17V93.94Z" transform="translate(-12.69 -30.72)"/><path class="cls-2" d="M85.74,70.61m0,0h9.88M82.19,67.16v17l8.17-8.55L99.17,67h-17Z" transform="translate(-12.69 -30.72)"/><path class="cls-3" d="M110.49,81.87v-10m0,0-3.55-3.45v17h17V68.33h-17Z" transform="translate(-12.69 -30.72)"/><path class="cls-3" d="M135.91,81.87v-10m9.87,0-13.43-3.45v17h17V68.33h-17Z" transform="translate(-12.69 -30.72)"/><rect class="cls-3" x="145.08" y="63.22" width="16.99" height="17.12"/><polygon class="cls-1" points="170.36 80.34 170.36 63.22 187.34 63.22 178.82 72.17 170.36 80.34"/><rect class="cls-3" x="145.08" y="37.61" width="16.99" height="17.12"/><rect class="cls-1" x="170.36" y="37.61" width="16.99" height="17.12"/><path class="cls-4" d="M81.53,221.29v17.12h17V221.29Z" transform="translate(-12.69 -30.72)"/><path class="cls-3" d="M110.49,224.87m0,0h9.88m-13.43-3.58v17.12h17V221.29Z" transform="translate(-12.69 -30.72)"/><path class="cls-3" d="M135.91,224.87m0,0h9.87m-13.43-3.58v17.12h17V221.29Z" transform="translate(-12.69 -30.72)"/><path class="cls-4" d="M85.08,209.21v-10m9.88,0-13.43-3.45v17h17V195.67h-17Z" transform="translate(-12.69 -30.72)"/><path class="cls-2" d="M81.53,170.19v17h17V170.06h-17Z" transform="translate(-12.69 -30.72)"/><path class="cls-3" d="M106.94,195.81v17h17V195.67h-17Z" transform="translate(-12.69 -30.72)"/><path class="cls-3" d="M135.91,199.26m0,0h9.87m-13.43-3.45v17h17V195.67h-17Z" transform="translate(-12.69 -30.72)"/><path class="cls-3" d="M106.94,170.19v17h17V170.06h-17Z" transform="translate(-12.69 -30.72)"/><rect class="cls-3" x="119.66" y="139.34" width="16.99" height="17.12"/><rect class="cls-3" x="145.08" y="190.57" width="16.99" height="17.12"/><rect class="cls-5" x="170.36" y="190.57" width="16.99" height="17.12"/><rect class="cls-3" x="145.08" y="164.95" width="16.99" height="17.12"/><rect class="cls-5" x="170.36" y="164.95" width="16.99" height="17.12"/><rect class="cls-3" x="145.08" y="139.34" width="16.99" height="17.12"/><rect class="cls-5" x="170.36" y="139.34" width="16.99" height="17.12"/><path class="cls-2" d="M95,148.16m-13.43-3.58v17h17V144.45h-17Z" transform="translate(-12.69 -30.72)"/><path class="cls-2" d="M85.08,122.55m0,0H95M81.53,119v17.12h17V119Z" transform="translate(-12.69 -30.72)"/><path class="cls-3" d="M106.94,144.58v17h17V144.45h-17Z" transform="translate(-12.69 -30.72)"/><rect class="cls-3" x="119.66" y="113.73" width="16.99" height="17.12"/><path class="cls-3" d="M106.94,119v17.12h17V119Z" transform="translate(-12.69 -30.72)"/><rect class="cls-3" x="119.66" y="88.25" width="16.99" height="17.12"/><rect class="cls-3" x="145.08" y="113.73" width="16.99" height="17.12"/><rect class="cls-5" x="170.36" y="113.73" width="16.99" height="17.12"/><rect class="cls-3" x="145.08" y="88.25" width="16.99" height="17.12"/><rect class="cls-5" x="170.36" y="88.25" width="16.99" height="17.12"/><path class="cls-4" d="M85.08,312.05v-10m0,0-3.55-3.58v17h17V298.38h-17Z" transform="translate(-12.69 -30.72)"/><path class="cls-4" d="M110.49,312.05v-10m0,0h9.88m-13.43-3.58v17h17V298.38h-17Z" transform="translate(-12.69 -30.72)"/><rect class="cls-3" x="119.66" y="267.66" width="16.99" height="17.12"/><rect class="cls-5" x="145.08" y="267.66" width="16.99" height="17.12"/><polygon class="cls-5" points="170.36 284.78 170.36 267.66 187.34 267.66 187.34 284.78 177.01 284.78 170.36 284.78"/><path class="cls-4" d="M81.53,272.9v17h17V272.76h-17Z" transform="translate(-12.69 -30.72)"/><path class="cls-4" d="M81.53,247.28V264.4h17V247.28Z" transform="translate(-12.69 -30.72)"/><path class="cls-4" d="M110.49,286.43v-9.95m9.88,0-13.43-3.58v17h17V272.76h-17Z" transform="translate(-12.69 -30.72)"/><rect class="cls-3" x="119.66" y="242.04" width="16.99" height="17.12"/><path class="cls-3" d="M110.49,250.87m-3.55-3.59V264.4h17V247.28Z" transform="translate(-12.69 -30.72)"/><rect class="cls-3" x="119.66" y="216.56" width="16.99" height="17.12"/><rect class="cls-5" x="145.08" y="242.04" width="16.99" height="17.12"/><rect class="cls-5" x="170.36" y="242.04" width="16.99" height="17.12"/><rect class="cls-3" x="145.08" y="216.56" width="16.99" height="17.12"/><rect class="cls-5" x="170.36" y="216.56" width="16.99" height="17.12"/><path class="cls-6" d="M303.59,24.77" transform="translate(-12.69 -30.72)"/><text class="cls-7" transform="translate(323.07 27.53)">Gaming <tspan x="0.6" y="11.12">(</tspan><tspan class="cls-8" x="3.76" y="11.12">5</tspan><tspan class="cls-9" x="8.74" y="11.12">1</tspan><tspan x="13.79" y="11.12">.5%)</tspan></text><text class="cls-7" transform="translate(51.89 16.41)"><tspan class="cls-10">	</tspan><tspan x="36" y="0">Da</tspan><tspan class="cls-11" x="48.22" y="0">t</tspan><tspan x="51.1" y="0">a Cen</tspan><tspan class="cls-11" x="76.24" y="0">t</tspan><tspan class="cls-12" x="79.13" y="0">er</tspan><tspan class="cls-13" x="87.88" y="0">	</tspan><tspan class="cls-12" x="109.66" y="0"> </tspan><tspan x="43.07" y="11.12">(26%)</tspan></text><text class="cls-7" transform="translate(131.6 316.08)">P<tspan class="cls-14" x="5.17" y="0">r</tspan><tspan x="8.65" y="0">o</tspan><tspan class="cls-15" x="14.23" y="0">f</tspan><tspan x="17.16" y="0">essional </tspan><tspan class="cls-16" x="53.76" y="0">V</tspan><tspan x="59.95" y="0">isualization</tspan><tspan x="41.91" y="11.12">(</tspan><tspan class="cls-17" x="45.07" y="11.12">1</tspan><tspan x="49.49" y="11.12">1%)</tspan></text><text class="cls-7" transform="translate(32.59 303.24)"><tspan class="cls-18">A</tspan><tspan x="6.53" y="0">u</tspan><tspan class="cls-11" x="11.6" y="0">t</tspan><tspan x="14.49" y="0">om</tspan><tspan class="cls-19" x="27.42" y="0">o</tspan><tspan class="cls-20" x="33.03" y="0">ti</tspan><tspan class="cls-21" x="38.14" y="0">v</tspan><tspan x="42.57" y="0">e</tspan><tspan x="14.15" y="11.12">(7%)</tspan></text><text class="cls-22" transform="translate(0 121.89)">OEM &amp; O<tspan class="cls-23" x="42.64" y="0">t</tspan><tspan class="cls-24" x="45.45" y="0">he</tspan><tspan class="cls-25" x="55.78" y="0">r</tspan><tspan x="59.4" y="0">s</tspan><tspan x="17.54" y="11.13">(4.5%)</tspan></text><path class="cls-4" d="M183.72,323.56" transform="translate(-12.69 -30.72)"/><path class="cls-26" d="M205.24,335.83c-8.69-.39-15.41-9-15-19.29" transform="translate(-12.69 -30.72)"/><path class="cls-26" d="M341.88,76.17C345.24,83.85,339,94.06,327.8,99" transform="translate(-12.69 -30.72)"/><path class="cls-26" d="M132.63,68a19.83,19.83,0,0,1-3.51-4.54" transform="translate(-12.69 -30.72)"/><path class="cls-26" d="M120.53,61.75" transform="translate(-12.69 -30.72)"/><text x="-12.69" y="-30.72"/><path class="cls-26" d="M72.43,315.4c2.39-4.79,4-5.76,8.77-6.7" transform="translate(-12.69 -30.72)"/><path class="cls-26" d="M80.44,176.51c-12-.54-21.58-6.47-21.27-13.28" transform="translate(-12.69 -30.72)"/></svg>