<svg id="Layer_1" data-name="Layer 1" xmlns="http://www.w3.org/2000/svg" viewBox="0 0 384.35 365.44"><defs><style>.cls-1{fill:#bf046b;}.cls-2{fill:#b3b3b3;}.cls-3{fill:#04adbf;}.cls-4{fill:#730a6c;}.cls-5{fill:#d96c89;}.cls-33,.cls-6{fill:none;}.cls-11,.cls-14,.cls-28,.cls-7,.cls-8{isolation:isolate;}.cls-11,.cls-14,.cls-8{font-size:9.27px;}.cls-11,.cls-14,.cls-28,.cls-8{font-family:Futura-MediumItalic, Futura;font-weight:500;font-style:italic;}.cls-9{letter-spacing:-0.08em;}.cls-10{letter-spacing:-0.07em;}.cls-11{letter-spacing:3.56em;}.cls-12{letter-spacing:0.02em;}.cls-13{letter-spacing:0.02em;}.cls-14{letter-spacing:2.05em;}.cls-15{letter-spacing:-0.01em;}.cls-16{letter-spacing:0.01em;}.cls-17{letter-spacing:0em;}.cls-18{fill:#000008;}.cls-19{letter-spacing:0em;}.cls-20{letter-spacing:0em;}.cls-21{letter-spacing:0.01em;}.cls-22{letter-spacing:-0.01em;}.cls-23{letter-spacing:-0.14em;}.cls-24{letter-spacing:0em;}.cls-25{letter-spacing:0em;}.cls-26{letter-spacing:0em;}.cls-27{letter-spacing:-0.01em;}.cls-28{font-size:9.27px;}.cls-29{letter-spacing:0.01em;}.cls-30{letter-spacing:0em;}.cls-31{letter-spacing:0.01em;}.cls-32{letter-spacing:0.01em;}.cls-33{stroke:#020202;stroke-miterlimit:10;}.cls-34{font-size:9px;font-family:MyriadPro-Regular, Myriad Pro;}.cls-35{letter-spacing:0.01em;}.cls-36{letter-spacing:-0.01em;}.cls-37{letter-spacing:-0.01em;}.cls-38{letter-spacing:-0.01em;}.cls-39{letter-spacing:-0.01em;}.cls-40{letter-spacing:0em;}</style></defs><title>Nvidia 2019 Revenue Division</title><path class="cls-1" d="M212.2,97.5h9.9m-13.5-3.6V111h17V93.9Z" transform="translate(-7.15 -30.7)"/><path class="cls-1" d="M234.1,93.9V111h17V93.9Z" transform="translate(-7.15 -30.7)"/><path class="cls-1" d="M259.5,93.9V111h17V93.9Z" transform="translate(-7.15 -30.7)"/><path class="cls-1" d="M208.6,68.5v17h17V68.3h-17Z" transform="translate(-7.15 -30.7)"/><path class="cls-1" d="M234.1,68.5v17h17V68.3h-17Z" transform="translate(-7.15 -30.7)"/><path class="cls-1" d="M259.5,68.5v17h17V68.3h-17Z" transform="translate(-7.15 -30.7)"/><rect class="cls-1" x="277.75" y="63.2" width="17" height="17.1"/><rect class="cls-1" x="303.05" y="63.2" width="17" height="17.1"/><rect class="cls-1" x="277.75" y="37.6" width="17" height="17.1"/><rect class="cls-1" x="303.05" y="37.6" width="17" height="17.1"/><path class="cls-1" d="M212.2,224.9h9.9m-13.5-3.6v17.1h17V221.3Z" transform="translate(-7.15 -30.7)"/><path class="cls-1" d="M234.1,221.3v17.1h17V221.3Z" transform="translate(-7.15 -30.7)"/><path class="cls-1" d="M259.5,221.3v17.1h17V221.3Z" transform="translate(-7.15 -30.7)"/><path class="cls-1" d="M212.2,209.2v-10m-3.6-3.4v17h17V195.7h-17Z" transform="translate(-7.15 -30.7)"/><path class="cls-1" d="M212.2,183.7v-10m-3.6-3.5v17h17V170.1h-17Z" transform="translate(-7.15 -30.7)"/><path class="cls-1" d="M234.1,195.8v17h17V195.7h-17Z" transform="translate(-7.15 -30.7)"/><path class="cls-1" d="M259.5,195.8v17h17V195.7h-17Z" transform="translate(-7.15 -30.7)"/><path class="cls-1" d="M234.1,170.2v17h17V170.1h-17Z" transform="translate(-7.15 -30.7)"/><rect class="cls-1" x="252.35" y="139.4" width="17" height="17.1"/><rect class="cls-1" x="277.75" y="190.6" width="17" height="17.1"/><rect class="cls-1" x="303.05" y="190.6" width="17" height="17.1"/><rect class="cls-1" x="277.75" y="165" width="17" height="17.1"/><rect class="cls-1" x="303.05" y="165" width="17" height="17.1"/><rect class="cls-1" x="277.75" y="139.4" width="17" height="17.1"/><rect class="cls-1" x="303.05" y="139.4" width="17" height="17.1"/><path class="cls-1" d="M212.2,148.2h9.9m-13.5-3.6v17h17V144.5h-17Z" transform="translate(-7.15 -30.7)"/><path class="cls-1" d="M212.2,122.6h9.9M208.6,119v17.1h17V119Z" transform="translate(-7.15 -30.7)"/><path class="cls-1" d="M234.1,144.6v17h17V144.5h-17Z" transform="translate(-7.15 -30.7)"/><rect class="cls-1" x="252.35" y="113.7" width="17" height="17.1"/><path class="cls-1" d="M234.1,119v17.1h17V119Z" transform="translate(-7.15 -30.7)"/><rect class="cls-1" x="252.35" y="88.3" width="17" height="17.1"/><rect class="cls-1" x="277.75" y="113.7" width="17" height="17.1"/><rect class="cls-1" x="303.05" y="113.7" width="17" height="17.1"/><rect class="cls-1" x="277.75" y="88.3" width="17" height="17.1"/><rect class="cls-1" x="303.05" y="88.3" width="17" height="17.1"/><path class="cls-1" d="M212.2,302.1h9.9m-13.5-3.6v17h17V298.4h-17Z" transform="translate(-7.15 -30.7)"/><path class="cls-1" d="M234.1,298.5v17h17V298.4h-17Z" transform="translate(-7.15 -30.7)"/><rect class="cls-1" x="252.35" y="267.7" width="17" height="17.1"/><rect class="cls-1" x="277.75" y="267.7" width="17" height="17.1"/><rect class="cls-1" x="303.05" y="267.7" width="17" height="17.1"/><path class="cls-1" d="M208.6,272.9v17h17V272.8h-17Z" transform="translate(-7.15 -30.7)"/><path class="cls-1" d="M212.2,250.9h9.9m-13.5-3.6v17.1h17V247.3Z" transform="translate(-7.15 -30.7)"/><path class="cls-1" d="M234.1,272.9v17h17V272.8h-17Z" transform="translate(-7.15 -30.7)"/><rect class="cls-1" x="252.35" y="242.1" width="17" height="17.1"/><path class="cls-1" d="M234.1,247.3v17.1h17V247.3Z" transform="translate(-7.15 -30.7)"/><rect class="cls-1" x="252.35" y="216.6" width="17" height="17.1"/><rect class="cls-1" x="277.75" y="242.1" width="17" height="17.1"/><rect class="cls-1" x="303.05" y="242.1" width="17" height="17.1"/><rect class="cls-1" x="277.75" y="216.6" width="17" height="17.1"/><rect class="cls-1" x="303.05" y="216.6" width="17" height="17.1"/><path class="cls-2" d="M85.1,97.5H95M81.5,93.9V111h17V93.9Z" transform="translate(-7.15 -30.7)"/><path class="cls-3" d="M110.5,107.5v-10m0,0h9.9m-13.5-3.6V111h17V93.9Z" transform="translate(-7.15 -30.7)"/><path class="cls-3" d="M132.4,93.9V111h17V93.9Z" transform="translate(-7.15 -30.7)"/><path class="cls-2" d="M85.7,70.6h9.9M82.2,67.2v17l8.2-8.6L99.2,67h-17Z" transform="translate(-7.15 -30.7)"/><path class="cls-3" d="M110.5,81.9v-10m-3.6-3.4v17h17V68.3h-17Z" transform="translate(-7.15 -30.7)"/><path class="cls-3" d="M135.9,81.9v-10m-3.5-3.4v17h17V68.3h-17Z" transform="translate(-7.15 -30.7)"/><rect class="cls-3" x="150.65" y="63.2" width="17" height="17.1"/><polygon class="cls-1" points="175.85 80.4 175.85 63.2 192.85 63.2 184.35 72.2 175.85 80.4"/><rect class="cls-3" x="150.65" y="37.6" width="17" height="17.1"/><rect class="cls-1" x="175.85" y="37.6" width="17" height="17.1"/><path class="cls-4" d="M81.5,221.3v17.1h17V221.3Z" transform="translate(-7.15 -30.7)"/><path class="cls-3" d="M110.5,224.9h9.9m-13.5-3.6v17.1h17V221.3Z" transform="translate(-7.15 -30.7)"/><path class="cls-3" d="M135.9,224.9h9.9m-13.4-3.6v17.1h17V221.3Z" transform="translate(-7.15 -30.7)"/><path class="cls-4" d="M85.1,209.2v-10m-3.6-3.4v17h17V195.7h-17Z" transform="translate(-7.15 -30.7)"/><path class="cls-2" d="M81.5,170.2v17h17V170.1h-17Z" transform="translate(-7.15 -30.7)"/><path class="cls-3" d="M106.9,195.8v17h17V195.7h-17Z" transform="translate(-7.15 -30.7)"/><path class="cls-3" d="M135.9,199.3h9.9m-13.4-3.5v17h17V195.7h-17Z" transform="translate(-7.15 -30.7)"/><path class="cls-3" d="M106.9,170.2v17h17V170.1h-17Z" transform="translate(-7.15 -30.7)"/><rect class="cls-3" x="125.25" y="139.4" width="17" height="17.1"/><rect class="cls-3" x="150.65" y="190.6" width="17" height="17.1"/><rect class="cls-5" x="175.85" y="190.6" width="17" height="17.1"/><rect class="cls-3" x="150.65" y="165" width="17" height="17.1"/><rect class="cls-5" x="175.85" y="165" width="17" height="17.1"/><rect class="cls-3" x="150.65" y="139.4" width="17" height="17.1"/><rect class="cls-5" x="175.85" y="139.4" width="17" height="17.1"/><path class="cls-2" d="M81.5,144.6v17h17V144.5h-17Z" transform="translate(-7.15 -30.7)"/><path class="cls-2" d="M85.1,122.6H95M81.5,119v17.1h17V119Z" transform="translate(-7.15 -30.7)"/><path class="cls-3" d="M106.9,144.6v17h17V144.5h-17Z" transform="translate(-7.15 -30.7)"/><rect class="cls-3" x="125.25" y="113.7" width="17" height="17.1"/><path class="cls-3" d="M106.9,119v17.1h17V119Z" transform="translate(-7.15 -30.7)"/><rect class="cls-3" x="125.25" y="88.3" width="17" height="17.1"/><rect class="cls-3" x="150.65" y="113.7" width="17" height="17.1"/><rect class="cls-5" x="175.85" y="113.7" width="17" height="17.1"/><rect class="cls-3" x="150.65" y="88.3" width="17" height="17.1"/><rect class="cls-5" x="175.85" y="88.3" width="17" height="17.1"/><path class="cls-4" d="M85.1,312V302m-3.6-3.5v17h17V298.4h-17Z" transform="translate(-7.15 -30.7)"/><path class="cls-4" d="M110.5,312V302m0,.1h9.9m-13.5-3.6v17h17V298.4h-17Z" transform="translate(-7.15 -30.7)"/><rect class="cls-3" x="125.25" y="267.7" width="17" height="17.1"/><rect class="cls-5" x="150.65" y="267.7" width="17" height="17.1"/><polygon class="cls-5" points="175.85 284.8 175.85 267.7 192.85 267.7 192.85 284.8 182.55 284.8 175.85 284.8"/><path class="cls-4" d="M81.5,272.9v17h17V272.8h-17Z" transform="translate(-7.15 -30.7)"/><path class="cls-4" d="M81.5,247.3v17.1h17V247.3Z" transform="translate(-7.15 -30.7)"/><path class="cls-4" d="M110.5,286.4v-10m-3.6-3.5v17h17V272.8h-17Z" transform="translate(-7.15 -30.7)"/><rect class="cls-3" x="125.25" y="242.1" width="17" height="17.1"/><path class="cls-3" d="M106.9,247.3v17.1h17V247.3Z" transform="translate(-7.15 -30.7)"/><rect class="cls-3" x="125.25" y="216.6" width="17" height="17.1"/><rect class="cls-5" x="150.65" y="242.1" width="17" height="17.1"/><rect class="cls-5" x="175.85" y="242.1" width="17" height="17.1"/><rect class="cls-3" x="150.65" y="216.6" width="17" height="17.1"/><rect class="cls-5" x="175.85" y="216.6" width="17" height="17.1"/><path class="cls-6" d="M303.6,24.8" transform="translate(-7.15 -30.7)"/><rect class="cls-6" x="306.45" y="19.9" width="77.9" height="30.9"/><g class="cls-7"><text class="cls-8" transform="translate(328.61 27.55)">Gaming </text><text class="cls-8" transform="translate(328.51 38.65)">(<tspan class="cls-9" x="3.16" y="0">5</tspan><tspan class="cls-10" x="8.14" y="0">1</tspan><tspan x="13.19" y="0">.5%)</tspan></text></g><rect class="cls-6" x="57.45" y="8.8" width="111.3" height="23.6"/><g class="cls-7"><text class="cls-11" transform="translate(57.42 16.43)"> </text><text class="cls-8" transform="translate(93.42 16.43)">Da<tspan class="cls-12" x="12.22" y="0">t</tspan><tspan x="15.1" y="0">a Cen</tspan><tspan class="cls-13" x="40.24" y="0">t</tspan><tspan x="43.13" y="0">er</tspan></text><text class="cls-14" transform="translate(144.92 16.43)"> </text><text class="cls-8" transform="translate(167.12 16.43)"> </text><text class="cls-8" transform="translate(100.52 27.53)">(26%)</text></g><g class="cls-7"><text class="cls-8" transform="translate(137.14 316.1)">P<tspan class="cls-15" x="5.17" y="0">r</tspan><tspan x="8.65" y="0">o</tspan><tspan class="cls-16" x="14.23" y="0">f</tspan><tspan x="17.16" y="0">essional </tspan><tspan class="cls-17" x="53.76" y="0">V</tspan><tspan x="59.95" y="0">isualization</tspan><tspan class="cls-18"><tspan x="0" y="11.12">(co</tspan><tspan class="cls-19" x="12.99" y="11.12">m</tspan><tspan class="cls-20" x="20.36" y="11.12">pu</tspan><tspan class="cls-12" x="31.11" y="11.12">t</tspan><tspan x="34" y="11.12">er </tspan><tspan class="cls-21" x="45.61" y="11.12">g</tspan><tspan class="cls-22" x="51.35" y="11.12">r</tspan><tspan x="54.83" y="11.12">aphics)</tspan></tspan></text><text class="cls-8" transform="translate(178.44 339.2)">(<tspan class="cls-23" x="3.16" y="0">1</tspan><tspan class="cls-24" x="7.58" y="0">1%)</tspan></text></g><g class="cls-7"><text class="cls-8" transform="translate(38.17 303.26)"><tspan class="cls-25">A</tspan><tspan x="6.53" y="0">u</tspan><tspan class="cls-12" x="11.6" y="0">t</tspan><tspan x="14.49" y="0">om</tspan><tspan class="cls-26" x="27.43" y="0">o</tspan><tspan x="33.03" y="0">ti</tspan><tspan class="cls-27" x="38.14" y="0">v</tspan><tspan x="42.57" y="0">e</tspan></text><text class="cls-8" transform="translate(52.27 314.36)">(7%)</text></g><g class="cls-7"><text class="cls-28" transform="translate(5.62 121.91)">OEM &amp; O<tspan class="cls-29" x="42.64" y="0">t</tspan><tspan class="cls-30" x="45.45" y="0">he</tspan><tspan class="cls-31" x="55.78" y="0">r</tspan><tspan x="59.4" y="0">s</tspan><tspan x="0" y="11.13">(o</tspan><tspan class="cls-32" x="8.74" y="11.13">r</tspan><tspan x="12.37" y="11.13">iginal </tspan><tspan x="0" y="22.25">equipment </tspan><tspan x="0" y="33.38">manu</tspan><tspan class="cls-29" x="23.12" y="33.38">f</tspan><tspan x="26.06" y="33.38">actu</tspan><tspan class="cls-32" x="43.69" y="33.38">r</tspan><tspan x="47.32" y="33.38">ing)</tspan></text><text class="cls-28" transform="translate(23.12 170.01)">(4.5%)</text></g><path class="cls-4" d="M183.7,323.6" transform="translate(-7.15 -30.7)"/><path class="cls-33" d="M205.2,335.8c-8.7-.4-15.4-9-14.9-19.3" transform="translate(-7.15 -30.7)"/><path class="cls-33" d="M341.9,76.2c3.4,7.7-2.9,17.9-14.1,22.8" transform="translate(-7.15 -30.7)"/><path class="cls-33" d="M132.6,68a19.73,19.73,0,0,1-3.5-4.5" transform="translate(-7.15 -30.7)"/><path class="cls-33" d="M120.5,61.8" transform="translate(-7.15 -30.7)"/><polygon class="cls-6" points="132.35 0 152.35 0 152.35 0 132.35 0"/><path class="cls-33" d="M72.4,315.4c2.4-4.8,4-5.8,8.8-6.7" transform="translate(-7.15 -30.7)"/><path class="cls-33" d="M80.4,176.5c-12-.5-21.6-6.5-21.3-13.3" transform="translate(-7.15 -30.7)"/><text class="cls-34" transform="translate(0 360.73)"><tspan class="cls-35">S</tspan><tspan x="4.49" y="0">ou</tspan><tspan class="cls-36" x="14.39" y="0">r</tspan><tspan class="cls-37" x="17.24" y="0">c</tspan><tspan x="21.22" y="0">e: </tspan><tspan class="cls-38" x="29.5" y="0">C</tspan><tspan x="34.62" y="0">ompa</tspan><tspan class="cls-39" x="56.53" y="0">n</tspan><tspan x="61.41" y="0">y d</tspan><tspan class="cls-40" x="72.63" y="0">a</tspan><tspan x="76.93" y="0">ta</tspan></text></svg>