<svg id="Layer_1" data-name="Layer 1" xmlns="http://www.w3.org/2000/svg" xmlns:xlink="http://www.w3.org/1999/xlink" viewBox="0 0 600 453.87"><defs><style>.cls-1,.cls-3,.cls-4{fill:none;}.cls-2{fill:#f2f2f2;}.cls-3{stroke:#333;}.cls-3,.cls-4,.cls-7{stroke-miterlimit:10;}.cls-4{stroke:#ccc;}.cls-5{clip-path:url(#clip-path);}.cls-6,.cls-7{fill:#d9cdb8;}.cls-7{stroke:#000;}.cls-8{fill:#04adbf;}.cls-9{fill:#1a1a1a;}.cls-10{font-size:7.64px;font-family:Futura-MediumItalic, Futura;font-weight:500;font-style:italic;}.cls-11{letter-spacing:-0.04em;}.cls-12{letter-spacing:-0.06em;}.cls-13{letter-spacing:-0.05em;}.cls-14{letter-spacing:-0.08em;}.cls-15{letter-spacing:-0.08em;}.cls-16{letter-spacing:-0.08em;}.cls-17{letter-spacing:-0.1em;}</style><clipPath id="clip-path" transform="translate(0 135.55)"><rect class="cls-1" x="52.55" y="62.78" width="528.9" height="198.17"/></clipPath></defs><title>Revenue-2019 and Revenue-2018-01</title><path class="cls-2" d="M0,.25H600V318.32H0Z" transform="translate(0 135.55)"/><path class="cls-3" d="M52.5,261h529" transform="translate(0 135.55)"/><path class="cls-4" d="M52.5,195h529" transform="translate(0 135.55)"/><path class="cls-4" d="M52.5,129h529" transform="translate(0 135.55)"/><path class="cls-4" d="M52.5,63h529" transform="translate(0 135.55)"/><g class="cls-5"><path class="cls-1" d="M118,260.5H87v-131a2,2,0,0,1,2-2h27a2,2,0,0,1,2,2Z" transform="translate(0 135.55)"/></g><g class="cls-5"><path class="cls-6" d="M118,260.5H87v-131a2,2,0,0,1,2-2h27a2,2,0,0,1,2,2Z" transform="translate(0 135.55)"/></g><g class="cls-5"><path class="cls-1" d="M217,260.5H186v-27a2,2,0,0,1,2-2h27a2,2,0,0,1,2,2Z" transform="translate(0 135.55)"/></g><g class="cls-5"><path class="cls-7" d="M217,260.5H186v-27a2,2,0,0,1,2-2h27a2,2,0,0,1,2,2Z" transform="translate(0 135.55)"/></g><g class="cls-5"><path class="cls-1" d="M316,260.5H285v-64a2,2,0,0,1,2-2h27a2,2,0,0,1,2,2Z" transform="translate(0 135.55)"/></g><g class="cls-5"><path class="cls-6" d="M316,260.5H285v-64a2,2,0,0,1,2-2h27a2,2,0,0,1,2,2Z" transform="translate(0 135.55)"/></g><g class="cls-5"><path class="cls-1" d="M415,260.5H384v-15a2,2,0,0,1,2-2h27a2,2,0,0,1,2,2Z" transform="translate(0 135.55)"/></g><g class="cls-5"><path class="cls-7" d="M415,260.5H384v-15a2,2,0,0,1,2-2h27a2,2,0,0,1,2,2Z" transform="translate(0 135.55)"/></g><g class="cls-5"><path class="cls-1" d="M514,260.5H483v-9a2,2,0,0,1,2-2h27a2,2,0,0,1,2,2Z" transform="translate(0 135.55)"/></g><g class="cls-5"><path class="cls-6" d="M514,260.5H483v-9a2,2,0,0,1,2-2h27a2,2,0,0,1,2,2Z" transform="translate(0 135.55)"/></g><g class="cls-5"><path class="cls-1" d="M150,260.5H119V88.5a2,2,0,0,1,2-2h27a2,2,0,0,1,2,2Z" transform="translate(0 135.55)"/></g><g class="cls-5"><path class="cls-8" d="M150,260.5H119V88.5a2,2,0,0,1,2-2h27a2,2,0,0,1,2,2Z" transform="translate(0 135.55)"/></g><g class="cls-5"><path class="cls-1" d="M249,260.5H218v-25a2,2,0,0,1,2-2h27a2,2,0,0,1,2,2Z" transform="translate(0 135.55)"/></g><g class="cls-5"><path class="cls-8" d="M249,260.5H218v-25a2,2,0,0,1,2-2h27a2,2,0,0,1,2,2Z" transform="translate(0 135.55)"/></g><g class="cls-5"><path class="cls-1" d="M348,260.5H317v-72a2,2,0,0,1,2-2h27a2,2,0,0,1,2,2Z" transform="translate(0 135.55)"/></g><g class="cls-5"><path class="cls-8" d="M348,260.5H317v-72a2,2,0,0,1,2-2h27a2,2,0,0,1,2,2Z" transform="translate(0 135.55)"/></g><g class="cls-5"><path class="cls-1" d="M447,260.5H416v-13a2,2,0,0,1,2-2h27a2,2,0,0,1,2,2Z" transform="translate(0 135.55)"/></g><g class="cls-5"><path class="cls-8" d="M447,260.5H416v-13a2,2,0,0,1,2-2h27a2,2,0,0,1,2,2Z" transform="translate(0 135.55)"/></g><g class="cls-5"><path class="cls-1" d="M546,260.5H515v-19a2,2,0,0,1,2-2h27a2,2,0,0,1,2,2Z" transform="translate(0 135.55)"/></g><g class="cls-5"><path class="cls-8" d="M546,260.5H515v-19a2,2,0,0,1,2-2h27a2,2,0,0,1,2,2Z" transform="translate(0 135.55)"/></g><path d="M102.73,274.58v-1l3.63,0v3.19a6.62,6.62,0,0,1-1.72,1,5.2,5.2,0,0,1-1.83.33,5.1,5.1,0,0,1-2.31-.53A3.67,3.67,0,0,1,98.94,276a5,5,0,0,1-.52-2.3,5.28,5.28,0,0,1,.52-2.34,3.43,3.43,0,0,1,1.51-1.61,4.64,4.64,0,0,1,2.27-.53,4.54,4.54,0,0,1,1.69.29,2.66,2.66,0,0,1,1.17.85,3.44,3.44,0,0,1,.65,1.4l-1,.28a3.3,3.3,0,0,0-.5-1,1.86,1.86,0,0,0-.81-.59,2.86,2.86,0,0,0-1.18-.24,3.55,3.55,0,0,0-1.36.24,2.66,2.66,0,0,0-.92.62,3.08,3.08,0,0,0-.53.86,4.47,4.47,0,0,0-.33,1.72,4.33,4.33,0,0,0,.39,1.94,2.61,2.61,0,0,0,1.16,1.14,3.57,3.57,0,0,0,1.61.38,3.82,3.82,0,0,0,1.44-.29,3.75,3.75,0,0,0,1.06-.61v-1.6Zm8.91,2.6a4,4,0,0,1-1.14.71,3.36,3.36,0,0,1-1.16.2,2.3,2.3,0,0,1-1.58-.5,1.66,1.66,0,0,1-.54-1.28,1.78,1.78,0,0,1,.2-.83,1.63,1.63,0,0,1,.55-.61,2.49,2.49,0,0,1,.76-.34,5.81,5.81,0,0,1,.94-.17,9.92,9.92,0,0,0,1.88-.36v-.27a1.18,1.18,0,0,0-.3-.92,1.81,1.81,0,0,0-1.2-.34,1.84,1.84,0,0,0-1.1.26,1.57,1.57,0,0,0-.53.91l-1-.14a2.51,2.51,0,0,1,.47-1.07,2.09,2.09,0,0,1,.94-.62,4,4,0,0,1,1.4-.22,3.64,3.64,0,0,1,1.3.19,1.62,1.62,0,0,1,.73.47,1.5,1.5,0,0,1,.33.72,6.5,6.5,0,0,1,0,1v1.41a16.75,16.75,0,0,0,.06,1.86,2.62,2.62,0,0,0,.28.75h-1.11A2.41,2.41,0,0,1,111.64,277.18Zm-.09-2.35a8.3,8.3,0,0,1-1.72.4,3.49,3.49,0,0,0-.92.22.94.94,0,0,0-.43.33.94.94,0,0,0,.18,1.2,1.36,1.36,0,0,0,.93.28,2.21,2.21,0,0,0,1.08-.26,1.57,1.57,0,0,0,.7-.74,2.4,2.4,0,0,0,.18-1Zm3,3.12v-6.22h.93v.88a2.08,2.08,0,0,1,.79-.74,2.13,2.13,0,0,1,1.11-.28,2,2,0,0,1,1.12.28,1.52,1.52,0,0,1,.63.8,2.26,2.26,0,0,1,1.92-1.08,1.84,1.84,0,0,1,1.42.52,2.16,2.16,0,0,1,.5,1.57V278h-1V274a2.55,2.55,0,0,0-.11-.91.8.8,0,0,0-.36-.45,1.09,1.09,0,0,0-.64-.17,1.49,1.49,0,0,0-1.09.43,2,2,0,0,0-.42,1.41V278h-1.07V273.9a1.66,1.66,0,0,0-.26-1,.94.94,0,0,0-.83-.36,1.6,1.6,0,0,0-.83.23,1.34,1.34,0,0,0-.54.69,3.64,3.64,0,0,0-.18,1.3V278Zm10-7.37v-1.22h1.06v1.22Zm0,7.37v-6.22h1.06V278Zm3,0v-6.22h.93v.88a2.25,2.25,0,0,1,2-1,2.66,2.66,0,0,1,1,.2,1.71,1.71,0,0,1,.72.54,2,2,0,0,1,.33.76,8.22,8.22,0,0,1,0,1V278h-1v-3.78a2.62,2.62,0,0,0-.13-1,1,1,0,0,0-.44-.5,1.25,1.25,0,0,0-.73-.2,1.71,1.71,0,0,0-1.17.43,2.12,2.12,0,0,0-.49,1.61V278Zm6.79.52,1,.15a1,1,0,0,0,.35.69,1.74,1.74,0,0,0,1.07.3,1.8,1.8,0,0,0,1.12-.3,1.45,1.45,0,0,0,.55-.81,6,6,0,0,0,.08-1.36,2.16,2.16,0,0,1-1.72.81,2.37,2.37,0,0,1-2-.92,3.67,3.67,0,0,1-.7-2.22,4.39,4.39,0,0,1,.31-1.64,2.47,2.47,0,0,1,2.38-1.58,2.26,2.26,0,0,1,1.83.89v-.75h1v5.38a5.06,5.06,0,0,1-.3,2.06,2.11,2.11,0,0,1-.94.95,3.18,3.18,0,0,1-1.58.36,3,3,0,0,1-1.79-.5A1.71,1.71,0,0,1,134.37,278.47Zm.88-3.74a2.71,2.71,0,0,0,.48,1.78,1.59,1.59,0,0,0,2.44,0,2.59,2.59,0,0,0,.5-1.75,2.54,2.54,0,0,0-.51-1.72,1.58,1.58,0,0,0-2.43,0A2.56,2.56,0,0,0,135.25,274.73Z" transform="translate(0 135.55)"/><path d="M185.06,278v-8.59h3.25a8.66,8.66,0,0,1,1.3.07,2.61,2.61,0,0,1,1.06.41,2,2,0,0,1,.69.83,2.51,2.51,0,0,1,.26,1.17,2.64,2.64,0,0,1-.7,1.86,3.34,3.34,0,0,1-2.51.75H186.2V278Zm1.14-4.5h2.22A2.33,2.33,0,0,0,190,273a1.47,1.47,0,0,0,.47-1.17,1.44,1.44,0,0,0-.28-.9,1.25,1.25,0,0,0-.7-.52,4.92,4.92,0,0,0-1.06-.08H186.2Zm6.72,4.5v-6.22h1v.94a2.44,2.44,0,0,1,.66-.86,1.16,1.16,0,0,1,.69-.22,2.11,2.11,0,0,1,1.08.33l-.36,1a1.55,1.55,0,0,0-.77-.23,1,1,0,0,0-.64.22,1,1,0,0,0-.37.58,3.65,3.65,0,0,0-.19,1.21V278Zm3.63-3.11a3.19,3.19,0,0,1,.95-2.56,2.87,2.87,0,0,1,1.95-.69,2.8,2.8,0,0,1,2.1.84,3.16,3.16,0,0,1,.82,2.32,4.27,4.27,0,0,1-.35,1.89,2.59,2.59,0,0,1-1.07,1.08,3.09,3.09,0,0,1-1.5.37,2.84,2.84,0,0,1-2.11-.83A3.39,3.39,0,0,1,196.55,274.84Zm1.07,0a2.66,2.66,0,0,0,.52,1.78,1.74,1.74,0,0,0,2.63,0,2.72,2.72,0,0,0,.51-1.81,2.58,2.58,0,0,0-.53-1.75,1.63,1.63,0,0,0-1.3-.59,1.66,1.66,0,0,0-1.31.59A2.63,2.63,0,0,0,197.62,274.84Zm6.57,3.11v-5.41h-.94v-.81h.94v-.67a2.65,2.65,0,0,1,.11-.92,1.3,1.3,0,0,1,.53-.67,2,2,0,0,1,1.08-.25,4.39,4.39,0,0,1,1,.11l-.16.9a4.44,4.44,0,0,0-.62-.05,1,1,0,0,0-.69.21,1.16,1.16,0,0,0-.19.76v.58h1.22v.81h-1.22V278Zm7-2,1.09.13a2.63,2.63,0,0,1-.95,1.48,3.25,3.25,0,0,1-4-.31,3.32,3.32,0,0,1-.79-2.36,3.39,3.39,0,0,1,.81-2.42,2.71,2.71,0,0,1,2.09-.88,2.67,2.67,0,0,1,2,.84,3.37,3.37,0,0,1,.79,2.4v.28h-4.64a2.44,2.44,0,0,0,.58,1.57,1.72,1.72,0,0,0,1.3.54,1.61,1.61,0,0,0,1-.3A2,2,0,0,0,211.19,276Zm-3.46-1.7h3.47a2.07,2.07,0,0,0-.39-1.19,1.63,1.63,0,0,0-1.31-.61,1.7,1.7,0,0,0-1.23.48A2,2,0,0,0,207.73,274.25Zm5.79,1.84,1-.16a1.48,1.48,0,0,0,.48,1,1.76,1.76,0,0,0,1.14.33,1.64,1.64,0,0,0,1.06-.29.87.87,0,0,0,.36-.7.62.62,0,0,0-.31-.56,5,5,0,0,0-1.08-.36,13.06,13.06,0,0,1-1.61-.5,1.68,1.68,0,0,1-.67-.59,1.64,1.64,0,0,1-.23-.85,1.67,1.67,0,0,1,.18-.76,1.77,1.77,0,0,1,.52-.6,2.49,2.49,0,0,1,.67-.29,3,3,0,0,1,.92-.13,3.35,3.35,0,0,1,1.27.22,1.72,1.72,0,0,1,.83.56,2.35,2.35,0,0,1,.36,1l-1,.14a1.1,1.1,0,0,0-.41-.74,1.42,1.42,0,0,0-.95-.28,1.62,1.62,0,0,0-1,.25.69.69,0,0,0-.32.56.52.52,0,0,0,.13.36.93.93,0,0,0,.4.28l.94.27a13.32,13.32,0,0,1,1.56.5,1.47,1.47,0,0,1,.94,1.45,1.74,1.74,0,0,1-.31,1,2.06,2.06,0,0,1-.88.72,3.19,3.19,0,0,1-1.31.25,3,3,0,0,1-1.86-.5A2.38,2.38,0,0,1,213.52,276.09Zm6,0,1-.16a1.48,1.48,0,0,0,.48,1,1.76,1.76,0,0,0,1.14.33,1.64,1.64,0,0,0,1.06-.29.87.87,0,0,0,.36-.7.62.62,0,0,0-.31-.56,5,5,0,0,0-1.08-.36,13.06,13.06,0,0,1-1.61-.5,1.68,1.68,0,0,1-.67-.59,1.64,1.64,0,0,1-.23-.85,1.67,1.67,0,0,1,.18-.76,1.77,1.77,0,0,1,.52-.6,2.49,2.49,0,0,1,.67-.29,3,3,0,0,1,.92-.13,3.35,3.35,0,0,1,1.27.22,1.72,1.72,0,0,1,.83.56,2.35,2.35,0,0,1,.36,1l-1,.14a1.1,1.1,0,0,0-.41-.74,1.42,1.42,0,0,0-.95-.28,1.62,1.62,0,0,0-1,.25.69.69,0,0,0-.32.56.52.52,0,0,0,.13.36.93.93,0,0,0,.4.28l.94.27a13.32,13.32,0,0,1,1.56.5,1.47,1.47,0,0,1,.94,1.45,1.74,1.74,0,0,1-.31,1,2.06,2.06,0,0,1-.88.72,3.19,3.19,0,0,1-1.31.25,3,3,0,0,1-1.86-.5A2.38,2.38,0,0,1,219.52,276.09Zm6.42-5.51v-1.22H227v1.22Zm0,7.37v-6.22H227V278Zm2.61-3.11a3.19,3.19,0,0,1,.95-2.56,2.87,2.87,0,0,1,1.95-.69,2.8,2.8,0,0,1,2.1.84,3.16,3.16,0,0,1,.82,2.32,4.27,4.27,0,0,1-.35,1.89,2.59,2.59,0,0,1-1.07,1.08,3.09,3.09,0,0,1-1.5.37,2.84,2.84,0,0,1-2.11-.83A3.39,3.39,0,0,1,228.55,274.84Zm1.07,0a2.66,2.66,0,0,0,.52,1.78,1.74,1.74,0,0,0,2.63,0,2.72,2.72,0,0,0,.51-1.81,2.58,2.58,0,0,0-.53-1.75,1.63,1.63,0,0,0-1.3-.59,1.66,1.66,0,0,0-1.31.59A2.63,2.63,0,0,0,229.62,274.84Zm6.32,3.11v-6.22h.93v.88a2.25,2.25,0,0,1,2-1,2.66,2.66,0,0,1,1,.2,1.71,1.71,0,0,1,.72.54,2,2,0,0,1,.33.76,8.22,8.22,0,0,1,0,1V278h-1v-3.78a2.62,2.62,0,0,0-.13-1,1,1,0,0,0-.44-.5,1.25,1.25,0,0,0-.73-.2,1.71,1.71,0,0,0-1.17.43,2.12,2.12,0,0,0-.49,1.61V278Zm11.06-.77a4,4,0,0,1-1.14.71,3.36,3.36,0,0,1-1.16.2,2.3,2.3,0,0,1-1.58-.5,1.66,1.66,0,0,1-.54-1.28,1.78,1.78,0,0,1,.2-.83,1.63,1.63,0,0,1,.55-.61,2.49,2.49,0,0,1,.76-.34,5.81,5.81,0,0,1,.94-.17,9.92,9.92,0,0,0,1.88-.36v-.27a1.18,1.18,0,0,0-.3-.92,1.81,1.81,0,0,0-1.2-.34,1.84,1.84,0,0,0-1.1.26,1.57,1.57,0,0,0-.53.91l-1-.14a2.51,2.51,0,0,1,.47-1.07,2.09,2.09,0,0,1,.94-.62,4,4,0,0,1,1.4-.22,3.64,3.64,0,0,1,1.3.19,1.62,1.62,0,0,1,.73.47,1.5,1.5,0,0,1,.33.72,6.5,6.5,0,0,1,.05,1v1.41a16.75,16.75,0,0,0,.06,1.86,2.62,2.62,0,0,0,.28.75H247.2A2.41,2.41,0,0,1,247,277.18Zm-.09-2.35a8.3,8.3,0,0,1-1.72.4,3.49,3.49,0,0,0-.92.22.94.94,0,0,0-.43.33A.94.94,0,0,0,244,277a1.36,1.36,0,0,0,.93.28A2.21,2.21,0,0,0,246,277a1.57,1.57,0,0,0,.7-.74,2.4,2.4,0,0,0,.18-1Zm3,3.12v-8.59H251V278Z" transform="translate(0 135.55)"/><path d="M186.52,292l-3.33-8.59h1.23l2.24,6.25c.17.5.32,1,.45,1.4.13-.47.29-.93.47-1.4l2.31-6.25h1.16L187.69,292Zm5.42-7.37v-1.22H193v1.22Zm0,7.37v-6.22H193V292Zm2.58-1.86,1-.16a1.48,1.48,0,0,0,.48,1,1.76,1.76,0,0,0,1.14.33,1.64,1.64,0,0,0,1.06-.29.87.87,0,0,0,.36-.7.62.62,0,0,0-.31-.56,5,5,0,0,0-1.08-.36,13.06,13.06,0,0,1-1.61-.5,1.68,1.68,0,0,1-.67-.59,1.64,1.64,0,0,1-.23-.85,1.67,1.67,0,0,1,.18-.76,1.77,1.77,0,0,1,.52-.6,2.49,2.49,0,0,1,.67-.29,3,3,0,0,1,.92-.13,3.35,3.35,0,0,1,1.27.22,1.72,1.72,0,0,1,.83.56,2.35,2.35,0,0,1,.36,1l-1,.14a1.1,1.1,0,0,0-.41-.74,1.42,1.42,0,0,0-.95-.28,1.62,1.62,0,0,0-1,.25.69.69,0,0,0-.32.56.52.52,0,0,0,.13.36.93.93,0,0,0,.4.28l.94.27a13.32,13.32,0,0,1,1.56.5,1.47,1.47,0,0,1,.94,1.45,1.74,1.74,0,0,1-.31,1,2.06,2.06,0,0,1-.88.72,3.19,3.19,0,0,1-1.31.25,3,3,0,0,1-1.86-.5A2.38,2.38,0,0,1,194.52,290.09ZM205,292V291a2.3,2.3,0,0,1-2,1.06,2.74,2.74,0,0,1-1-.2,1.9,1.9,0,0,1-.7-.53,2,2,0,0,1-.33-.8,5.62,5.62,0,0,1-.06-1v-3.85H202v3.45a6.55,6.55,0,0,0,.06,1.11,1.15,1.15,0,0,0,.41.66,1.34,1.34,0,0,0,.81.23,1.67,1.67,0,0,0,.87-.23,1.38,1.38,0,0,0,.6-.67,3.2,3.2,0,0,0,.19-1.22v-3.33h1V292Zm7-.77a4,4,0,0,1-1.14.71,3.36,3.36,0,0,1-1.16.2,2.3,2.3,0,0,1-1.58-.5,1.66,1.66,0,0,1-.54-1.28,1.78,1.78,0,0,1,.2-.83,1.63,1.63,0,0,1,.55-.61,2.49,2.49,0,0,1,.76-.34,5.81,5.81,0,0,1,.94-.17,9.92,9.92,0,0,0,1.88-.36v-.27a1.18,1.18,0,0,0-.3-.92,1.81,1.81,0,0,0-1.2-.34,1.84,1.84,0,0,0-1.1.26,1.57,1.57,0,0,0-.53.91l-1-.14a2.51,2.51,0,0,1,.47-1.07,2.09,2.09,0,0,1,.94-.62,4,4,0,0,1,1.4-.22,3.64,3.64,0,0,1,1.3.19,1.62,1.62,0,0,1,.73.47,1.5,1.5,0,0,1,.33.72,6.5,6.5,0,0,1,.05,1v1.41a16.75,16.75,0,0,0,.06,1.86,2.62,2.62,0,0,0,.28.75H212.2A2.41,2.41,0,0,1,212,291.18Zm-.09-2.35a8.3,8.3,0,0,1-1.72.4,3.49,3.49,0,0,0-.92.22.94.94,0,0,0-.43.33A.94.94,0,0,0,209,291a1.36,1.36,0,0,0,.93.28A2.21,2.21,0,0,0,211,291a1.57,1.57,0,0,0,.7-.74,2.4,2.4,0,0,0,.18-1Zm3,3.12v-8.59H216V292Zm3-7.37v-1.22H219v1.22Zm0,7.37v-6.22H219V292Zm2.43,0v-.86l4-4.55c-.46,0-.86,0-1.2,0h-2.53v-.85h5.09v.69l-3.37,3.95-.66.72c.48,0,.92,0,1.33,0h2.89V292Zm10.63-.77a4,4,0,0,1-1.14.71,3.36,3.36,0,0,1-1.16.2,2.3,2.3,0,0,1-1.58-.5,1.66,1.66,0,0,1-.54-1.28,1.78,1.78,0,0,1,.2-.83,1.63,1.63,0,0,1,.55-.61,2.49,2.49,0,0,1,.76-.34,5.81,5.81,0,0,1,.94-.17,9.92,9.92,0,0,0,1.88-.36v-.27a1.18,1.18,0,0,0-.3-.92,1.81,1.81,0,0,0-1.2-.34,1.84,1.84,0,0,0-1.1.26,1.57,1.57,0,0,0-.53.91l-1-.14a2.51,2.51,0,0,1,.47-1.07,2.09,2.09,0,0,1,.94-.62,4,4,0,0,1,1.4-.22,3.64,3.64,0,0,1,1.3.19,1.62,1.62,0,0,1,.73.47,1.5,1.5,0,0,1,.33.72,6.5,6.5,0,0,1,.05,1v1.41a16.75,16.75,0,0,0,.06,1.86,2.62,2.62,0,0,0,.28.75H231.2A2.41,2.41,0,0,1,231,291.18Zm-.09-2.35a8.3,8.3,0,0,1-1.72.4,3.49,3.49,0,0,0-.92.22.94.94,0,0,0-.43.33A.94.94,0,0,0,228,291a1.36,1.36,0,0,0,.93.28A2.21,2.21,0,0,0,230,291a1.57,1.57,0,0,0,.7-.74,2.4,2.4,0,0,0,.18-1Zm5.32,2.18.16.92a3.56,3.56,0,0,1-.8.1,2,2,0,0,1-.89-.17,1.11,1.11,0,0,1-.45-.49,4,4,0,0,1-.13-1.25v-3.58h-.76v-.81h.76v-1.55l1-.62v2.17h1.06v.81h-1.06v3.64a2.09,2.09,0,0,0,.05.58.48.48,0,0,0,.19.21.7.7,0,0,0,.36.07Zm.71-6.43v-1.22H238v1.22Zm0,7.37v-6.22H238V292Zm2.61-3.11a3.19,3.19,0,0,1,.95-2.56,2.87,2.87,0,0,1,1.95-.69,2.8,2.8,0,0,1,2.1.84,3.16,3.16,0,0,1,.82,2.32,4.27,4.27,0,0,1-.35,1.89,2.59,2.59,0,0,1-1.07,1.08,3.09,3.09,0,0,1-1.5.37,2.84,2.84,0,0,1-2.11-.83A3.39,3.39,0,0,1,239.55,288.84Zm1.07,0a2.66,2.66,0,0,0,.52,1.78,1.74,1.74,0,0,0,2.63,0,2.72,2.72,0,0,0,.51-1.81,2.58,2.58,0,0,0-.53-1.75,1.63,1.63,0,0,0-1.3-.59,1.66,1.66,0,0,0-1.31.59A2.63,2.63,0,0,0,240.62,288.84Zm6.32,3.11v-6.22h.93v.88a2.25,2.25,0,0,1,2-1,2.66,2.66,0,0,1,1,.2,1.71,1.71,0,0,1,.72.54,2,2,0,0,1,.33.76,8.22,8.22,0,0,1,0,1V292h-1v-3.78a2.62,2.62,0,0,0-.13-1,1,1,0,0,0-.44-.5,1.25,1.25,0,0,0-.73-.2,1.71,1.71,0,0,0-1.17.43,2.12,2.12,0,0,0-.49,1.61V292Z" transform="translate(0 135.55)"/><path d="M284.92,278v-8.59h3a7.34,7.34,0,0,1,1.53.12,3,3,0,0,1,1.25.61,3.43,3.43,0,0,1,1,1.49,5.58,5.58,0,0,1,.34,2,6,6,0,0,1-.23,1.73,4.14,4.14,0,0,1-.58,1.25,3.1,3.1,0,0,1-.8.78,3.22,3.22,0,0,1-1,.44A6.31,6.31,0,0,1,288,278Zm1.14-1h1.83a4.71,4.71,0,0,0,1.34-.15,1.92,1.92,0,0,0,.77-.45,2.52,2.52,0,0,0,.62-1.08,5.06,5.06,0,0,0,.24-1.66,3.89,3.89,0,0,0-.45-2.06,2.29,2.29,0,0,0-1.07-1,4.7,4.7,0,0,0-1.46-.17h-1.82Zm11.8.25a4,4,0,0,1-1.14.71,3.36,3.36,0,0,1-1.16.2,2.3,2.3,0,0,1-1.58-.5,1.66,1.66,0,0,1-.54-1.28,1.78,1.78,0,0,1,.2-.83,1.63,1.63,0,0,1,.55-.61,2.49,2.49,0,0,1,.76-.34,5.81,5.81,0,0,1,.94-.17,9.92,9.92,0,0,0,1.88-.36v-.27a1.18,1.18,0,0,0-.3-.92,1.81,1.81,0,0,0-1.2-.34,1.84,1.84,0,0,0-1.1.26,1.57,1.57,0,0,0-.53.91l-1-.14a2.51,2.51,0,0,1,.47-1.07,2.09,2.09,0,0,1,.94-.62,4,4,0,0,1,1.4-.22,3.64,3.64,0,0,1,1.3.19,1.62,1.62,0,0,1,.73.47,1.5,1.5,0,0,1,.33.72,6.5,6.5,0,0,1,.05,1v1.41a16.75,16.75,0,0,0,.06,1.86,2.62,2.62,0,0,0,.28.75h-1.11A2.41,2.41,0,0,1,297.86,277.18Zm-.09-2.35a8.3,8.3,0,0,1-1.72.4,3.71,3.71,0,0,0-.93.22,1,1,0,0,0-.42.33.94.94,0,0,0,.18,1.2,1.36,1.36,0,0,0,.93.28,2.21,2.21,0,0,0,1.08-.26,1.57,1.57,0,0,0,.7-.74,2.4,2.4,0,0,0,.18-1Zm5.32,2.18.16.92a3.56,3.56,0,0,1-.8.1,2,2,0,0,1-.89-.17,1.11,1.11,0,0,1-.45-.49,4,4,0,0,1-.13-1.25v-3.58h-.76v-.81H301v-1.55l1-.62v2.17h1.06v.81H302v3.64a2.09,2.09,0,0,0,.05.58.48.48,0,0,0,.19.21.68.68,0,0,0,.35.07Zm4.77.17a4,4,0,0,1-1.14.71,3.36,3.36,0,0,1-1.16.2,2.3,2.3,0,0,1-1.58-.5,1.66,1.66,0,0,1-.54-1.28,1.78,1.78,0,0,1,.2-.83,1.63,1.63,0,0,1,.55-.61,2.49,2.49,0,0,1,.76-.34,5.81,5.81,0,0,1,.94-.17,9.92,9.92,0,0,0,1.88-.36v-.27a1.18,1.18,0,0,0-.3-.92,1.81,1.81,0,0,0-1.2-.34,1.84,1.84,0,0,0-1.1.26,1.57,1.57,0,0,0-.53.91l-1-.14a2.51,2.51,0,0,1,.47-1.07,2.09,2.09,0,0,1,.94-.62,4,4,0,0,1,1.4-.22,3.64,3.64,0,0,1,1.3.19,1.62,1.62,0,0,1,.73.47,1.5,1.5,0,0,1,.33.72,6.5,6.5,0,0,1,.05,1v1.41a16.75,16.75,0,0,0,.06,1.86,2.62,2.62,0,0,0,.28.75h-1.11A2.41,2.41,0,0,1,307.86,277.18Zm-.09-2.35a8.3,8.3,0,0,1-1.72.4,3.71,3.71,0,0,0-.93.22,1,1,0,0,0-.42.33.94.94,0,0,0,.18,1.2,1.36,1.36,0,0,0,.93.28,2.21,2.21,0,0,0,1.08-.26,1.57,1.57,0,0,0,.7-.74,2.4,2.4,0,0,0,.18-1Zm12.29.1,1.13.3a3.88,3.88,0,0,1-1.28,2.13,3.53,3.53,0,0,1-2.27.73,4.13,4.13,0,0,1-2.26-.56,3.48,3.48,0,0,1-1.33-1.63,5.78,5.78,0,0,1-.46-2.31,5,5,0,0,1,.52-2.34,3.55,3.55,0,0,1,1.45-1.52,4.41,4.41,0,0,1,2.1-.51,3.46,3.46,0,0,1,2.15.65,3.35,3.35,0,0,1,1.24,1.85l-1.13.26a2.64,2.64,0,0,0-.87-1.36,2.28,2.28,0,0,0-1.43-.44,2.78,2.78,0,0,0-1.65.49,2.54,2.54,0,0,0-.94,1.26,5.19,5.19,0,0,0-.26,1.66,5.28,5.28,0,0,0,.31,1.91,2.48,2.48,0,0,0,1,1.22,2.8,2.8,0,0,0,1.47.4,2.47,2.47,0,0,0,1.61-.54A2.82,2.82,0,0,0,320.06,274.93Zm7,1,1.09.13a2.63,2.63,0,0,1-.95,1.48,3.25,3.25,0,0,1-4-.31,3.32,3.32,0,0,1-.79-2.36,3.39,3.39,0,0,1,.81-2.42,2.71,2.71,0,0,1,2.09-.88,2.67,2.67,0,0,1,2,.84,3.37,3.37,0,0,1,.79,2.4v.28h-4.64a2.44,2.44,0,0,0,.58,1.57,1.72,1.72,0,0,0,1.3.54,1.61,1.61,0,0,0,1-.3A2,2,0,0,0,327.05,276Zm-3.46-1.7h3.47a2.07,2.07,0,0,0-.39-1.19,1.63,1.63,0,0,0-1.31-.61,1.74,1.74,0,0,0-1.24.48A2,2,0,0,0,323.59,274.25Zm6.21,3.7v-6.22h.93v.88a2.25,2.25,0,0,1,2-1,2.66,2.66,0,0,1,1,.2,1.71,1.71,0,0,1,.72.54,2.19,2.19,0,0,1,.33.76,8.22,8.22,0,0,1,0,1V278h-1v-3.78a2.62,2.62,0,0,0-.13-1,1,1,0,0,0-.44-.5,1.25,1.25,0,0,0-.73-.2,1.71,1.71,0,0,0-1.17.43,2.12,2.12,0,0,0-.49,1.61V278Zm9.29-.94.16.92a3.56,3.56,0,0,1-.8.1,2,2,0,0,1-.89-.17,1.11,1.11,0,0,1-.45-.49,4,4,0,0,1-.13-1.25v-3.58h-.76v-.81H337v-1.55l1-.62v2.17h1.06v.81H338v3.64a2.09,2.09,0,0,0,.05.58.48.48,0,0,0,.19.21.68.68,0,0,0,.35.07Zm5-1.06,1.09.13a2.63,2.63,0,0,1-.95,1.48,3.25,3.25,0,0,1-4-.31,3.32,3.32,0,0,1-.79-2.36,3.39,3.39,0,0,1,.81-2.42,2.71,2.71,0,0,1,2.09-.88,2.67,2.67,0,0,1,2,.84,3.37,3.37,0,0,1,.79,2.4v.28h-4.64a2.44,2.44,0,0,0,.58,1.57,1.72,1.72,0,0,0,1.3.54,1.61,1.61,0,0,0,1-.3A2,2,0,0,0,344.05,276Zm-3.46-1.7h3.47a2.07,2.07,0,0,0-.39-1.19,1.63,1.63,0,0,0-1.31-.61,1.74,1.74,0,0,0-1.24.48A2,2,0,0,0,340.59,274.25Zm6.19,3.7v-6.22h1v.94a2.44,2.44,0,0,1,.66-.86,1.16,1.16,0,0,1,.69-.22,2.11,2.11,0,0,1,1.08.33l-.36,1a1.55,1.55,0,0,0-.77-.23,1,1,0,0,0-.64.22,1,1,0,0,0-.37.58,3.65,3.65,0,0,0-.19,1.21V278Z" transform="translate(0 135.55)"/><path d="M385.34,278l3.3-8.59h1.22l3.52,8.59h-1.29l-1-2.61H387.5l-.95,2.61Zm2.49-3.53h2.9l-.89-2.38a18.2,18.2,0,0,1-.61-1.78,12.14,12.14,0,0,1-.46,1.64Zm10.4,3.53V277a2.27,2.27,0,0,1-2,1.06,2.74,2.74,0,0,1-1-.2,1.9,1.9,0,0,1-.7-.53,2,2,0,0,1-.33-.8,5.62,5.62,0,0,1-.06-1v-3.85h1.06v3.45a6.55,6.55,0,0,0,.06,1.11,1.15,1.15,0,0,0,.41.66,1.34,1.34,0,0,0,.81.23,1.67,1.67,0,0,0,.87-.23,1.38,1.38,0,0,0,.6-.67,3.2,3.2,0,0,0,.19-1.22v-3.33h1V278Zm5.22-.94.16.92a3.56,3.56,0,0,1-.8.1,2,2,0,0,1-.89-.17,1.11,1.11,0,0,1-.45-.49,4,4,0,0,1-.13-1.25v-3.58h-.76v-.81h.76v-1.55l1.05-.62v2.17h1.06v.81h-1.06v3.64a2.09,2.09,0,0,0,.05.58.48.48,0,0,0,.19.21.68.68,0,0,0,.35.07Zm.32-2.17a3.19,3.19,0,0,1,1-2.56,2.87,2.87,0,0,1,1.95-.69,2.8,2.8,0,0,1,2.1.84,3.16,3.16,0,0,1,.82,2.32,4.13,4.13,0,0,1-.36,1.89,2.51,2.51,0,0,1-1.06,1.08,3.09,3.09,0,0,1-1.5.37,2.84,2.84,0,0,1-2.11-.83A3.39,3.39,0,0,1,403.77,274.84Zm1.07,0a2.66,2.66,0,0,0,.52,1.78,1.67,1.67,0,0,0,1.31.6,1.65,1.65,0,0,0,1.31-.6,2.66,2.66,0,0,0,.52-1.81,2.58,2.58,0,0,0-.53-1.75,1.63,1.63,0,0,0-1.3-.59,1.66,1.66,0,0,0-1.31.59A2.63,2.63,0,0,0,404.84,274.84Zm6.32,3.11v-6.22h.93v.88a2.08,2.08,0,0,1,.79-.74,2.12,2.12,0,0,1,1.1-.28,2,2,0,0,1,1.13.28,1.46,1.46,0,0,1,.62.8,2.27,2.27,0,0,1,1.93-1.08,1.84,1.84,0,0,1,1.42.52,2.16,2.16,0,0,1,.5,1.57V278h-1.05V274a2.55,2.55,0,0,0-.11-.91.8.8,0,0,0-.36-.45,1.09,1.09,0,0,0-.64-.17,1.47,1.47,0,0,0-1.09.43,2,2,0,0,0-.42,1.41V278h-1.07V273.9a1.66,1.66,0,0,0-.26-1,.94.94,0,0,0-.83-.36,1.6,1.6,0,0,0-.83.23,1.34,1.34,0,0,0-.54.69,3.64,3.64,0,0,0-.18,1.3V278Zm9.61-3.11a3.19,3.19,0,0,1,1-2.56,2.87,2.87,0,0,1,1.95-.69,2.8,2.8,0,0,1,2.1.84,3.16,3.16,0,0,1,.82,2.32,4.13,4.13,0,0,1-.36,1.89,2.51,2.51,0,0,1-1.06,1.08,3.09,3.09,0,0,1-1.5.37,2.84,2.84,0,0,1-2.11-.83A3.39,3.39,0,0,1,420.77,274.84Zm1.07,0a2.66,2.66,0,0,0,.52,1.78,1.67,1.67,0,0,0,1.31.6,1.65,1.65,0,0,0,1.31-.6,2.66,2.66,0,0,0,.52-1.81,2.58,2.58,0,0,0-.53-1.75,1.63,1.63,0,0,0-1.3-.59,1.66,1.66,0,0,0-1.31.59A2.63,2.63,0,0,0,421.84,274.84Zm8.61,2.17.16.92a3.56,3.56,0,0,1-.8.1,2,2,0,0,1-.89-.17,1.11,1.11,0,0,1-.45-.49,4,4,0,0,1-.13-1.25v-3.58h-.76v-.81h.76v-1.55l1.05-.62v2.17h1.06v.81h-1.06v3.64a2.09,2.09,0,0,0,.05.58.48.48,0,0,0,.19.21.68.68,0,0,0,.35.07Zm.71-6.43v-1.22h1.06v1.22Zm0,7.37v-6.22h1.06V278Zm4.72,0-2.36-6.22h1.11l1.34,3.72c.13.41.26.82.39,1.25q.13-.48.39-1.17l1.39-3.8h1.08L436.86,278Zm8.53-2,1.09.13a2.63,2.63,0,0,1-.95,1.48,3.25,3.25,0,0,1-4-.31,3.32,3.32,0,0,1-.79-2.36,3.39,3.39,0,0,1,.81-2.42,2.71,2.71,0,0,1,2.09-.88,2.63,2.63,0,0,1,2,.84,3.33,3.33,0,0,1,.8,2.4v.28h-4.64a2.44,2.44,0,0,0,.58,1.57,1.72,1.72,0,0,0,1.3.54,1.61,1.61,0,0,0,1-.3A2,2,0,0,0,444.41,276Zm-3.46-1.7h3.47a2.07,2.07,0,0,0-.39-1.19,1.63,1.63,0,0,0-1.31-.61,1.74,1.74,0,0,0-1.24.48A2,2,0,0,0,441,274.25Z" transform="translate(0 135.55)"/><path d="M473.3,273.76a4.67,4.67,0,0,1,1.14-3.34,3.92,3.92,0,0,1,3-1.22,4,4,0,0,1,2.15.58,3.66,3.66,0,0,1,1.46,1.58,5.16,5.16,0,0,1,.5,2.31A5.09,5.09,0,0,1,481,276a3.71,3.71,0,0,1-1.5,1.56,4.26,4.26,0,0,1-2.08.53,4,4,0,0,1-2.17-.58,3.86,3.86,0,0,1-1.46-1.59A5,5,0,0,1,473.3,273.76Zm1.17,0a3.46,3.46,0,0,0,.83,2.45,2.95,2.95,0,0,0,4.22,0,3.68,3.68,0,0,0,.82-2.58,4.48,4.48,0,0,0-.35-1.82,2.58,2.58,0,0,0-1-1.21,2.77,2.77,0,0,0-1.53-.44,3,3,0,0,0-2.08.83A3.71,3.71,0,0,0,474.47,273.78Zm8.2,4.17v-8.59h6.21v1h-5.07V273h4.75v1h-4.75v2.92h5.27v1Zm7.94,0v-8.59h1.72l2,6.07c.19.58.32,1,.41,1.29q.14-.48.45-1.38l2.06-6h1.53V278h-1.09v-7.19l-2.5,7.19h-1l-2.49-7.31V278Zm17-.77a4,4,0,0,1-1.14.71,3.36,3.36,0,0,1-1.16.2,2.29,2.29,0,0,1-1.58-.5,1.8,1.8,0,0,1-.34-2.11,1.63,1.63,0,0,1,.55-.61,2.49,2.49,0,0,1,.76-.34,5.81,5.81,0,0,1,.94-.17,9.92,9.92,0,0,0,1.88-.36v-.27a1.18,1.18,0,0,0-.3-.92,1.81,1.81,0,0,0-1.2-.34,1.84,1.84,0,0,0-1.1.26,1.52,1.52,0,0,0-.53.91l-1-.14a2.51,2.51,0,0,1,.47-1.07,2.09,2.09,0,0,1,.94-.62,4,4,0,0,1,1.4-.22,3.64,3.64,0,0,1,1.3.19,1.62,1.62,0,0,1,.73.47,1.5,1.5,0,0,1,.33.72,6.5,6.5,0,0,1,.05,1v1.41a16.75,16.75,0,0,0,.06,1.86,2.62,2.62,0,0,0,.28.75h-1.11A2.41,2.41,0,0,1,507.58,277.18Zm-.09-2.35a8.3,8.3,0,0,1-1.72.4,3.71,3.71,0,0,0-.93.22,1,1,0,0,0-.42.33.92.92,0,0,0-.14.5.93.93,0,0,0,.31.7,1.41,1.41,0,0,0,.94.28,2.21,2.21,0,0,0,1.08-.26,1.57,1.57,0,0,0,.7-.74,2.4,2.4,0,0,0,.18-1Zm3,3.12v-6.22h.93v.88a2.25,2.25,0,0,1,2-1,2.66,2.66,0,0,1,1,.2,1.71,1.71,0,0,1,.72.54,2.19,2.19,0,0,1,.33.76,8.22,8.22,0,0,1,0,1V278h-1v-3.78a2.85,2.85,0,0,0-.13-1,1,1,0,0,0-.44-.5,1.25,1.25,0,0,0-.73-.2,1.71,1.71,0,0,0-1.17.43,2.08,2.08,0,0,0-.49,1.61V278Zm11,0v-.78a2,2,0,0,1-1.74.92,2.4,2.4,0,0,1-1.37-.41,2.74,2.74,0,0,1-1-1.15,3.92,3.92,0,0,1-.34-1.69,4.42,4.42,0,0,1,.31-1.69,2.35,2.35,0,0,1,.94-1.15,2.49,2.49,0,0,1,1.39-.41,2.08,2.08,0,0,1,1,.24,2.11,2.11,0,0,1,.72.6v-3.07h1V278Zm-3.33-3.11a2.78,2.78,0,0,0,.5,1.8,1.54,1.54,0,0,0,1.19.58,1.48,1.48,0,0,0,1.17-.57,2.58,2.58,0,0,0,.48-1.72,2.84,2.84,0,0,0-.5-1.87,1.47,1.47,0,0,0-1.2-.59,1.45,1.45,0,0,0-1.17.57A2.83,2.83,0,0,0,518.22,274.84Zm9.08-1.08a4.67,4.67,0,0,1,1.14-3.34,3.92,3.92,0,0,1,3-1.22,4,4,0,0,1,2.15.58,3.66,3.66,0,0,1,1.46,1.58,5.16,5.16,0,0,1,.5,2.31A5.09,5.09,0,0,1,535,276a3.71,3.71,0,0,1-1.5,1.56,4.26,4.26,0,0,1-2.08.53,4,4,0,0,1-2.17-.58,3.86,3.86,0,0,1-1.46-1.59A5,5,0,0,1,527.3,273.76Zm1.17,0a3.46,3.46,0,0,0,.83,2.45,2.95,2.95,0,0,0,4.22,0,3.68,3.68,0,0,0,.82-2.58,4.48,4.48,0,0,0-.35-1.82,2.58,2.58,0,0,0-1-1.21,2.77,2.77,0,0,0-1.53-.44,3,3,0,0,0-2.08.83A3.71,3.71,0,0,0,528.47,273.78ZM538.81,277l.16.92a3.56,3.56,0,0,1-.8.1,2,2,0,0,1-.89-.17,1.11,1.11,0,0,1-.45-.49,4,4,0,0,1-.13-1.25v-3.58h-.76v-.81h.76v-1.55l1-.62v2.17h1.06v.81h-1.06v3.64a2.09,2.09,0,0,0,0,.58.48.48,0,0,0,.19.21.68.68,0,0,0,.35.07Zm.71.94v-8.59h1v3.07a2.36,2.36,0,0,1,1.86-.84,2.43,2.43,0,0,1,1.21.28,1.6,1.6,0,0,1,.73.75,3.35,3.35,0,0,1,.22,1.39V278h-1.05V274a1.61,1.61,0,0,0-.34-1.15,1.28,1.28,0,0,0-1-.36,1.69,1.69,0,0,0-.89.25,1.33,1.33,0,0,0-.59.65,2.89,2.89,0,0,0-.18,1.14V278Zm11.25-2,1.09.13a2.63,2.63,0,0,1-1,1.48,3.25,3.25,0,0,1-4-.31,3.32,3.32,0,0,1-.79-2.36,3.39,3.39,0,0,1,.81-2.42,2.71,2.71,0,0,1,2.09-.88,2.63,2.63,0,0,1,2,.84,3.33,3.33,0,0,1,.8,2.4v.28h-4.64a2.44,2.44,0,0,0,.58,1.57,1.72,1.72,0,0,0,1.3.54,1.61,1.61,0,0,0,1-.3A2,2,0,0,0,550.77,276Zm-3.46-1.7h3.47a2.07,2.07,0,0,0-.39-1.19,1.63,1.63,0,0,0-1.31-.61,1.74,1.74,0,0,0-1.24.48A2,2,0,0,0,547.31,274.25Zm6.19,3.7v-6.22h1v.94a2.44,2.44,0,0,1,.66-.86,1.16,1.16,0,0,1,.69-.22,2.11,2.11,0,0,1,1.08.33l-.36,1a1.55,1.55,0,0,0-.77-.23,1,1,0,0,0-.64.22,1,1,0,0,0-.37.58,3.65,3.65,0,0,0-.19,1.21V278Z" transform="translate(0 135.55)"/><path class="cls-6" d="M190,31.42a1,1,0,0,1,1-1h10a1,1,0,0,1,1,1v10a1,1,0,0,1-1,1H191a1,1,0,0,1-1-1Z" transform="translate(0 135.55)"/><path class="cls-9" d="M210.94,40.42v-8.6h3.81a4.92,4.92,0,0,1,1.75.24,1.86,1.86,0,0,1,.95.83,2.36,2.36,0,0,1,.36,1.28,2.16,2.16,0,0,1-.59,1.54,3,3,0,0,1-1.83.8,3.86,3.86,0,0,1,.69.42,5.83,5.83,0,0,1,.94,1.14l1.5,2.35h-1.44L216,38.64a11.76,11.76,0,0,0-.83-1.19,2.11,2.11,0,0,0-.57-.56,1.66,1.66,0,0,0-.52-.25,3,3,0,0,0-.62,0h-1.33v3.82Zm1.14-4.8h2.45a3.51,3.51,0,0,0,1.2-.16,1.29,1.29,0,0,0,.68-.51,1.45,1.45,0,0,0,.23-.78,1.26,1.26,0,0,0-.45-1,2.06,2.06,0,0,0-1.39-.39h-2.72Zm12,2.8,1.09.12a2.65,2.65,0,0,1-.95,1.49,2.91,2.91,0,0,1-1.78.53,2.88,2.88,0,0,1-2.18-.85,3.3,3.3,0,0,1-.79-2.36,3.4,3.4,0,0,1,.81-2.42,2.73,2.73,0,0,1,2.09-.87,2.67,2.67,0,0,1,2,.84,3.35,3.35,0,0,1,.79,2.39v.28h-4.64a2.44,2.44,0,0,0,.58,1.58,1.71,1.71,0,0,0,1.3.53,1.67,1.67,0,0,0,1-.29A2.09,2.09,0,0,0,224.05,38.42Zm-3.46-1.71h3.47a2,2,0,0,0-.39-1.18,1.63,1.63,0,0,0-1.31-.61,1.74,1.74,0,0,0-1.24.48A1.94,1.94,0,0,0,220.59,36.71Zm7.93,3.71-2.36-6.22h1.11l1.34,3.72c.13.4.27.82.39,1.25.09-.33.22-.72.39-1.18l1.39-3.79h1.08l-2.36,6.22Zm8.53-2,1.09.12a2.65,2.65,0,0,1-.95,1.49,2.91,2.91,0,0,1-1.78.53,2.88,2.88,0,0,1-2.18-.85,3.3,3.3,0,0,1-.79-2.36,3.4,3.4,0,0,1,.81-2.42,2.73,2.73,0,0,1,2.09-.87,2.67,2.67,0,0,1,2,.84,3.35,3.35,0,0,1,.79,2.39v.28h-4.64a2.44,2.44,0,0,0,.58,1.58,1.71,1.71,0,0,0,1.3.53,1.67,1.67,0,0,0,1-.29A2.09,2.09,0,0,0,237.05,38.42Zm-3.46-1.71h3.47a2,2,0,0,0-.39-1.18,1.63,1.63,0,0,0-1.31-.61,1.74,1.74,0,0,0-1.24.48A1.94,1.94,0,0,0,233.59,36.71Zm6.21,3.71V34.2h.93v.87a2.27,2.27,0,0,1,2-1,2.49,2.49,0,0,1,1,.2,1.7,1.7,0,0,1,.72.53,2.33,2.33,0,0,1,.33.77,8.22,8.22,0,0,1,0,1v3.83h-1V36.64a2.62,2.62,0,0,0-.13-1,1,1,0,0,0-.44-.5,1.26,1.26,0,0,0-.73-.21,1.72,1.72,0,0,0-1.17.44,2.1,2.1,0,0,0-.49,1.61v3.41Zm11.08,0v-.93a2.31,2.31,0,0,1-2,1.07,2.56,2.56,0,0,1-1-.21,1.71,1.71,0,0,1-.7-.53,2,2,0,0,1-.33-.79,5.68,5.68,0,0,1-.06-1V34.2h1.06v3.45a6.71,6.71,0,0,0,.06,1.11,1.15,1.15,0,0,0,.41.66,1.41,1.41,0,0,0,.81.23,1.77,1.77,0,0,0,.87-.23,1.36,1.36,0,0,0,.6-.68,3.15,3.15,0,0,0,.19-1.21V34.2h1v6.22Zm7.17-2,1.09.12a2.65,2.65,0,0,1-.95,1.49,2.91,2.91,0,0,1-1.78.53,2.88,2.88,0,0,1-2.18-.85,3.3,3.3,0,0,1-.79-2.36,3.4,3.4,0,0,1,.81-2.42,2.73,2.73,0,0,1,2.09-.87,2.67,2.67,0,0,1,2,.84,3.35,3.35,0,0,1,.79,2.39v.28h-4.64a2.44,2.44,0,0,0,.58,1.58,1.71,1.71,0,0,0,1.3.53,1.67,1.67,0,0,0,1-.29A2.09,2.09,0,0,0,258.05,38.42Zm-3.46-1.71h3.47a2,2,0,0,0-.39-1.18,1.63,1.63,0,0,0-1.31-.61,1.74,1.74,0,0,0-1.24.48A1.94,1.94,0,0,0,254.59,36.71Zm5.79,1.13V36.78h3.24v1.06Zm9.67,1.56v1h-5.69a2.34,2.34,0,0,1,.12-.74,4.34,4.34,0,0,1,.69-1.14,11.52,11.52,0,0,1,1.39-1.3,11.52,11.52,0,0,0,1.89-1.82,2.12,2.12,0,0,0,.5-1.27,1.39,1.39,0,0,0-.45-1,1.61,1.61,0,0,0-1.17-.43,1.65,1.65,0,0,0-1.22.45,1.76,1.76,0,0,0-.47,1.27l-1.08-.11a2.68,2.68,0,0,1,.83-1.85,2.93,2.93,0,0,1,2-.64,2.7,2.7,0,0,1,1.95.69,2.27,2.27,0,0,1,.72,1.7,2.47,2.47,0,0,1-.22,1,3.79,3.79,0,0,1-.7,1,15.27,15.27,0,0,1-1.61,1.5,15.93,15.93,0,0,0-1.23,1.1,3.08,3.08,0,0,0-.44.56Zm1.45-3.22a7.77,7.77,0,0,1,.31-2.45,3.07,3.07,0,0,1,.92-1.44,2.46,2.46,0,0,1,1.57-.5,2.53,2.53,0,0,1,1.2.28,2.38,2.38,0,0,1,.88.82,4.31,4.31,0,0,1,.53,1.26,9.09,9.09,0,0,1,.18,2,7.74,7.74,0,0,1-.31,2.44,3,3,0,0,1-.92,1.44,2.64,2.64,0,0,1-3.52-.39A5.68,5.68,0,0,1,271.5,36.18Zm1.08,0a5.24,5.24,0,0,0,.5,2.81,1.4,1.4,0,0,0,2.44,0,5.34,5.34,0,0,0,.5-2.81,5.34,5.34,0,0,0-.5-2.81,1.46,1.46,0,0,0-1.24-.7,1.37,1.37,0,0,0-1.16.61A5.48,5.48,0,0,0,272.58,36.18Zm9.89,4.24h-1.05V33.7a6.47,6.47,0,0,1-1,.73,6,6,0,0,1-1.1.53V34a6.53,6.53,0,0,0,1.53-1,4,4,0,0,0,1-1.16h.67Zm3.19-2,1-.09a1.84,1.84,0,0,0,.49,1,1.45,1.45,0,0,0,.93.31,1.65,1.65,0,0,0,.85-.22,2.15,2.15,0,0,0,.61-.59,4,4,0,0,0,.39-1,5.7,5.7,0,0,0,.15-1.3v-.22a2.45,2.45,0,0,1-.86.83,2.31,2.31,0,0,1-1.18.31,2.4,2.4,0,0,1-1.82-.77,2.85,2.85,0,0,1-.73-2,2.91,2.91,0,0,1,.77-2.11,2.6,2.6,0,0,1,1.93-.8,2.71,2.71,0,0,1,1.52.45,2.85,2.85,0,0,1,1.06,1.3,6.29,6.29,0,0,1,.36,2.41,7.79,7.79,0,0,1-.36,2.62,3,3,0,0,1-1.06,1.49,2.79,2.79,0,0,1-1.64.5,2.45,2.45,0,0,1-1.66-.55A2.36,2.36,0,0,1,285.66,38.43ZM290,34.64a2,2,0,0,0-.49-1.44,1.44,1.44,0,0,0-1.15-.53,1.66,1.66,0,0,0-1.24.57,2.14,2.14,0,0,0-.51,1.49,1.82,1.82,0,0,0,.5,1.33,1.64,1.64,0,0,0,1.22.51,1.55,1.55,0,0,0,1.2-.51A2.06,2.06,0,0,0,290,34.64Z" transform="translate(0 135.55)"/><path class="cls-8" d="M308,31.42a1,1,0,0,1,1-1h10a1,1,0,0,1,1,1v10a1,1,0,0,1-1,1H309a1,1,0,0,1-1-1Z" transform="translate(0 135.55)"/><path class="cls-9" d="M328.94,40.42v-8.6h3.81a4.92,4.92,0,0,1,1.75.24,1.86,1.86,0,0,1,.95.83,2.36,2.36,0,0,1,.36,1.28,2.16,2.16,0,0,1-.59,1.54,3,3,0,0,1-1.83.8,3.86,3.86,0,0,1,.69.42,5.83,5.83,0,0,1,.94,1.14l1.5,2.35h-1.44L334,38.64a11.76,11.76,0,0,0-.83-1.19,2.11,2.11,0,0,0-.57-.56,1.66,1.66,0,0,0-.52-.25,3,3,0,0,0-.62,0h-1.33v3.82Zm1.14-4.8h2.45a3.51,3.51,0,0,0,1.2-.16,1.29,1.29,0,0,0,.68-.51,1.45,1.45,0,0,0,.23-.78,1.26,1.26,0,0,0-.45-1,2.06,2.06,0,0,0-1.39-.39h-2.72Zm12,2.8,1.09.12a2.65,2.65,0,0,1-.95,1.49,2.91,2.91,0,0,1-1.78.53,2.88,2.88,0,0,1-2.18-.85,3.3,3.3,0,0,1-.79-2.36,3.4,3.4,0,0,1,.81-2.42,2.73,2.73,0,0,1,2.09-.87,2.67,2.67,0,0,1,2,.84,3.35,3.35,0,0,1,.79,2.39v.28h-4.64a2.44,2.44,0,0,0,.58,1.58,1.71,1.71,0,0,0,1.3.53,1.67,1.67,0,0,0,1-.29A2.09,2.09,0,0,0,342.05,38.42Zm-3.46-1.71h3.47a2,2,0,0,0-.39-1.18,1.63,1.63,0,0,0-1.31-.61,1.74,1.74,0,0,0-1.24.48A1.94,1.94,0,0,0,338.59,36.71Zm7.93,3.71-2.36-6.22h1.11l1.34,3.72c.13.4.27.82.39,1.25.09-.33.22-.72.39-1.18l1.39-3.79h1.08l-2.36,6.22Zm8.53-2,1.09.12a2.65,2.65,0,0,1-.95,1.49,2.91,2.91,0,0,1-1.78.53,2.88,2.88,0,0,1-2.18-.85,3.3,3.3,0,0,1-.79-2.36,3.4,3.4,0,0,1,.81-2.42,2.73,2.73,0,0,1,2.09-.87,2.67,2.67,0,0,1,2,.84,3.35,3.35,0,0,1,.79,2.39v.28h-4.64a2.44,2.44,0,0,0,.58,1.58,1.71,1.71,0,0,0,1.3.53,1.67,1.67,0,0,0,1-.29A2.09,2.09,0,0,0,355.05,38.42Zm-3.46-1.71h3.47a2,2,0,0,0-.39-1.18,1.63,1.63,0,0,0-1.31-.61,1.74,1.74,0,0,0-1.24.48A1.94,1.94,0,0,0,351.59,36.71Zm6.21,3.71V34.2h.93v.87a2.27,2.27,0,0,1,2-1,2.49,2.49,0,0,1,1,.2,1.7,1.7,0,0,1,.72.53,2.33,2.33,0,0,1,.33.77,8.22,8.22,0,0,1,0,1v3.83h-1V36.64a2.62,2.62,0,0,0-.13-1,1,1,0,0,0-.44-.5,1.26,1.26,0,0,0-.73-.21,1.72,1.72,0,0,0-1.17.44,2.1,2.1,0,0,0-.49,1.61v3.41Zm11.08,0v-.93a2.31,2.31,0,0,1-2,1.07,2.56,2.56,0,0,1-1-.21,1.71,1.71,0,0,1-.7-.53,2,2,0,0,1-.33-.79,5.68,5.68,0,0,1-.06-1V34.2h1.06v3.45a6.71,6.71,0,0,0,.06,1.11,1.15,1.15,0,0,0,.41.66,1.41,1.41,0,0,0,.81.23,1.77,1.77,0,0,0,.87-.23,1.36,1.36,0,0,0,.6-.68,3.15,3.15,0,0,0,.19-1.21V34.2h1v6.22Zm7.17-2,1.09.12a2.65,2.65,0,0,1-.95,1.49,2.91,2.91,0,0,1-1.78.53,2.88,2.88,0,0,1-2.18-.85,3.3,3.3,0,0,1-.79-2.36,3.4,3.4,0,0,1,.81-2.42,2.73,2.73,0,0,1,2.09-.87,2.67,2.67,0,0,1,2,.84,3.35,3.35,0,0,1,.79,2.39v.28h-4.64a2.44,2.44,0,0,0,.58,1.58,1.71,1.71,0,0,0,1.3.53,1.67,1.67,0,0,0,1-.29A2.09,2.09,0,0,0,376.05,38.42Zm-3.46-1.71h3.47a2,2,0,0,0-.39-1.18,1.63,1.63,0,0,0-1.31-.61,1.74,1.74,0,0,0-1.24.48A1.94,1.94,0,0,0,372.59,36.71Zm5.79,1.13V36.78h3.24v1.06Zm9.67,1.56v1h-5.69a2.34,2.34,0,0,1,.12-.74,4.34,4.34,0,0,1,.69-1.14,11.52,11.52,0,0,1,1.39-1.3,11.52,11.52,0,0,0,1.89-1.82,2.12,2.12,0,0,0,.5-1.27,1.39,1.39,0,0,0-.45-1,1.61,1.61,0,0,0-1.17-.43,1.65,1.65,0,0,0-1.22.45,1.76,1.76,0,0,0-.47,1.27l-1.08-.11a2.68,2.68,0,0,1,.83-1.85,2.93,2.93,0,0,1,2-.64,2.7,2.7,0,0,1,1.95.69,2.27,2.27,0,0,1,.72,1.7,2.47,2.47,0,0,1-.22,1,3.79,3.79,0,0,1-.7,1,15.27,15.27,0,0,1-1.61,1.5,15.93,15.93,0,0,0-1.23,1.1,3.08,3.08,0,0,0-.44.56Zm1.45-3.22a7.77,7.77,0,0,1,.31-2.45,3.07,3.07,0,0,1,.92-1.44,2.46,2.46,0,0,1,1.57-.5,2.53,2.53,0,0,1,1.2.28,2.38,2.38,0,0,1,.88.82,4.31,4.31,0,0,1,.53,1.26,9.09,9.09,0,0,1,.18,2,7.74,7.74,0,0,1-.31,2.44,3,3,0,0,1-.92,1.44,2.64,2.64,0,0,1-3.52-.39A5.68,5.68,0,0,1,389.5,36.18Zm1.08,0a5.24,5.24,0,0,0,.5,2.81,1.4,1.4,0,0,0,2.44,0,5.34,5.34,0,0,0,.5-2.81,5.34,5.34,0,0,0-.5-2.81,1.46,1.46,0,0,0-1.24-.7,1.37,1.37,0,0,0-1.16.61A5.48,5.48,0,0,0,390.58,36.18Zm9.89,4.24h-1.05V33.7a6.47,6.47,0,0,1-1,.73,6,6,0,0,1-1.1.53V34a6.53,6.53,0,0,0,1.53-1,4,4,0,0,0,1-1.16h.67Zm4.65-4.66a2.22,2.22,0,0,1-1-.69,1.79,1.79,0,0,1-.31-1.06,2.1,2.1,0,0,1,.67-1.58,2.57,2.57,0,0,1,1.8-.64,2.5,2.5,0,0,1,1.81.66A2.12,2.12,0,0,1,408.8,34a1.71,1.71,0,0,1-.32,1,2,2,0,0,1-1,.69,2.22,2.22,0,0,1,1.2.83,2.25,2.25,0,0,1,.41,1.37,2.47,2.47,0,0,1-.78,1.85,3.16,3.16,0,0,1-4.09,0,2.48,2.48,0,0,1-.79-1.88,2.2,2.2,0,0,1,.43-1.4A2.16,2.16,0,0,1,405.12,35.76Zm-.21-1.8a1.35,1.35,0,0,0,.39,1,1.42,1.42,0,0,0,1,.39,1.39,1.39,0,0,0,1-.37,1.35,1.35,0,0,0,0-1.92,1.36,1.36,0,0,0-1-.41,1.4,1.4,0,0,0-1,.39A1.26,1.26,0,0,0,404.91,34Zm-.33,4a2.09,2.09,0,0,0,.2.88,1.54,1.54,0,0,0,.64.65,1.82,1.82,0,0,0,.91.24,1.63,1.63,0,0,0,1.23-.49,1.61,1.61,0,0,0,.5-1.23,1.71,1.71,0,0,0-1.76-1.77,1.67,1.67,0,0,0-1.72,1.72Z" transform="translate(0 135.55)"/><text y="135.55"/><text y="135.55"/><text class="cls-10" transform="translate(89.85 259.04)">$4,0<tspan class="cls-11" x="16.5" y="0">2</tspan><tspan x="20.9" y="0">7</tspan></text><text class="cls-10" transform="translate(122.74 217.18)">$5,292</text><text class="cls-10" transform="translate(39.82 197.04)">$6 </text><text class="cls-10" transform="translate(40.35 266.69)">$4 </text><text class="cls-10" transform="translate(38.76 332.82)">$2</text><text class="cls-10" transform="translate(39.29 398.94)">0</text><text class="cls-10" transform="translate(391.34 375.28)">$5<tspan class="cls-12" x="9.43" y="0">3</tspan><tspan x="13.69" y="0">7</tspan></text><text class="cls-10" transform="translate(421.56 378.28)">$<tspan class="cls-13" x="4.71" y="0">4</tspan><tspan x="9.01" y="0">78</tspan></text><text class="cls-10" transform="translate(486.66 382.38)">$353</text><text class="cls-10" transform="translate(519.76 369.86)">$6<tspan class="cls-14" x="9.43" y="0">5</tspan><tspan x="13.53" y="0">1</tspan></text><text class="cls-10" transform="translate(188.52 360.71)">$8<tspan class="cls-15" x="9.43" y="0">8</tspan><tspan x="13.55" y="0">1</tspan></text><text class="cls-10" transform="translate(222.91 366.95)">$8<tspan class="cls-12" x="9.43" y="0">3</tspan><tspan x="13.69" y="0">7</tspan></text><text class="cls-10" transform="translate(288.69 325.84)">$2,<tspan class="cls-16" x="11.79" y="0">0</tspan><tspan class="cls-17" x="15.92" y="0">1</tspan><tspan x="19.9" y="0">5</tspan></text><text class="cls-10" transform="translate(321.58 315.62)">$2,253</text><text class="cls-10" transform="translate(52.9 196.55)">billion</text></svg>