<?xml version="1.0" encoding="utf-8"?>
<!-- Generator: Adobe Illustrator 23.1.1, SVG Export Plug-In . SVG Version: 6.00 Build 0)  -->
<svg version="1.1" id="Layer_1" xmlns="http://www.w3.org/2000/svg" xmlns:xlink="http://www.w3.org/1999/xlink" x="0px" y="0px"
	 viewBox="0 0 600 320" style="enable-background:new 0 0 600 320;" xml:space="preserve">
<style type="text/css">
	.st0{fill:#F2F2F2;}
	.st1{fill:none;stroke:#333333;stroke-miterlimit:10;}
	.st2{fill:none;stroke:#CCCCCC;stroke-miterlimit:10;}
	.st3{clip-path:url(#SVGID_2_);fill:none;}
	.st4{clip-path:url(#SVGID_4_);fill:#D9CDB8;}
	.st5{clip-path:url(#SVGID_6_);fill:none;}
	.st6{clip-path:url(#SVGID_8_);fill:#D9CDB8;stroke:#000000;stroke-miterlimit:10;}
	.st7{clip-path:url(#SVGID_10_);fill:none;}
	.st8{clip-path:url(#SVGID_12_);fill:#D9CDB8;}
	.st9{clip-path:url(#SVGID_14_);fill:none;}
	.st10{clip-path:url(#SVGID_16_);fill:#D9CDB8;stroke:#000000;stroke-miterlimit:10;}
	.st11{clip-path:url(#SVGID_18_);fill:none;}
	.st12{clip-path:url(#SVGID_20_);fill:#D9CDB8;}
	.st13{clip-path:url(#SVGID_22_);fill:none;}
	.st14{clip-path:url(#SVGID_24_);fill:#04ADBF;}
	.st15{clip-path:url(#SVGID_26_);fill:none;}
	.st16{clip-path:url(#SVGID_28_);fill:#04ADBF;}
	.st17{clip-path:url(#SVGID_30_);fill:none;}
	.st18{clip-path:url(#SVGID_32_);fill:#04ADBF;}
	.st19{clip-path:url(#SVGID_34_);fill:none;}
	.st20{clip-path:url(#SVGID_36_);fill:#04ADBF;}
	.st21{clip-path:url(#SVGID_38_);fill:none;}
	.st22{clip-path:url(#SVGID_40_);fill:#04ADBF;}
	.st23{fill:#D9CDB8;}
	.st24{fill:#1A1A1A;}
	.st25{fill:#04ADBF;}
	.st26{fill:none;}
	.st27{font-family:'Futura-MediumItalic';}
	.st28{font-size:7.6379px;}
</style>
<path class="st0" d="M0,0.2h600v318.1H0V0.2z"/>
<path class="st1" d="M52.5,261h529"/>
<path class="st2" d="M52.5,195h529"/>
<path class="st2" d="M52.5,129h529"/>
<path class="st2" d="M52.5,63h529"/>
<g>
	<defs>
		<rect id="SVGID_1_" x="52.5" y="62.8" width="528.9" height="198.2"/>
	</defs>
	<clipPath id="SVGID_2_">
		<use xlink:href="#SVGID_1_"  style="overflow:visible;"/>
	</clipPath>
	<path class="st3" d="M118,260.5H87v-131c0-1.1,0.9-2,2-2h27c1.1,0,2,0.9,2,2V260.5z"/>
</g>
<g>
	<defs>
		<rect id="SVGID_3_" x="52.5" y="62.8" width="528.9" height="198.2"/>
	</defs>
	<clipPath id="SVGID_4_">
		<use xlink:href="#SVGID_3_"  style="overflow:visible;"/>
	</clipPath>
	<path class="st4" d="M118,260.5H87v-131c0-1.1,0.9-2,2-2h27c1.1,0,2,0.9,2,2V260.5z"/>
</g>
<g>
	<defs>
		<rect id="SVGID_5_" x="52.5" y="62.8" width="528.9" height="198.2"/>
	</defs>
	<clipPath id="SVGID_6_">
		<use xlink:href="#SVGID_5_"  style="overflow:visible;"/>
	</clipPath>
	<path class="st5" d="M217,260.5h-31v-27c0-1.1,0.9-2,2-2h27c1.1,0,2,0.9,2,2V260.5z"/>
</g>
<g>
	<defs>
		<rect id="SVGID_7_" x="52.5" y="62.8" width="528.9" height="198.2"/>
	</defs>
	<clipPath id="SVGID_8_">
		<use xlink:href="#SVGID_7_"  style="overflow:visible;"/>
	</clipPath>
	<path class="st6" d="M217,260.5h-31v-27c0-1.1,0.9-2,2-2h27c1.1,0,2,0.9,2,2V260.5z"/>
</g>
<g>
	<defs>
		<rect id="SVGID_9_" x="52.5" y="62.8" width="528.9" height="198.2"/>
	</defs>
	<clipPath id="SVGID_10_">
		<use xlink:href="#SVGID_9_"  style="overflow:visible;"/>
	</clipPath>
	<path class="st7" d="M316,260.5h-31v-64c0-1.1,0.9-2,2-2h27c1.1,0,2,0.9,2,2V260.5z"/>
</g>
<g>
	<defs>
		<rect id="SVGID_11_" x="52.5" y="62.8" width="528.9" height="198.2"/>
	</defs>
	<clipPath id="SVGID_12_">
		<use xlink:href="#SVGID_11_"  style="overflow:visible;"/>
	</clipPath>
	<path class="st8" d="M316,260.5h-31v-64c0-1.1,0.9-2,2-2h27c1.1,0,2,0.9,2,2V260.5z"/>
</g>
<g>
	<defs>
		<rect id="SVGID_13_" x="52.5" y="62.8" width="528.9" height="198.2"/>
	</defs>
	<clipPath id="SVGID_14_">
		<use xlink:href="#SVGID_13_"  style="overflow:visible;"/>
	</clipPath>
	<path class="st9" d="M415,260.5h-31v-15c0-1.1,0.9-2,2-2h27c1.1,0,2,0.9,2,2V260.5z"/>
</g>
<g>
	<defs>
		<rect id="SVGID_15_" x="52.5" y="62.8" width="528.9" height="198.2"/>
	</defs>
	<clipPath id="SVGID_16_">
		<use xlink:href="#SVGID_15_"  style="overflow:visible;"/>
	</clipPath>
	<path class="st10" d="M415,260.5h-31v-15c0-1.1,0.9-2,2-2h27c1.1,0,2,0.9,2,2V260.5z"/>
</g>
<g>
	<defs>
		<rect id="SVGID_17_" x="52.5" y="62.8" width="528.9" height="198.2"/>
	</defs>
	<clipPath id="SVGID_18_">
		<use xlink:href="#SVGID_17_"  style="overflow:visible;"/>
	</clipPath>
	<path class="st11" d="M514,260.5h-31v-9c0-1.1,0.9-2,2-2h27c1.1,0,2,0.9,2,2V260.5z"/>
</g>
<g>
	<defs>
		<rect id="SVGID_19_" x="52.5" y="62.8" width="528.9" height="198.2"/>
	</defs>
	<clipPath id="SVGID_20_">
		<use xlink:href="#SVGID_19_"  style="overflow:visible;"/>
	</clipPath>
	<path class="st12" d="M514,260.5h-31v-9c0-1.1,0.9-2,2-2h27c1.1,0,2,0.9,2,2V260.5z"/>
</g>
<g>
	<defs>
		<rect id="SVGID_21_" x="52.5" y="62.8" width="528.9" height="198.2"/>
	</defs>
	<clipPath id="SVGID_22_">
		<use xlink:href="#SVGID_21_"  style="overflow:visible;"/>
	</clipPath>
	<path class="st13" d="M150,260.5h-31v-172c0-1.1,0.9-2,2-2h27c1.1,0,2,0.9,2,2V260.5z"/>
</g>
<g>
	<defs>
		<rect id="SVGID_23_" x="52.5" y="62.8" width="528.9" height="198.2"/>
	</defs>
	<clipPath id="SVGID_24_">
		<use xlink:href="#SVGID_23_"  style="overflow:visible;"/>
	</clipPath>
	<path class="st14" d="M150,260.5h-31v-172c0-1.1,0.9-2,2-2h27c1.1,0,2,0.9,2,2V260.5z"/>
</g>
<g>
	<defs>
		<rect id="SVGID_25_" x="52.5" y="62.8" width="528.9" height="198.2"/>
	</defs>
	<clipPath id="SVGID_26_">
		<use xlink:href="#SVGID_25_"  style="overflow:visible;"/>
	</clipPath>
	<path class="st15" d="M249,260.5h-31v-25c0-1.1,0.9-2,2-2h27c1.1,0,2,0.9,2,2V260.5z"/>
</g>
<g>
	<defs>
		<rect id="SVGID_27_" x="52.5" y="62.8" width="528.9" height="198.2"/>
	</defs>
	<clipPath id="SVGID_28_">
		<use xlink:href="#SVGID_27_"  style="overflow:visible;"/>
	</clipPath>
	<path class="st16" d="M249,260.5h-31v-25c0-1.1,0.9-2,2-2h27c1.1,0,2,0.9,2,2V260.5z"/>
</g>
<g>
	<defs>
		<rect id="SVGID_29_" x="52.5" y="62.8" width="528.9" height="198.2"/>
	</defs>
	<clipPath id="SVGID_30_">
		<use xlink:href="#SVGID_29_"  style="overflow:visible;"/>
	</clipPath>
	<path class="st17" d="M348,260.5h-31v-72c0-1.1,0.9-2,2-2h27c1.1,0,2,0.9,2,2V260.5z"/>
</g>
<g>
	<defs>
		<rect id="SVGID_31_" x="52.5" y="62.8" width="528.9" height="198.2"/>
	</defs>
	<clipPath id="SVGID_32_">
		<use xlink:href="#SVGID_31_"  style="overflow:visible;"/>
	</clipPath>
	<path class="st18" d="M348,260.5h-31v-72c0-1.1,0.9-2,2-2h27c1.1,0,2,0.9,2,2V260.5z"/>
</g>
<g>
	<defs>
		<rect id="SVGID_33_" x="52.5" y="62.8" width="528.9" height="198.2"/>
	</defs>
	<clipPath id="SVGID_34_">
		<use xlink:href="#SVGID_33_"  style="overflow:visible;"/>
	</clipPath>
	<path class="st19" d="M447,260.5h-31v-13c0-1.1,0.9-2,2-2h27c1.1,0,2,0.9,2,2V260.5z"/>
</g>
<g>
	<defs>
		<rect id="SVGID_35_" x="52.5" y="62.8" width="528.9" height="198.2"/>
	</defs>
	<clipPath id="SVGID_36_">
		<use xlink:href="#SVGID_35_"  style="overflow:visible;"/>
	</clipPath>
	<path class="st20" d="M447,260.5h-31v-13c0-1.1,0.9-2,2-2h27c1.1,0,2,0.9,2,2V260.5z"/>
</g>
<g>
	<defs>
		<rect id="SVGID_37_" x="52.5" y="62.8" width="528.9" height="198.2"/>
	</defs>
	<clipPath id="SVGID_38_">
		<use xlink:href="#SVGID_37_"  style="overflow:visible;"/>
	</clipPath>
	<path class="st21" d="M546,260.5h-31v-19c0-1.1,0.9-2,2-2h27c1.1,0,2,0.9,2,2V260.5z"/>
</g>
<g>
	<defs>
		<rect id="SVGID_39_" x="52.5" y="62.8" width="528.9" height="198.2"/>
	</defs>
	<clipPath id="SVGID_40_">
		<use xlink:href="#SVGID_39_"  style="overflow:visible;"/>
	</clipPath>
	<path class="st22" d="M546,260.5h-31v-19c0-1.1,0.9-2,2-2h27c1.1,0,2,0.9,2,2V260.5z"/>
</g>
<path d="M40,260.7c0-1,0.1-1.8,0.3-2.5c0.2-0.6,0.5-1.1,0.9-1.4c0.4-0.3,0.9-0.5,1.6-0.5c0.5,0,0.9,0.1,1.2,0.3
	c0.4,0.2,0.6,0.5,0.9,0.8c0.2,0.3,0.4,0.8,0.5,1.3s0.2,1.2,0.2,2c0,1-0.1,1.8-0.3,2.4c-0.2,0.6-0.5,1.1-0.9,1.4
	c-0.4,0.3-0.9,0.5-1.6,0.5c-0.8,0-1.5-0.3-2-0.9C40.3,263.5,40,262.3,40,260.7z M41.1,260.7c0,1.4,0.2,2.3,0.5,2.8
	c0.3,0.5,0.7,0.7,1.2,0.7c0.5,0,0.9-0.2,1.2-0.7c0.3-0.5,0.5-1.4,0.5-2.8c0-1.4-0.2-2.4-0.5-2.8c-0.3-0.5-0.7-0.7-1.2-0.7
	c-0.5,0-0.9,0.2-1.2,0.6C41.3,258.3,41.1,259.3,41.1,260.7z"/>
<path d="M24.6,197.9v1h-5.7c0-0.2,0-0.5,0.1-0.7c0.1-0.4,0.4-0.8,0.7-1.1c0.3-0.4,0.8-0.8,1.4-1.3c0.9-0.8,1.6-1.4,1.9-1.8
	c0.3-0.4,0.5-0.9,0.5-1.3c0-0.4-0.2-0.8-0.5-1c-0.3-0.3-0.7-0.4-1.2-0.4c-0.5,0-0.9,0.2-1.2,0.5c-0.3,0.3-0.5,0.7-0.5,1.3l-1.1-0.1
	c0.1-0.8,0.3-1.4,0.8-1.8c0.5-0.4,1.1-0.6,2-0.6c0.8,0,1.5,0.2,2,0.7c0.5,0.5,0.7,1,0.7,1.7c0,0.3-0.1,0.7-0.2,1
	c-0.1,0.3-0.4,0.7-0.7,1c-0.3,0.4-0.9,0.9-1.6,1.5c-0.6,0.5-1,0.9-1.2,1.1c-0.2,0.2-0.3,0.4-0.4,0.6H24.6z M26,194.7
	c0-1,0.1-1.8,0.3-2.5c0.2-0.6,0.5-1.1,0.9-1.4c0.4-0.3,0.9-0.5,1.6-0.5c0.5,0,0.9,0.1,1.2,0.3c0.4,0.2,0.6,0.5,0.9,0.8
	c0.2,0.3,0.4,0.8,0.5,1.3c0.1,0.5,0.2,1.2,0.2,2c0,1-0.1,1.8-0.3,2.4c-0.2,0.6-0.5,1.1-0.9,1.4c-0.4,0.3-0.9,0.5-1.6,0.5
	c-0.8,0-1.5-0.3-2-0.9C26.3,197.4,26,196.3,26,194.7z M27.1,194.7c0,1.4,0.2,2.3,0.5,2.8c0.3,0.5,0.7,0.7,1.2,0.7
	c0.5,0,0.9-0.2,1.2-0.7c0.3-0.5,0.5-1.4,0.5-2.8c0-1.4-0.2-2.4-0.5-2.8c-0.3-0.5-0.7-0.7-1.2-0.7c-0.5,0-0.9,0.2-1.2,0.6
	C27.3,192.3,27.1,193.2,27.1,194.7z M33,194.7c0-1,0.1-1.8,0.3-2.5c0.2-0.6,0.5-1.1,0.9-1.4c0.4-0.3,0.9-0.5,1.6-0.5
	c0.5,0,0.9,0.1,1.2,0.3c0.4,0.2,0.6,0.5,0.9,0.8c0.2,0.3,0.4,0.8,0.5,1.3c0.1,0.5,0.2,1.2,0.2,2c0,1-0.1,1.8-0.3,2.4
	c-0.2,0.6-0.5,1.1-0.9,1.4c-0.4,0.3-0.9,0.5-1.6,0.5c-0.8,0-1.5-0.3-2-0.9C33.3,197.4,33,196.3,33,194.7z M34.1,194.7
	c0,1.4,0.2,2.3,0.5,2.8c0.3,0.5,0.7,0.7,1.2,0.7c0.5,0,0.9-0.2,1.2-0.7c0.3-0.5,0.5-1.4,0.5-2.8c0-1.4-0.2-2.4-0.5-2.8
	c-0.3-0.5-0.7-0.7-1.2-0.7c-0.5,0-0.9,0.2-1.2,0.6C34.3,192.3,34.1,193.2,34.1,194.7z M40,194.7c0-1,0.1-1.8,0.3-2.5
	c0.2-0.6,0.5-1.1,0.9-1.4c0.4-0.3,0.9-0.5,1.6-0.5c0.5,0,0.9,0.1,1.2,0.3c0.4,0.2,0.6,0.5,0.9,0.8c0.2,0.3,0.4,0.8,0.5,1.3
	c0.1,0.5,0.2,1.2,0.2,2c0,1-0.1,1.8-0.3,2.4c-0.2,0.6-0.5,1.1-0.9,1.4c-0.4,0.3-0.9,0.5-1.6,0.5c-0.8,0-1.5-0.3-2-0.9
	C40.3,197.4,40,196.3,40,194.7z M41.1,194.7c0,1.4,0.2,2.3,0.5,2.8c0.3,0.5,0.7,0.7,1.2,0.7c0.5,0,0.9-0.2,1.2-0.7
	c0.3-0.5,0.5-1.4,0.5-2.8c0-1.4-0.2-2.4-0.5-2.8c-0.3-0.5-0.7-0.7-1.2-0.7c-0.5,0-0.9,0.2-1.2,0.6C41.3,192.3,41.1,193.2,41.1,194.7
	z"/>
<path d="M22.4,132.8v-2.1h-3.7v-1l3.9-5.6h0.9v5.6h1.2v1h-1.2v2.1H22.4z M22.4,129.8v-3.9l-2.7,3.9H22.4z M26,128.6
	c0-1,0.1-1.8,0.3-2.5c0.2-0.6,0.5-1.1,0.9-1.4c0.4-0.3,0.9-0.5,1.6-0.5c0.5,0,0.9,0.1,1.2,0.3c0.4,0.2,0.6,0.5,0.9,0.8
	c0.2,0.3,0.4,0.8,0.5,1.3c0.1,0.5,0.2,1.2,0.2,2c0,1-0.1,1.8-0.3,2.4c-0.2,0.6-0.5,1.1-0.9,1.4c-0.4,0.3-0.9,0.5-1.6,0.5
	c-0.8,0-1.5-0.3-2-0.9C26.3,131.4,26,130.2,26,128.6z M27.1,128.6c0,1.4,0.2,2.3,0.5,2.8c0.3,0.5,0.7,0.7,1.2,0.7
	c0.5,0,0.9-0.2,1.2-0.7c0.3-0.5,0.5-1.4,0.5-2.8c0-1.4-0.2-2.4-0.5-2.8c-0.3-0.5-0.7-0.7-1.2-0.7c-0.5,0-0.9,0.2-1.2,0.6
	C27.3,126.2,27.1,127.2,27.1,128.6z M33,128.6c0-1,0.1-1.8,0.3-2.5c0.2-0.6,0.5-1.1,0.9-1.4c0.4-0.3,0.9-0.5,1.6-0.5
	c0.5,0,0.9,0.1,1.2,0.3c0.4,0.2,0.6,0.5,0.9,0.8c0.2,0.3,0.4,0.8,0.5,1.3s0.2,1.2,0.2,2c0,1-0.1,1.8-0.3,2.4
	c-0.2,0.6-0.5,1.1-0.9,1.4c-0.4,0.3-0.9,0.5-1.6,0.5c-0.8,0-1.5-0.3-2-0.9C33.3,131.4,33,130.2,33,128.6z M34.1,128.6
	c0,1.4,0.2,2.3,0.5,2.8c0.3,0.5,0.7,0.7,1.2,0.7c0.5,0,0.9-0.2,1.2-0.7c0.3-0.5,0.5-1.4,0.5-2.8c0-1.4-0.2-2.4-0.5-2.8
	c-0.3-0.5-0.7-0.7-1.2-0.7c-0.5,0-0.9,0.2-1.2,0.6C34.3,126.2,34.1,127.2,34.1,128.6z M40,128.6c0-1,0.1-1.8,0.3-2.5
	c0.2-0.6,0.5-1.1,0.9-1.4c0.4-0.3,0.9-0.5,1.6-0.5c0.5,0,0.9,0.1,1.2,0.3c0.4,0.2,0.6,0.5,0.9,0.8c0.2,0.3,0.4,0.8,0.5,1.3
	s0.2,1.2,0.2,2c0,1-0.1,1.8-0.3,2.4c-0.2,0.6-0.5,1.1-0.9,1.4c-0.4,0.3-0.9,0.5-1.6,0.5c-0.8,0-1.5-0.3-2-0.9
	C40.3,131.4,40,130.2,40,128.6z M41.1,128.6c0,1.4,0.2,2.3,0.5,2.8c0.3,0.5,0.7,0.7,1.2,0.7c0.5,0,0.9-0.2,1.2-0.7
	c0.3-0.5,0.5-1.4,0.5-2.8c0-1.4-0.2-2.4-0.5-2.8c-0.3-0.5-0.7-0.7-1.2-0.7c-0.5,0-0.9,0.2-1.2,0.6C41.3,126.2,41.1,127.2,41.1,128.6
	z"/>
<path d="M24.5,60.3l-1,0.1c-0.1-0.4-0.2-0.7-0.4-0.9C22.8,59.2,22.4,59,22,59c-0.3,0-0.6,0.1-0.9,0.3c-0.3,0.2-0.6,0.6-0.8,1.1
	c-0.2,0.5-0.3,1.1-0.3,2c0.2-0.4,0.6-0.7,0.9-0.9c0.4-0.2,0.8-0.3,1.2-0.3c0.7,0,1.3,0.3,1.8,0.8c0.5,0.5,0.7,1.2,0.8,2
	c0,0.5-0.1,1-0.4,1.5c-0.2,0.5-0.5,0.8-1,1.1c-0.4,0.2-0.9,0.4-1.4,0.4c-0.9,0-1.6-0.3-2.2-1c-0.6-0.6-0.8-1.7-0.8-3.2
	c0-1.7,0.3-2.9,0.9-3.6c0.5-0.7,1.2-1,2.2-1c0.7,0,1.2,0.2,1.7,0.6C24.2,59.1,24.4,59.6,24.5,60.3z M20.2,64c0,0.4,0.1,0.7,0.2,1
	c0.2,0.3,0.4,0.6,0.6,0.8c0.3,0.2,0.6,0.3,0.9,0.3c0.4,0,0.8-0.2,1.1-0.5c0.3-0.4,0.5-0.9,0.5-1.5c0-0.6-0.2-1.1-0.5-1.4
	c-0.3-0.3-0.7-0.5-1.2-0.5c-0.5,0-0.9,0.2-1.2,0.5C20.4,63,20.2,63.5,20.2,64z M26,62.5c0-1,0.1-1.8,0.3-2.5
	c0.2-0.6,0.5-1.1,0.9-1.4c0.4-0.3,0.9-0.5,1.6-0.5c0.5,0,0.9,0.1,1.2,0.3c0.4,0.2,0.6,0.5,0.9,0.8c0.2,0.3,0.4,0.8,0.5,1.3
	c0.1,0.5,0.2,1.2,0.2,2c0,1-0.1,1.8-0.3,2.4c-0.2,0.6-0.5,1.1-0.9,1.4c-0.4,0.3-0.9,0.5-1.6,0.5c-0.8,0-1.5-0.3-2-0.9
	C26.3,65.3,26,64.2,26,62.5z M27.1,62.5c0,1.4,0.2,2.3,0.5,2.8c0.3,0.5,0.7,0.7,1.2,0.7c0.5,0,0.9-0.2,1.2-0.7
	c0.3-0.5,0.5-1.4,0.5-2.8c0-1.4-0.2-2.4-0.5-2.8c-0.3-0.5-0.7-0.7-1.2-0.7c-0.5,0-0.9,0.2-1.2,0.6C27.3,60.2,27.1,61.1,27.1,62.5z
	 M33,62.5c0-1,0.1-1.8,0.3-2.5c0.2-0.6,0.5-1.1,0.9-1.4c0.4-0.3,0.9-0.5,1.6-0.5c0.5,0,0.9,0.1,1.2,0.3c0.4,0.2,0.6,0.5,0.9,0.8
	c0.2,0.3,0.4,0.8,0.5,1.3s0.2,1.2,0.2,2c0,1-0.1,1.8-0.3,2.4c-0.2,0.6-0.5,1.1-0.9,1.4c-0.4,0.3-0.9,0.5-1.6,0.5
	c-0.8,0-1.5-0.3-2-0.9C33.3,65.3,33,64.2,33,62.5z M34.1,62.5c0,1.4,0.2,2.3,0.5,2.8c0.3,0.5,0.7,0.7,1.2,0.7c0.5,0,0.9-0.2,1.2-0.7
	c0.3-0.5,0.5-1.4,0.5-2.8c0-1.4-0.2-2.4-0.5-2.8c-0.3-0.5-0.7-0.7-1.2-0.7c-0.5,0-0.9,0.2-1.2,0.6C34.3,60.2,34.1,61.1,34.1,62.5z
	 M40,62.5c0-1,0.1-1.8,0.3-2.5c0.2-0.6,0.5-1.1,0.9-1.4c0.4-0.3,0.9-0.5,1.6-0.5c0.5,0,0.9,0.1,1.2,0.3c0.4,0.2,0.6,0.5,0.9,0.8
	c0.2,0.3,0.4,0.8,0.5,1.3s0.2,1.2,0.2,2c0,1-0.1,1.8-0.3,2.4c-0.2,0.6-0.5,1.1-0.9,1.4c-0.4,0.3-0.9,0.5-1.6,0.5
	c-0.8,0-1.5-0.3-2-0.9C40.3,65.3,40,64.2,40,62.5z M41.1,62.5c0,1.4,0.2,2.3,0.5,2.8c0.3,0.5,0.7,0.7,1.2,0.7c0.5,0,0.9-0.2,1.2-0.7
	c0.3-0.5,0.5-1.4,0.5-2.8c0-1.4-0.2-2.4-0.5-2.8c-0.3-0.5-0.7-0.7-1.2-0.7c-0.5,0-0.9,0.2-1.2,0.6C41.3,60.2,41.1,61.1,41.1,62.5z"
	/>
<path d="M102.7,274.6v-1l3.6,0v3.2c-0.6,0.4-1.1,0.8-1.7,1c-0.6,0.2-1.2,0.3-1.8,0.3c-0.8,0-1.6-0.2-2.3-0.5
	c-0.7-0.4-1.2-0.9-1.6-1.6c-0.3-0.7-0.5-1.5-0.5-2.3s0.2-1.6,0.5-2.3c0.4-0.7,0.9-1.3,1.5-1.6c0.7-0.4,1.4-0.5,2.3-0.5
	c0.6,0,1.2,0.1,1.7,0.3s0.9,0.5,1.2,0.8c0.3,0.4,0.5,0.8,0.7,1.4l-1,0.3c-0.1-0.4-0.3-0.8-0.5-1c-0.2-0.2-0.5-0.4-0.8-0.6
	c-0.4-0.2-0.7-0.2-1.2-0.2c-0.5,0-1,0.1-1.4,0.2c-0.4,0.2-0.7,0.4-0.9,0.6c-0.2,0.3-0.4,0.5-0.5,0.9c-0.2,0.5-0.3,1.1-0.3,1.7
	c0,0.8,0.1,1.4,0.4,1.9c0.3,0.5,0.7,0.9,1.2,1.1s1,0.4,1.6,0.4c0.5,0,1-0.1,1.4-0.3c0.5-0.2,0.8-0.4,1.1-0.6v-1.6H102.7z
	 M111.6,277.2c-0.4,0.3-0.8,0.6-1.1,0.7c-0.4,0.1-0.7,0.2-1.2,0.2c-0.7,0-1.2-0.2-1.6-0.5c-0.4-0.3-0.5-0.8-0.5-1.3
	c0-0.3,0.1-0.6,0.2-0.8c0.1-0.3,0.3-0.5,0.5-0.6c0.2-0.2,0.5-0.3,0.8-0.3c0.2-0.1,0.5-0.1,0.9-0.2c0.8-0.1,1.5-0.2,1.9-0.4
	c0-0.1,0-0.2,0-0.3c0-0.4-0.1-0.7-0.3-0.9c-0.3-0.2-0.7-0.3-1.2-0.3c-0.5,0-0.9,0.1-1.1,0.3c-0.2,0.2-0.4,0.5-0.5,0.9l-1-0.1
	c0.1-0.4,0.2-0.8,0.5-1.1s0.5-0.5,0.9-0.6s0.9-0.2,1.4-0.2s1,0.1,1.3,0.2c0.3,0.1,0.6,0.3,0.7,0.5s0.3,0.4,0.3,0.7c0,0.2,0,0.5,0,1
	v1.4c0,1,0,1.6,0.1,1.9c0.1,0.3,0.1,0.5,0.3,0.8h-1.1C111.7,277.7,111.7,277.5,111.6,277.2z M111.5,274.8c-0.4,0.2-1,0.3-1.7,0.4
	c-0.4,0.1-0.7,0.1-0.9,0.2c-0.2,0.1-0.3,0.2-0.4,0.3c-0.1,0.1-0.1,0.3-0.1,0.5c0,0.3,0.1,0.5,0.3,0.7c0.2,0.2,0.5,0.3,0.9,0.3
	s0.8-0.1,1.1-0.3c0.3-0.2,0.6-0.4,0.7-0.7c0.1-0.2,0.2-0.6,0.2-1V274.8z M114.6,278v-6.2h0.9v0.9c0.2-0.3,0.5-0.6,0.8-0.7
	c0.3-0.2,0.7-0.3,1.1-0.3c0.5,0,0.8,0.1,1.1,0.3c0.3,0.2,0.5,0.5,0.6,0.8c0.5-0.7,1.1-1.1,1.9-1.1c0.6,0,1.1,0.2,1.4,0.5
	c0.3,0.3,0.5,0.9,0.5,1.6v4.3h-1V274c0-0.4,0-0.7-0.1-0.9c-0.1-0.2-0.2-0.3-0.4-0.5c-0.2-0.1-0.4-0.2-0.6-0.2
	c-0.4,0-0.8,0.1-1.1,0.4c-0.3,0.3-0.4,0.8-0.4,1.4v3.6h-1.1v-4c0-0.5-0.1-0.8-0.3-1c-0.2-0.2-0.4-0.4-0.8-0.4
	c-0.3,0-0.6,0.1-0.8,0.2s-0.4,0.4-0.5,0.7c-0.1,0.3-0.2,0.7-0.2,1.3v3.2H114.6z M124.6,270.6v-1.2h1.1v1.2H124.6z M124.6,278v-6.2
	h1.1v6.2H124.6z M127.6,278v-6.2h0.9v0.9c0.5-0.7,1.1-1,2-1c0.4,0,0.7,0.1,1,0.2c0.3,0.1,0.6,0.3,0.7,0.5s0.3,0.5,0.3,0.8
	c0,0.2,0,0.5,0,1v3.8h-1v-3.8c0-0.4,0-0.8-0.1-1s-0.2-0.4-0.4-0.5c-0.2-0.1-0.5-0.2-0.7-0.2c-0.4,0-0.8,0.1-1.2,0.4
	c-0.3,0.3-0.5,0.8-0.5,1.6v3.4H127.6z M134.4,278.5l1,0.2c0,0.3,0.2,0.5,0.4,0.7c0.3,0.2,0.6,0.3,1.1,0.3c0.5,0,0.9-0.1,1.1-0.3
	c0.3-0.2,0.5-0.5,0.5-0.8c0.1-0.2,0.1-0.7,0.1-1.4c-0.5,0.5-1,0.8-1.7,0.8c-0.9,0-1.5-0.3-2-0.9c-0.5-0.6-0.7-1.4-0.7-2.2
	c0-0.6,0.1-1.1,0.3-1.6c0.2-0.5,0.5-0.9,0.9-1.2s0.9-0.4,1.4-0.4c0.7,0,1.3,0.3,1.8,0.9v-0.8h1v5.4c0,1-0.1,1.7-0.3,2.1
	s-0.5,0.7-0.9,1c-0.4,0.2-1,0.4-1.6,0.4c-0.7,0-1.3-0.2-1.8-0.5S134.4,279.1,134.4,278.5z M135.2,274.7c0,0.8,0.2,1.4,0.5,1.8
	s0.7,0.6,1.2,0.6s0.9-0.2,1.2-0.6c0.3-0.4,0.5-1,0.5-1.8c0-0.8-0.2-1.3-0.5-1.7c-0.3-0.4-0.7-0.6-1.2-0.6c-0.5,0-0.9,0.2-1.2,0.6
	C135.4,273.4,135.2,274,135.2,274.7z"/>
<path d="M185.1,278v-8.6h3.2c0.6,0,1,0,1.3,0.1c0.4,0.1,0.8,0.2,1.1,0.4c0.3,0.2,0.5,0.5,0.7,0.8c0.2,0.4,0.3,0.7,0.3,1.2
	c0,0.7-0.2,1.3-0.7,1.9c-0.5,0.5-1.3,0.8-2.5,0.8h-2.2v3.5H185.1z M186.2,273.5h2.2c0.7,0,1.3-0.1,1.6-0.4c0.3-0.3,0.5-0.7,0.5-1.2
	c0-0.4-0.1-0.7-0.3-0.9c-0.2-0.3-0.4-0.4-0.7-0.5c-0.2-0.1-0.6-0.1-1.1-0.1h-2.2V273.5z M192.9,278v-6.2h1v0.9
	c0.2-0.4,0.5-0.7,0.7-0.9c0.2-0.1,0.4-0.2,0.7-0.2c0.4,0,0.7,0.1,1.1,0.3l-0.4,1c-0.3-0.2-0.5-0.2-0.8-0.2c-0.2,0-0.5,0.1-0.6,0.2
	c-0.2,0.1-0.3,0.3-0.4,0.6c-0.1,0.4-0.2,0.8-0.2,1.2v3.3H192.9z M196.5,274.8c0-1.2,0.3-2,1-2.6c0.5-0.5,1.2-0.7,2-0.7
	c0.9,0,1.6,0.3,2.1,0.8c0.6,0.6,0.8,1.3,0.8,2.3c0,0.8-0.1,1.4-0.4,1.9c-0.2,0.5-0.6,0.8-1.1,1.1c-0.5,0.2-1,0.4-1.5,0.4
	c-0.9,0-1.6-0.3-2.1-0.8C196.8,276.7,196.5,275.9,196.5,274.8z M197.6,274.8c0,0.8,0.2,1.4,0.5,1.8c0.4,0.4,0.8,0.6,1.3,0.6
	c0.5,0,1-0.2,1.3-0.6s0.5-1,0.5-1.8c0-0.8-0.2-1.4-0.5-1.8c-0.3-0.4-0.8-0.6-1.3-0.6c-0.5,0-1,0.2-1.3,0.6
	C197.8,273.4,197.6,274,197.6,274.8z M204.2,278v-5.4h-0.9v-0.8h0.9v-0.7c0-0.4,0-0.7,0.1-0.9c0.1-0.3,0.3-0.5,0.5-0.7
	c0.3-0.2,0.6-0.2,1.1-0.2c0.3,0,0.6,0,1,0.1l-0.2,0.9c-0.2,0-0.4,0-0.6,0c-0.3,0-0.6,0.1-0.7,0.2c-0.1,0.1-0.2,0.4-0.2,0.8v0.6h1.2
	v0.8h-1.2v5.4H204.2z M211.2,276l1.1,0.1c-0.2,0.6-0.5,1.1-1,1.5s-1.1,0.5-1.8,0.5c-0.9,0-1.6-0.3-2.2-0.8c-0.5-0.6-0.8-1.3-0.8-2.4
	c0-1,0.3-1.8,0.8-2.4c0.5-0.6,1.2-0.9,2.1-0.9c0.8,0,1.5,0.3,2,0.8c0.5,0.6,0.8,1.4,0.8,2.4c0,0.1,0,0.2,0,0.3h-4.6
	c0,0.7,0.2,1.2,0.6,1.6c0.3,0.4,0.8,0.5,1.3,0.5c0.4,0,0.7-0.1,1-0.3C210.8,276.7,211,276.4,211.2,276z M207.7,274.2h3.5
	c0-0.5-0.2-0.9-0.4-1.2c-0.3-0.4-0.8-0.6-1.3-0.6c-0.5,0-0.9,0.2-1.2,0.5C207.9,273.3,207.8,273.7,207.7,274.2z M213.5,276.1l1-0.2
	c0.1,0.4,0.2,0.7,0.5,1c0.3,0.2,0.7,0.3,1.1,0.3c0.5,0,0.8-0.1,1.1-0.3c0.2-0.2,0.4-0.4,0.4-0.7c0-0.2-0.1-0.4-0.3-0.6
	c-0.1-0.1-0.5-0.2-1.1-0.4c-0.8-0.2-1.3-0.4-1.6-0.5c-0.3-0.1-0.5-0.3-0.7-0.6s-0.2-0.5-0.2-0.8c0-0.3,0.1-0.5,0.2-0.8
	s0.3-0.4,0.5-0.6c0.2-0.1,0.4-0.2,0.7-0.3s0.6-0.1,0.9-0.1c0.5,0,0.9,0.1,1.3,0.2c0.4,0.1,0.7,0.3,0.8,0.6c0.2,0.2,0.3,0.6,0.4,1
	l-1,0.1c0-0.3-0.2-0.6-0.4-0.7c-0.2-0.2-0.5-0.3-1-0.3c-0.5,0-0.8,0.1-1,0.2c-0.2,0.2-0.3,0.3-0.3,0.6c0,0.1,0,0.3,0.1,0.4
	c0.1,0.1,0.2,0.2,0.4,0.3c0.1,0,0.4,0.1,0.9,0.3c0.8,0.2,1.3,0.4,1.6,0.5c0.3,0.1,0.5,0.3,0.7,0.5c0.2,0.2,0.2,0.5,0.2,0.9
	c0,0.4-0.1,0.7-0.3,1c-0.2,0.3-0.5,0.5-0.9,0.7c-0.4,0.2-0.8,0.2-1.3,0.2c-0.8,0-1.4-0.2-1.9-0.5
	C213.9,277.2,213.6,276.7,213.5,276.1z M219.5,276.1l1-0.2c0.1,0.4,0.2,0.7,0.5,1c0.3,0.2,0.7,0.3,1.1,0.3c0.5,0,0.8-0.1,1.1-0.3
	c0.2-0.2,0.4-0.4,0.4-0.7c0-0.2-0.1-0.4-0.3-0.6c-0.1-0.1-0.5-0.2-1.1-0.4c-0.8-0.2-1.3-0.4-1.6-0.5c-0.3-0.1-0.5-0.3-0.7-0.6
	s-0.2-0.5-0.2-0.8c0-0.3,0.1-0.5,0.2-0.8s0.3-0.4,0.5-0.6c0.2-0.1,0.4-0.2,0.7-0.3s0.6-0.1,0.9-0.1c0.5,0,0.9,0.1,1.3,0.2
	c0.4,0.1,0.7,0.3,0.8,0.6c0.2,0.2,0.3,0.6,0.4,1l-1,0.1c0-0.3-0.2-0.6-0.4-0.7c-0.2-0.2-0.5-0.3-1-0.3c-0.5,0-0.8,0.1-1,0.2
	c-0.2,0.2-0.3,0.3-0.3,0.6c0,0.1,0,0.3,0.1,0.4c0.1,0.1,0.2,0.2,0.4,0.3c0.1,0,0.4,0.1,0.9,0.3c0.8,0.2,1.3,0.4,1.6,0.5
	c0.3,0.1,0.5,0.3,0.7,0.5c0.2,0.2,0.2,0.5,0.2,0.9c0,0.4-0.1,0.7-0.3,1c-0.2,0.3-0.5,0.5-0.9,0.7c-0.4,0.2-0.8,0.2-1.3,0.2
	c-0.8,0-1.4-0.2-1.9-0.5C219.9,277.2,219.6,276.7,219.5,276.1z M225.9,270.6v-1.2h1.1v1.2H225.9z M225.9,278v-6.2h1.1v6.2H225.9z
	 M228.5,274.8c0-1.2,0.3-2,1-2.6c0.5-0.5,1.2-0.7,2-0.7c0.9,0,1.6,0.3,2.1,0.8c0.6,0.6,0.8,1.3,0.8,2.3c0,0.8-0.1,1.4-0.4,1.9
	c-0.2,0.5-0.6,0.8-1.1,1.1c-0.5,0.2-1,0.4-1.5,0.4c-0.9,0-1.6-0.3-2.1-0.8C228.8,276.7,228.5,275.9,228.5,274.8z M229.6,274.8
	c0,0.8,0.2,1.4,0.5,1.8c0.4,0.4,0.8,0.6,1.3,0.6c0.5,0,1-0.2,1.3-0.6s0.5-1,0.5-1.8c0-0.8-0.2-1.4-0.5-1.8c-0.3-0.4-0.8-0.6-1.3-0.6
	c-0.5,0-1,0.2-1.3,0.6C229.8,273.4,229.6,274,229.6,274.8z M235.9,278v-6.2h0.9v0.9c0.5-0.7,1.1-1,2-1c0.4,0,0.7,0.1,1,0.2
	c0.3,0.1,0.6,0.3,0.7,0.5s0.3,0.5,0.3,0.8c0,0.2,0,0.5,0,1v3.8h-1v-3.8c0-0.4,0-0.8-0.1-1c-0.1-0.2-0.2-0.4-0.4-0.5
	c-0.2-0.1-0.5-0.2-0.7-0.2c-0.4,0-0.8,0.1-1.2,0.4c-0.3,0.3-0.5,0.8-0.5,1.6v3.4H235.9z M247,277.2c-0.4,0.3-0.8,0.6-1.1,0.7
	c-0.4,0.1-0.7,0.2-1.2,0.2c-0.7,0-1.2-0.2-1.6-0.5c-0.4-0.3-0.5-0.8-0.5-1.3c0-0.3,0.1-0.6,0.2-0.8c0.1-0.3,0.3-0.5,0.5-0.6
	c0.2-0.2,0.5-0.3,0.8-0.3c0.2-0.1,0.5-0.1,0.9-0.2c0.8-0.1,1.5-0.2,1.9-0.4c0-0.1,0-0.2,0-0.3c0-0.4-0.1-0.7-0.3-0.9
	c-0.3-0.2-0.7-0.3-1.2-0.3c-0.5,0-0.9,0.1-1.1,0.3c-0.2,0.2-0.4,0.5-0.5,0.9l-1-0.1c0.1-0.4,0.2-0.8,0.5-1.1s0.5-0.5,0.9-0.6
	s0.9-0.2,1.4-0.2s1,0.1,1.3,0.2c0.3,0.1,0.6,0.3,0.7,0.5s0.3,0.4,0.3,0.7c0,0.2,0,0.5,0,1v1.4c0,1,0,1.6,0.1,1.9
	c0.1,0.3,0.1,0.5,0.3,0.8h-1.1C247.1,277.7,247,277.5,247,277.2z M246.9,274.8c-0.4,0.2-1,0.3-1.7,0.4c-0.4,0.1-0.7,0.1-0.9,0.2
	c-0.2,0.1-0.3,0.2-0.4,0.3c-0.1,0.1-0.1,0.3-0.1,0.5c0,0.3,0.1,0.5,0.3,0.7c0.2,0.2,0.5,0.3,0.9,0.3s0.8-0.1,1.1-0.3
	c0.3-0.2,0.6-0.4,0.7-0.7c0.1-0.2,0.2-0.6,0.2-1V274.8z M249.9,278v-8.6h1.1v8.6H249.9z"/>
<path d="M186.5,292l-3.3-8.6h1.2l2.2,6.2c0.2,0.5,0.3,1,0.5,1.4c0.1-0.5,0.3-0.9,0.5-1.4l2.3-6.2h1.2l-3.4,8.6H186.5z M191.9,284.6
	v-1.2h1.1v1.2H191.9z M191.9,292v-6.2h1.1v6.2H191.9z M194.5,290.1l1-0.2c0.1,0.4,0.2,0.7,0.5,1c0.3,0.2,0.7,0.3,1.1,0.3
	c0.5,0,0.8-0.1,1.1-0.3c0.2-0.2,0.4-0.4,0.4-0.7c0-0.2-0.1-0.4-0.3-0.6c-0.1-0.1-0.5-0.2-1.1-0.4c-0.8-0.2-1.3-0.4-1.6-0.5
	c-0.3-0.1-0.5-0.3-0.7-0.6s-0.2-0.5-0.2-0.8c0-0.3,0.1-0.5,0.2-0.8s0.3-0.4,0.5-0.6c0.2-0.1,0.4-0.2,0.7-0.3s0.6-0.1,0.9-0.1
	c0.5,0,0.9,0.1,1.3,0.2c0.4,0.1,0.7,0.3,0.8,0.6c0.2,0.2,0.3,0.6,0.4,1l-1,0.1c0-0.3-0.2-0.6-0.4-0.7c-0.2-0.2-0.5-0.3-1-0.3
	c-0.5,0-0.8,0.1-1,0.2c-0.2,0.2-0.3,0.3-0.3,0.6c0,0.1,0,0.3,0.1,0.4c0.1,0.1,0.2,0.2,0.4,0.3c0.1,0,0.4,0.1,0.9,0.3
	c0.8,0.2,1.3,0.4,1.6,0.5c0.3,0.1,0.5,0.3,0.7,0.5c0.2,0.2,0.2,0.5,0.2,0.9c0,0.4-0.1,0.7-0.3,1c-0.2,0.3-0.5,0.5-0.9,0.7
	c-0.4,0.2-0.8,0.2-1.3,0.2c-0.8,0-1.4-0.2-1.9-0.5C194.9,291.2,194.6,290.7,194.5,290.1z M205,292V291c-0.5,0.7-1.2,1.1-2,1.1
	c-0.4,0-0.7-0.1-1-0.2c-0.3-0.1-0.5-0.3-0.7-0.5c-0.2-0.2-0.3-0.5-0.3-0.8c0-0.2-0.1-0.5-0.1-1v-3.8h1.1v3.5c0,0.5,0,0.9,0.1,1.1
	c0.1,0.3,0.2,0.5,0.4,0.7c0.2,0.2,0.5,0.2,0.8,0.2c0.3,0,0.6-0.1,0.9-0.2c0.3-0.2,0.5-0.4,0.6-0.7c0.1-0.3,0.2-0.7,0.2-1.2v-3.3h1
	v6.2H205z M212,291.2c-0.4,0.3-0.8,0.6-1.1,0.7c-0.4,0.1-0.7,0.2-1.2,0.2c-0.7,0-1.2-0.2-1.6-0.5c-0.4-0.3-0.5-0.8-0.5-1.3
	c0-0.3,0.1-0.6,0.2-0.8c0.1-0.3,0.3-0.5,0.5-0.6c0.2-0.2,0.5-0.3,0.8-0.3c0.2-0.1,0.5-0.1,0.9-0.2c0.8-0.1,1.5-0.2,1.9-0.4
	c0-0.1,0-0.2,0-0.3c0-0.4-0.1-0.7-0.3-0.9c-0.3-0.2-0.7-0.3-1.2-0.3c-0.5,0-0.9,0.1-1.1,0.3c-0.2,0.2-0.4,0.5-0.5,0.9l-1-0.1
	c0.1-0.4,0.2-0.8,0.5-1.1s0.5-0.5,0.9-0.6s0.9-0.2,1.4-0.2s1,0.1,1.3,0.2c0.3,0.1,0.6,0.3,0.7,0.5s0.3,0.4,0.3,0.7c0,0.2,0,0.5,0,1
	v1.4c0,1,0,1.6,0.1,1.9c0.1,0.3,0.1,0.5,0.3,0.8h-1.1C212.1,291.7,212,291.5,212,291.2z M211.9,288.8c-0.4,0.2-1,0.3-1.7,0.4
	c-0.4,0.1-0.7,0.1-0.9,0.2c-0.2,0.1-0.3,0.2-0.4,0.3c-0.1,0.1-0.1,0.3-0.1,0.5c0,0.3,0.1,0.5,0.3,0.7c0.2,0.2,0.5,0.3,0.9,0.3
	s0.8-0.1,1.1-0.3c0.3-0.2,0.6-0.4,0.7-0.7c0.1-0.2,0.2-0.6,0.2-1V288.8z M214.9,292v-8.6h1.1v8.6H214.9z M217.9,284.6v-1.2h1.1v1.2
	H217.9z M217.9,292v-6.2h1.1v6.2H217.9z M220.4,292v-0.9l4-4.5c-0.5,0-0.9,0-1.2,0h-2.5v-0.8h5.1v0.7l-3.4,4l-0.7,0.7
	c0.5,0,0.9,0,1.3,0h2.9v0.9H220.4z M231,291.2c-0.4,0.3-0.8,0.6-1.1,0.7c-0.4,0.1-0.7,0.2-1.2,0.2c-0.7,0-1.2-0.2-1.6-0.5
	c-0.4-0.3-0.5-0.8-0.5-1.3c0-0.3,0.1-0.6,0.2-0.8c0.1-0.3,0.3-0.5,0.5-0.6c0.2-0.2,0.5-0.3,0.8-0.3c0.2-0.1,0.5-0.1,0.9-0.2
	c0.8-0.1,1.5-0.2,1.9-0.4c0-0.1,0-0.2,0-0.3c0-0.4-0.1-0.7-0.3-0.9c-0.3-0.2-0.7-0.3-1.2-0.3c-0.5,0-0.9,0.1-1.1,0.3
	c-0.2,0.2-0.4,0.5-0.5,0.9l-1-0.1c0.1-0.4,0.2-0.8,0.5-1.1s0.5-0.5,0.9-0.6s0.9-0.2,1.4-0.2s1,0.1,1.3,0.2c0.3,0.1,0.6,0.3,0.7,0.5
	s0.3,0.4,0.3,0.7c0,0.2,0,0.5,0,1v1.4c0,1,0,1.6,0.1,1.9c0.1,0.3,0.1,0.5,0.3,0.8h-1.1C231.1,291.7,231,291.5,231,291.2z
	 M230.9,288.8c-0.4,0.2-1,0.3-1.7,0.4c-0.4,0.1-0.7,0.1-0.9,0.2c-0.2,0.1-0.3,0.2-0.4,0.3c-0.1,0.1-0.1,0.3-0.1,0.5
	c0,0.3,0.1,0.5,0.3,0.7c0.2,0.2,0.5,0.3,0.9,0.3s0.8-0.1,1.1-0.3c0.3-0.2,0.6-0.4,0.7-0.7c0.1-0.2,0.2-0.6,0.2-1V288.8z M236.2,291
	l0.2,0.9c-0.3,0.1-0.6,0.1-0.8,0.1c-0.4,0-0.7-0.1-0.9-0.2c-0.2-0.1-0.4-0.3-0.5-0.5c-0.1-0.2-0.1-0.6-0.1-1.2v-3.6h-0.8v-0.8h0.8
	v-1.5l1-0.6v2.2h1.1v0.8h-1.1v3.6c0,0.3,0,0.5,0,0.6c0,0.1,0.1,0.2,0.2,0.2c0.1,0.1,0.2,0.1,0.4,0.1C235.9,291,236,291,236.2,291z
	 M236.9,284.6v-1.2h1.1v1.2H236.9z M236.9,292v-6.2h1.1v6.2H236.9z M239.5,288.8c0-1.2,0.3-2,1-2.6c0.5-0.5,1.2-0.7,2-0.7
	c0.9,0,1.6,0.3,2.1,0.8c0.6,0.6,0.8,1.3,0.8,2.3c0,0.8-0.1,1.4-0.4,1.9c-0.2,0.5-0.6,0.8-1.1,1.1c-0.5,0.2-1,0.4-1.5,0.4
	c-0.9,0-1.6-0.3-2.1-0.8C239.8,290.7,239.5,289.9,239.5,288.8z M240.6,288.8c0,0.8,0.2,1.4,0.5,1.8c0.4,0.4,0.8,0.6,1.3,0.6
	c0.5,0,1-0.2,1.3-0.6s0.5-1,0.5-1.8c0-0.8-0.2-1.4-0.5-1.8c-0.3-0.4-0.8-0.6-1.3-0.6c-0.5,0-1,0.2-1.3,0.6
	C240.8,287.4,240.6,288,240.6,288.8z M246.9,292v-6.2h0.9v0.9c0.5-0.7,1.1-1,2-1c0.4,0,0.7,0.1,1,0.2c0.3,0.1,0.6,0.3,0.7,0.5
	s0.3,0.5,0.3,0.8c0,0.2,0,0.5,0,1v3.8h-1v-3.8c0-0.4,0-0.8-0.1-1c-0.1-0.2-0.2-0.4-0.4-0.5c-0.2-0.1-0.5-0.2-0.7-0.2
	c-0.4,0-0.8,0.1-1.2,0.4c-0.3,0.3-0.5,0.8-0.5,1.6v3.4H246.9z"/>
<path d="M284.9,278v-8.6h3c0.7,0,1.2,0,1.5,0.1c0.5,0.1,0.9,0.3,1.2,0.6c0.5,0.4,0.8,0.9,1,1.5c0.2,0.6,0.3,1.3,0.3,2
	c0,0.7-0.1,1.2-0.2,1.7c-0.1,0.5-0.3,0.9-0.6,1.2s-0.5,0.6-0.8,0.8c-0.3,0.2-0.6,0.3-1,0.4c-0.4,0.1-0.9,0.1-1.4,0.1H284.9z
	 M286.1,276.9h1.8c0.6,0,1-0.1,1.3-0.2s0.6-0.3,0.8-0.5c0.3-0.3,0.5-0.6,0.6-1.1c0.2-0.5,0.2-1,0.2-1.7c0-0.9-0.2-1.6-0.5-2.1
	c-0.3-0.5-0.6-0.8-1.1-1c-0.3-0.1-0.8-0.2-1.5-0.2h-1.8V276.9z M297.9,277.2c-0.4,0.3-0.8,0.6-1.1,0.7c-0.4,0.1-0.7,0.2-1.2,0.2
	c-0.7,0-1.2-0.2-1.6-0.5s-0.5-0.8-0.5-1.3c0-0.3,0.1-0.6,0.2-0.8c0.1-0.3,0.3-0.5,0.5-0.6c0.2-0.2,0.5-0.3,0.8-0.3
	c0.2-0.1,0.5-0.1,0.9-0.2c0.8-0.1,1.5-0.2,1.9-0.4c0-0.1,0-0.2,0-0.3c0-0.4-0.1-0.7-0.3-0.9c-0.3-0.2-0.7-0.3-1.2-0.3
	c-0.5,0-0.9,0.1-1.1,0.3c-0.2,0.2-0.4,0.5-0.5,0.9l-1-0.1c0.1-0.4,0.2-0.8,0.5-1.1s0.5-0.5,0.9-0.6s0.9-0.2,1.4-0.2s1,0.1,1.3,0.2
	s0.6,0.3,0.7,0.5s0.3,0.4,0.3,0.7c0,0.2,0,0.5,0,1v1.4c0,1,0,1.6,0.1,1.9c0.1,0.3,0.1,0.5,0.3,0.8h-1.1
	C298,277.7,297.9,277.5,297.9,277.2z M297.8,274.8c-0.4,0.2-1,0.3-1.7,0.4c-0.4,0.1-0.7,0.1-0.9,0.2c-0.2,0.1-0.3,0.2-0.4,0.3
	c-0.1,0.1-0.1,0.3-0.1,0.5c0,0.3,0.1,0.5,0.3,0.7c0.2,0.2,0.5,0.3,0.9,0.3s0.8-0.1,1.1-0.3c0.3-0.2,0.6-0.4,0.7-0.7
	c0.1-0.2,0.2-0.6,0.2-1V274.8z M303.1,277l0.2,0.9c-0.3,0.1-0.6,0.1-0.8,0.1c-0.4,0-0.7-0.1-0.9-0.2c-0.2-0.1-0.4-0.3-0.5-0.5
	c-0.1-0.2-0.1-0.6-0.1-1.2v-3.6h-0.8v-0.8h0.8v-1.5l1-0.6v2.2h1.1v0.8H302v3.6c0,0.3,0,0.5,0,0.6c0,0.1,0.1,0.2,0.2,0.2
	s0.2,0.1,0.4,0.1C302.8,277,302.9,277,303.1,277z M307.9,277.2c-0.4,0.3-0.8,0.6-1.1,0.7c-0.4,0.1-0.7,0.2-1.2,0.2
	c-0.7,0-1.2-0.2-1.6-0.5s-0.5-0.8-0.5-1.3c0-0.3,0.1-0.6,0.2-0.8c0.1-0.3,0.3-0.5,0.5-0.6c0.2-0.2,0.5-0.3,0.8-0.3
	c0.2-0.1,0.5-0.1,0.9-0.2c0.8-0.1,1.5-0.2,1.9-0.4c0-0.1,0-0.2,0-0.3c0-0.4-0.1-0.7-0.3-0.9c-0.3-0.2-0.7-0.3-1.2-0.3
	c-0.5,0-0.9,0.1-1.1,0.3c-0.2,0.2-0.4,0.5-0.5,0.9l-1-0.1c0.1-0.4,0.2-0.8,0.5-1.1s0.5-0.5,0.9-0.6s0.9-0.2,1.4-0.2s1,0.1,1.3,0.2
	s0.6,0.3,0.7,0.5s0.3,0.4,0.3,0.7c0,0.2,0,0.5,0,1v1.4c0,1,0,1.6,0.1,1.9c0.1,0.3,0.1,0.5,0.3,0.8h-1.1
	C308,277.7,307.9,277.5,307.9,277.2z M307.8,274.8c-0.4,0.2-1,0.3-1.7,0.4c-0.4,0.1-0.7,0.1-0.9,0.2c-0.2,0.1-0.3,0.2-0.4,0.3
	c-0.1,0.1-0.1,0.3-0.1,0.5c0,0.3,0.1,0.5,0.3,0.7c0.2,0.2,0.5,0.3,0.9,0.3s0.8-0.1,1.1-0.3c0.3-0.2,0.6-0.4,0.7-0.7
	c0.1-0.2,0.2-0.6,0.2-1V274.8z M320.1,274.9l1.1,0.3c-0.2,0.9-0.7,1.6-1.3,2.1s-1.4,0.7-2.3,0.7c-0.9,0-1.7-0.2-2.3-0.6
	s-1-0.9-1.3-1.6c-0.3-0.7-0.5-1.5-0.5-2.3c0-0.9,0.2-1.7,0.5-2.3s0.8-1.2,1.5-1.5c0.6-0.3,1.3-0.5,2.1-0.5c0.9,0,1.6,0.2,2.2,0.7
	c0.6,0.4,1,1.1,1.2,1.8l-1.1,0.3c-0.2-0.6-0.5-1.1-0.9-1.4c-0.4-0.3-0.8-0.4-1.4-0.4c-0.7,0-1.2,0.2-1.7,0.5
	c-0.4,0.3-0.8,0.7-0.9,1.3c-0.2,0.5-0.3,1.1-0.3,1.7c0,0.7,0.1,1.4,0.3,1.9c0.2,0.5,0.6,0.9,1,1.2s0.9,0.4,1.5,0.4
	c0.6,0,1.2-0.2,1.6-0.5C319.6,276.2,319.9,275.7,320.1,274.9z M327,276l1.1,0.1c-0.2,0.6-0.5,1.1-1,1.5s-1.1,0.5-1.8,0.5
	c-0.9,0-1.6-0.3-2.2-0.8c-0.5-0.6-0.8-1.3-0.8-2.4c0-1,0.3-1.8,0.8-2.4c0.5-0.6,1.2-0.9,2.1-0.9c0.8,0,1.5,0.3,2,0.8
	c0.5,0.6,0.8,1.4,0.8,2.4c0,0.1,0,0.2,0,0.3h-4.6c0,0.7,0.2,1.2,0.6,1.6c0.3,0.4,0.8,0.5,1.3,0.5c0.4,0,0.7-0.1,1-0.3
	C326.7,276.7,326.9,276.4,327,276z M323.6,274.2h3.5c0-0.5-0.2-0.9-0.4-1.2c-0.3-0.4-0.8-0.6-1.3-0.6c-0.5,0-0.9,0.2-1.2,0.5
	C323.8,273.3,323.6,273.7,323.6,274.2z M329.8,278v-6.2h0.9v0.9c0.5-0.7,1.1-1,2-1c0.4,0,0.7,0.1,1,0.2c0.3,0.1,0.6,0.3,0.7,0.5
	s0.3,0.5,0.3,0.8c0,0.2,0,0.5,0,1v3.8h-1v-3.8c0-0.4,0-0.8-0.1-1s-0.2-0.4-0.4-0.5c-0.2-0.1-0.5-0.2-0.7-0.2c-0.4,0-0.8,0.1-1.2,0.4
	c-0.3,0.3-0.5,0.8-0.5,1.6v3.4H329.8z M339.1,277l0.2,0.9c-0.3,0.1-0.6,0.1-0.8,0.1c-0.4,0-0.7-0.1-0.9-0.2
	c-0.2-0.1-0.4-0.3-0.5-0.5c-0.1-0.2-0.1-0.6-0.1-1.2v-3.6h-0.8v-0.8h0.8v-1.5l1-0.6v2.2h1.1v0.8H338v3.6c0,0.3,0,0.5,0,0.6
	c0,0.1,0.1,0.2,0.2,0.2s0.2,0.1,0.4,0.1C338.8,277,338.9,277,339.1,277z M344,276l1.1,0.1c-0.2,0.6-0.5,1.1-1,1.5s-1.1,0.5-1.8,0.5
	c-0.9,0-1.6-0.3-2.2-0.8c-0.5-0.6-0.8-1.3-0.8-2.4c0-1,0.3-1.8,0.8-2.4c0.5-0.6,1.2-0.9,2.1-0.9c0.8,0,1.5,0.3,2,0.8
	c0.5,0.6,0.8,1.4,0.8,2.4c0,0.1,0,0.2,0,0.3h-4.6c0,0.7,0.2,1.2,0.6,1.6c0.3,0.4,0.8,0.5,1.3,0.5c0.4,0,0.7-0.1,1-0.3
	C343.7,276.7,343.9,276.4,344,276z M340.6,274.2h3.5c0-0.5-0.2-0.9-0.4-1.2c-0.3-0.4-0.8-0.6-1.3-0.6c-0.5,0-0.9,0.2-1.2,0.5
	C340.8,273.3,340.6,273.7,340.6,274.2z M346.8,278v-6.2h1v0.9c0.2-0.4,0.5-0.7,0.7-0.9c0.2-0.1,0.4-0.2,0.7-0.2
	c0.4,0,0.7,0.1,1.1,0.3l-0.4,1c-0.3-0.2-0.5-0.2-0.8-0.2c-0.2,0-0.5,0.1-0.6,0.2c-0.2,0.1-0.3,0.3-0.4,0.6c-0.1,0.4-0.2,0.8-0.2,1.2
	v3.3H346.8z"/>
<path d="M385.3,278l3.3-8.6h1.2l3.5,8.6h-1.3l-1-2.6h-3.6l-1,2.6H385.3z M387.8,274.4h2.9l-0.9-2.4c-0.3-0.7-0.5-1.3-0.6-1.8
	c-0.1,0.6-0.3,1.1-0.5,1.6L387.8,274.4z M398.2,278V277c-0.5,0.7-1.2,1.1-2,1.1c-0.4,0-0.7-0.1-1-0.2c-0.3-0.1-0.5-0.3-0.7-0.5
	c-0.2-0.2-0.3-0.5-0.3-0.8c0-0.2-0.1-0.5-0.1-1v-3.8h1.1v3.5c0,0.5,0,0.9,0.1,1.1c0.1,0.3,0.2,0.5,0.4,0.7c0.2,0.2,0.5,0.2,0.8,0.2
	c0.3,0,0.6-0.1,0.9-0.2c0.3-0.2,0.5-0.4,0.6-0.7c0.1-0.3,0.2-0.7,0.2-1.2v-3.3h1v6.2H398.2z M403.5,277l0.2,0.9
	c-0.3,0.1-0.6,0.1-0.8,0.1c-0.4,0-0.7-0.1-0.9-0.2c-0.2-0.1-0.4-0.3-0.5-0.5c-0.1-0.2-0.1-0.6-0.1-1.2v-3.6h-0.8v-0.8h0.8v-1.5
	l1-0.6v2.2h1.1v0.8h-1.1v3.6c0,0.3,0,0.5,0,0.6c0,0.1,0.1,0.2,0.2,0.2c0.1,0.1,0.2,0.1,0.4,0.1C403.1,277,403.3,277,403.5,277z
	 M403.8,274.8c0-1.2,0.3-2,1-2.6c0.5-0.5,1.2-0.7,2-0.7c0.9,0,1.6,0.3,2.1,0.8c0.6,0.6,0.8,1.3,0.8,2.3c0,0.8-0.1,1.4-0.4,1.9
	c-0.2,0.5-0.6,0.8-1.1,1.1c-0.5,0.2-1,0.4-1.5,0.4c-0.9,0-1.6-0.3-2.1-0.8C404,276.7,403.8,275.9,403.8,274.8z M404.8,274.8
	c0,0.8,0.2,1.4,0.5,1.8c0.4,0.4,0.8,0.6,1.3,0.6c0.5,0,1-0.2,1.3-0.6c0.3-0.4,0.5-1,0.5-1.8c0-0.8-0.2-1.4-0.5-1.8
	c-0.3-0.4-0.8-0.6-1.3-0.6c-0.5,0-1,0.2-1.3,0.6C405,273.4,404.8,274,404.8,274.8z M411.2,278v-6.2h0.9v0.9c0.2-0.3,0.5-0.6,0.8-0.7
	c0.3-0.2,0.7-0.3,1.1-0.3c0.5,0,0.8,0.1,1.1,0.3c0.3,0.2,0.5,0.5,0.6,0.8c0.5-0.7,1.1-1.1,1.9-1.1c0.6,0,1.1,0.2,1.4,0.5
	c0.3,0.3,0.5,0.9,0.5,1.6v4.3h-1V274c0-0.4,0-0.7-0.1-0.9c-0.1-0.2-0.2-0.3-0.4-0.5c-0.2-0.1-0.4-0.2-0.6-0.2
	c-0.4,0-0.8,0.1-1.1,0.4c-0.3,0.3-0.4,0.8-0.4,1.4v3.6h-1.1v-4c0-0.5-0.1-0.8-0.3-1c-0.2-0.2-0.4-0.4-0.8-0.4
	c-0.3,0-0.6,0.1-0.8,0.2c-0.3,0.2-0.4,0.4-0.5,0.7c-0.1,0.3-0.2,0.7-0.2,1.3v3.2H411.2z M420.8,274.8c0-1.2,0.3-2,1-2.6
	c0.5-0.5,1.2-0.7,2-0.7c0.9,0,1.6,0.3,2.1,0.8c0.6,0.6,0.8,1.3,0.8,2.3c0,0.8-0.1,1.4-0.4,1.9c-0.2,0.5-0.6,0.8-1.1,1.1
	c-0.5,0.2-1,0.4-1.5,0.4c-0.9,0-1.6-0.3-2.1-0.8C421,276.7,420.8,275.9,420.8,274.8z M421.8,274.8c0,0.8,0.2,1.4,0.5,1.8
	c0.4,0.4,0.8,0.6,1.3,0.6c0.5,0,1-0.2,1.3-0.6c0.3-0.4,0.5-1,0.5-1.8c0-0.8-0.2-1.4-0.5-1.8c-0.3-0.4-0.8-0.6-1.3-0.6
	c-0.5,0-1,0.2-1.3,0.6C422,273.4,421.8,274,421.8,274.8z M430.5,277l0.2,0.9c-0.3,0.1-0.6,0.1-0.8,0.1c-0.4,0-0.7-0.1-0.9-0.2
	c-0.2-0.1-0.4-0.3-0.5-0.5c-0.1-0.2-0.1-0.6-0.1-1.2v-3.6h-0.8v-0.8h0.8v-1.5l1-0.6v2.2h1.1v0.8h-1.1v3.6c0,0.3,0,0.5,0,0.6
	c0,0.1,0.1,0.2,0.2,0.2c0.1,0.1,0.2,0.1,0.4,0.1C430.1,277,430.3,277,430.5,277z M431.2,270.6v-1.2h1.1v1.2H431.2z M431.2,278v-6.2
	h1.1v6.2H431.2z M435.9,278l-2.4-6.2h1.1l1.3,3.7c0.1,0.4,0.3,0.8,0.4,1.2c0.1-0.3,0.2-0.7,0.4-1.2l1.4-3.8h1.1l-2.4,6.2H435.9z
	 M444.4,276l1.1,0.1c-0.2,0.6-0.5,1.1-1,1.5c-0.5,0.4-1.1,0.5-1.8,0.5c-0.9,0-1.6-0.3-2.2-0.8c-0.5-0.6-0.8-1.3-0.8-2.4
	c0-1,0.3-1.8,0.8-2.4c0.5-0.6,1.2-0.9,2.1-0.9c0.8,0,1.5,0.3,2,0.8c0.5,0.6,0.8,1.4,0.8,2.4c0,0.1,0,0.2,0,0.3h-4.6
	c0,0.7,0.2,1.2,0.6,1.6c0.3,0.4,0.8,0.5,1.3,0.5c0.4,0,0.7-0.1,1-0.3C444,276.7,444.3,276.4,444.4,276z M441,274.2h3.5
	c0-0.5-0.2-0.9-0.4-1.2c-0.3-0.4-0.8-0.6-1.3-0.6c-0.5,0-0.9,0.2-1.2,0.5C441.2,273.3,441,273.7,441,274.2z"/>
<path d="M473.3,273.8c0-1.4,0.4-2.5,1.1-3.3c0.8-0.8,1.8-1.2,3-1.2c0.8,0,1.5,0.2,2.2,0.6c0.6,0.4,1.1,0.9,1.5,1.6
	c0.3,0.7,0.5,1.4,0.5,2.3s-0.2,1.6-0.5,2.3c-0.4,0.7-0.9,1.2-1.5,1.6c-0.6,0.4-1.3,0.5-2.1,0.5c-0.8,0-1.5-0.2-2.2-0.6
	c-0.6-0.4-1.1-0.9-1.5-1.6C473.5,275.2,473.3,274.5,473.3,273.8z M474.5,273.8c0,1,0.3,1.9,0.8,2.5c0.6,0.6,1.3,0.9,2.1,0.9
	c0.9,0,1.6-0.3,2.1-0.9c0.6-0.6,0.8-1.5,0.8-2.6c0-0.7-0.1-1.3-0.4-1.8c-0.2-0.5-0.6-0.9-1-1.2c-0.5-0.3-1-0.4-1.5-0.4
	c-0.8,0-1.5,0.3-2.1,0.8C474.8,271.6,474.5,272.5,474.5,273.8z M482.7,278v-8.6h6.2v1h-5.1v2.6h4.8v1h-4.8v2.9h5.3v1H482.7z
	 M490.6,278v-8.6h1.7l2,6.1c0.2,0.6,0.3,1,0.4,1.3c0.1-0.3,0.2-0.8,0.5-1.4l2.1-6h1.5v8.6h-1.1v-7.2l-2.5,7.2h-1l-2.5-7.3v7.3H490.6
	z M507.6,277.2c-0.4,0.3-0.8,0.6-1.1,0.7c-0.4,0.1-0.7,0.2-1.2,0.2c-0.7,0-1.2-0.2-1.6-0.5c-0.4-0.3-0.5-0.8-0.5-1.3
	c0-0.3,0.1-0.6,0.2-0.8c0.1-0.3,0.3-0.5,0.5-0.6c0.2-0.2,0.5-0.3,0.8-0.3c0.2-0.1,0.5-0.1,0.9-0.2c0.8-0.1,1.5-0.2,1.9-0.4
	c0-0.1,0-0.2,0-0.3c0-0.4-0.1-0.7-0.3-0.9c-0.3-0.2-0.7-0.3-1.2-0.3c-0.5,0-0.9,0.1-1.1,0.3c-0.2,0.2-0.4,0.5-0.5,0.9l-1-0.1
	c0.1-0.4,0.2-0.8,0.5-1.1s0.5-0.5,0.9-0.6s0.9-0.2,1.4-0.2s1,0.1,1.3,0.2c0.3,0.1,0.6,0.3,0.7,0.5s0.3,0.4,0.3,0.7c0,0.2,0,0.5,0,1
	v1.4c0,1,0,1.6,0.1,1.9c0.1,0.3,0.1,0.5,0.3,0.8h-1.1C507.7,277.7,507.6,277.5,507.6,277.2z M507.5,274.8c-0.4,0.2-1,0.3-1.7,0.4
	c-0.4,0.1-0.7,0.1-0.9,0.2c-0.2,0.1-0.3,0.2-0.4,0.3c-0.1,0.1-0.1,0.3-0.1,0.5c0,0.3,0.1,0.5,0.3,0.7c0.2,0.2,0.5,0.3,0.9,0.3
	s0.8-0.1,1.1-0.3c0.3-0.2,0.6-0.4,0.7-0.7c0.1-0.2,0.2-0.6,0.2-1V274.8z M510.5,278v-6.2h0.9v0.9c0.5-0.7,1.1-1,2-1
	c0.4,0,0.7,0.1,1,0.2c0.3,0.1,0.6,0.3,0.7,0.5s0.3,0.5,0.3,0.8c0,0.2,0,0.5,0,1v3.8h-1v-3.8c0-0.4,0-0.8-0.1-1s-0.2-0.4-0.4-0.5
	c-0.2-0.1-0.5-0.2-0.7-0.2c-0.4,0-0.8,0.1-1.2,0.4c-0.3,0.3-0.5,0.8-0.5,1.6v3.4H510.5z M521.5,278v-0.8c-0.4,0.6-1,0.9-1.7,0.9
	c-0.5,0-1-0.1-1.4-0.4c-0.4-0.3-0.7-0.7-1-1.2s-0.3-1.1-0.3-1.7c0-0.6,0.1-1.2,0.3-1.7s0.5-0.9,0.9-1.2c0.4-0.3,0.9-0.4,1.4-0.4
	c0.4,0,0.7,0.1,1,0.2s0.5,0.4,0.7,0.6v-3.1h1v8.6H521.5z M518.2,274.8c0,0.8,0.2,1.4,0.5,1.8c0.3,0.4,0.7,0.6,1.2,0.6
	s0.8-0.2,1.2-0.6s0.5-0.9,0.5-1.7c0-0.9-0.2-1.5-0.5-1.9c-0.3-0.4-0.7-0.6-1.2-0.6c-0.5,0-0.9,0.2-1.2,0.6
	C518.4,273.4,518.2,274,518.2,274.8z M527.3,273.8c0-1.4,0.4-2.5,1.1-3.3c0.8-0.8,1.8-1.2,3-1.2c0.8,0,1.5,0.2,2.2,0.6
	c0.6,0.4,1.1,0.9,1.5,1.6s0.5,1.4,0.5,2.3s-0.2,1.6-0.5,2.3s-0.9,1.2-1.5,1.6c-0.6,0.4-1.3,0.5-2.1,0.5c-0.8,0-1.5-0.2-2.2-0.6
	c-0.6-0.4-1.1-0.9-1.5-1.6C527.5,275.2,527.3,274.5,527.3,273.8z M528.5,273.8c0,1,0.3,1.9,0.8,2.5c0.6,0.6,1.3,0.9,2.1,0.9
	c0.9,0,1.6-0.3,2.1-0.9c0.6-0.6,0.8-1.5,0.8-2.6c0-0.7-0.1-1.3-0.4-1.8c-0.2-0.5-0.6-0.9-1-1.2c-0.5-0.3-1-0.4-1.5-0.4
	c-0.8,0-1.5,0.3-2.1,0.8S528.5,272.5,528.5,273.8z M538.8,277l0.2,0.9c-0.3,0.1-0.6,0.1-0.8,0.1c-0.4,0-0.7-0.1-0.9-0.2
	c-0.2-0.1-0.4-0.3-0.5-0.5c-0.1-0.2-0.1-0.6-0.1-1.2v-3.6h-0.8v-0.8h0.8v-1.5l1-0.6v2.2h1.1v0.8h-1.1v3.6c0,0.3,0,0.5,0,0.6
	c0,0.1,0.1,0.2,0.2,0.2s0.2,0.1,0.4,0.1C538.5,277,538.6,277,538.8,277z M539.5,278v-8.6h1v3.1c0.5-0.6,1.1-0.8,1.9-0.8
	c0.5,0,0.9,0.1,1.2,0.3c0.3,0.2,0.6,0.4,0.7,0.8c0.1,0.3,0.2,0.8,0.2,1.4v3.9h-1V274c0-0.5-0.1-0.9-0.3-1.2s-0.6-0.4-1-0.4
	c-0.3,0-0.6,0.1-0.9,0.2c-0.3,0.2-0.5,0.4-0.6,0.7c-0.1,0.3-0.2,0.7-0.2,1.1v3.4H539.5z M550.8,276l1.1,0.1c-0.2,0.6-0.5,1.1-1,1.5
	s-1.1,0.5-1.8,0.5c-0.9,0-1.6-0.3-2.2-0.8c-0.5-0.6-0.8-1.3-0.8-2.4c0-1,0.3-1.8,0.8-2.4c0.5-0.6,1.2-0.9,2.1-0.9
	c0.8,0,1.5,0.3,2,0.8c0.5,0.6,0.8,1.4,0.8,2.4c0,0.1,0,0.2,0,0.3h-4.6c0,0.7,0.2,1.2,0.6,1.6c0.3,0.4,0.8,0.5,1.3,0.5
	c0.4,0,0.7-0.1,1-0.3C550.4,276.7,550.6,276.4,550.8,276z M547.3,274.2h3.5c0-0.5-0.2-0.9-0.4-1.2c-0.3-0.4-0.8-0.6-1.3-0.6
	c-0.5,0-0.9,0.2-1.2,0.5C547.5,273.3,547.3,273.7,547.3,274.2z M553.5,278v-6.2h1v0.9c0.2-0.4,0.5-0.7,0.7-0.9
	c0.2-0.1,0.4-0.2,0.7-0.2c0.4,0,0.7,0.1,1.1,0.3l-0.4,1c-0.3-0.2-0.5-0.2-0.8-0.2c-0.2,0-0.5,0.1-0.6,0.2c-0.2,0.1-0.3,0.3-0.4,0.6
	c-0.1,0.4-0.2,0.8-0.2,1.2v3.3H553.5z"/>
<path class="st23" d="M190,31.4c0-0.6,0.4-1,1-1h10c0.6,0,1,0.4,1,1v10c0,0.6-0.4,1-1,1h-10c-0.6,0-1-0.4-1-1V31.4z"/>
<path class="st24" d="M210.9,40.4v-8.6h3.8c0.8,0,1.4,0.1,1.8,0.2c0.4,0.2,0.7,0.4,1,0.8c0.2,0.4,0.4,0.8,0.4,1.3
	c0,0.6-0.2,1.1-0.6,1.5c-0.4,0.4-1,0.7-1.8,0.8c0.3,0.1,0.5,0.3,0.7,0.4c0.3,0.3,0.6,0.7,0.9,1.1l1.5,2.3h-1.4l-1.1-1.8
	c-0.3-0.5-0.6-0.9-0.8-1.2c-0.2-0.3-0.4-0.5-0.6-0.6c-0.2-0.1-0.3-0.2-0.5-0.2c-0.1,0-0.3,0-0.6,0h-1.3v3.8H210.9z M212.1,35.6h2.5
	c0.5,0,0.9-0.1,1.2-0.2c0.3-0.1,0.5-0.3,0.7-0.5c0.2-0.2,0.2-0.5,0.2-0.8c0-0.4-0.2-0.7-0.5-1c-0.3-0.3-0.8-0.4-1.4-0.4h-2.7V35.6z
	 M224,38.4l1.1,0.1c-0.2,0.6-0.5,1.1-1,1.5c-0.5,0.4-1.1,0.5-1.8,0.5c-0.9,0-1.6-0.3-2.2-0.8c-0.5-0.6-0.8-1.3-0.8-2.4
	c0-1,0.3-1.8,0.8-2.4c0.5-0.6,1.2-0.9,2.1-0.9c0.8,0,1.5,0.3,2,0.8c0.5,0.6,0.8,1.4,0.8,2.4c0,0.1,0,0.2,0,0.3h-4.6
	c0,0.7,0.2,1.2,0.6,1.6c0.3,0.4,0.8,0.5,1.3,0.5c0.4,0,0.7-0.1,1-0.3C223.7,39.2,223.9,38.9,224,38.4z M220.6,36.7h3.5
	c0-0.5-0.2-0.9-0.4-1.2c-0.3-0.4-0.8-0.6-1.3-0.6c-0.5,0-0.9,0.2-1.2,0.5C220.8,35.7,220.6,36.2,220.6,36.7z M228.5,40.4l-2.4-6.2
	h1.1l1.3,3.7c0.1,0.4,0.3,0.8,0.4,1.2c0.1-0.3,0.2-0.7,0.4-1.2l1.4-3.8h1.1l-2.4,6.2H228.5z M237,38.4l1.1,0.1
	c-0.2,0.6-0.5,1.1-1,1.5c-0.5,0.4-1.1,0.5-1.8,0.5c-0.9,0-1.6-0.3-2.2-0.8c-0.5-0.6-0.8-1.3-0.8-2.4c0-1,0.3-1.8,0.8-2.4
	c0.5-0.6,1.2-0.9,2.1-0.9c0.8,0,1.5,0.3,2,0.8c0.5,0.6,0.8,1.4,0.8,2.4c0,0.1,0,0.2,0,0.3h-4.6c0,0.7,0.2,1.2,0.6,1.6
	c0.3,0.4,0.8,0.5,1.3,0.5c0.4,0,0.7-0.1,1-0.3C236.7,39.2,236.9,38.9,237,38.4z M233.6,36.7h3.5c0-0.5-0.2-0.9-0.4-1.2
	c-0.3-0.4-0.8-0.6-1.3-0.6c-0.5,0-0.9,0.2-1.2,0.5C233.8,35.7,233.6,36.2,233.6,36.7z M239.8,40.4v-6.2h0.9v0.9c0.5-0.7,1.1-1,2-1
	c0.4,0,0.7,0.1,1,0.2c0.3,0.1,0.6,0.3,0.7,0.5c0.2,0.2,0.3,0.5,0.3,0.8c0,0.2,0,0.5,0,1v3.8h-1v-3.8c0-0.4,0-0.8-0.1-1
	c-0.1-0.2-0.2-0.4-0.4-0.5c-0.2-0.1-0.5-0.2-0.7-0.2c-0.4,0-0.8,0.1-1.2,0.4c-0.3,0.3-0.5,0.8-0.5,1.6v3.4H239.8z M250.9,40.4v-0.9
	c-0.5,0.7-1.2,1.1-2,1.1c-0.4,0-0.7-0.1-1-0.2c-0.3-0.1-0.5-0.3-0.7-0.5c-0.2-0.2-0.3-0.5-0.3-0.8c0-0.2-0.1-0.5-0.1-1v-3.8h1.1v3.5
	c0,0.5,0,0.9,0.1,1.1c0.1,0.3,0.2,0.5,0.4,0.7c0.2,0.2,0.5,0.2,0.8,0.2c0.3,0,0.6-0.1,0.9-0.2c0.3-0.2,0.5-0.4,0.6-0.7
	c0.1-0.3,0.2-0.7,0.2-1.2v-3.3h1v6.2H250.9z M258,38.4l1.1,0.1c-0.2,0.6-0.5,1.1-1,1.5c-0.5,0.4-1.1,0.5-1.8,0.5
	c-0.9,0-1.6-0.3-2.2-0.8c-0.5-0.6-0.8-1.3-0.8-2.4c0-1,0.3-1.8,0.8-2.4c0.5-0.6,1.2-0.9,2.1-0.9c0.8,0,1.5,0.3,2,0.8
	c0.5,0.6,0.8,1.4,0.8,2.4c0,0.1,0,0.2,0,0.3h-4.6c0,0.7,0.2,1.2,0.6,1.6c0.3,0.4,0.8,0.5,1.3,0.5c0.4,0,0.7-0.1,1-0.3
	C257.7,39.2,257.9,38.9,258,38.4z M254.6,36.7h3.5c0-0.5-0.2-0.9-0.4-1.2c-0.3-0.4-0.8-0.6-1.3-0.6c-0.5,0-0.9,0.2-1.2,0.5
	C254.8,35.7,254.6,36.2,254.6,36.7z M260.4,37.8v-1.1h3.2v1.1H260.4z M270,39.4v1h-5.7c0-0.2,0-0.5,0.1-0.7c0.1-0.4,0.4-0.8,0.7-1.1
	c0.3-0.4,0.8-0.8,1.4-1.3c0.9-0.8,1.6-1.4,1.9-1.8c0.3-0.4,0.5-0.9,0.5-1.3c0-0.4-0.2-0.8-0.5-1c-0.3-0.3-0.7-0.4-1.2-0.4
	c-0.5,0-0.9,0.2-1.2,0.5c-0.3,0.3-0.5,0.7-0.5,1.3l-1.1-0.1c0.1-0.8,0.3-1.4,0.8-1.8c0.5-0.4,1.1-0.6,2-0.6c0.8,0,1.5,0.2,2,0.7
	c0.5,0.5,0.7,1,0.7,1.7c0,0.3-0.1,0.7-0.2,1c-0.1,0.3-0.4,0.7-0.7,1c-0.3,0.4-0.9,0.9-1.6,1.5c-0.6,0.5-1,0.9-1.2,1.1
	c-0.2,0.2-0.3,0.4-0.4,0.6H270z M271.5,36.2c0-1,0.1-1.8,0.3-2.5c0.2-0.6,0.5-1.1,0.9-1.4c0.4-0.3,0.9-0.5,1.6-0.5
	c0.5,0,0.9,0.1,1.2,0.3c0.4,0.2,0.6,0.5,0.9,0.8c0.2,0.3,0.4,0.8,0.5,1.3c0.1,0.5,0.2,1.2,0.2,2c0,1-0.1,1.8-0.3,2.4
	c-0.2,0.6-0.5,1.1-0.9,1.4c-0.4,0.3-0.9,0.5-1.6,0.5c-0.8,0-1.5-0.3-2-0.9C271.8,39,271.5,37.8,271.5,36.2z M272.6,36.2
	c0,1.4,0.2,2.3,0.5,2.8s0.7,0.7,1.2,0.7c0.5,0,0.9-0.2,1.2-0.7c0.3-0.5,0.5-1.4,0.5-2.8c0-1.4-0.2-2.4-0.5-2.8
	c-0.3-0.5-0.7-0.7-1.2-0.7c-0.5,0-0.9,0.2-1.2,0.6C272.8,33.8,272.6,34.8,272.6,36.2z M282.5,40.4h-1v-6.7c-0.3,0.2-0.6,0.5-1,0.7
	c-0.4,0.2-0.8,0.4-1.1,0.5v-1c0.6-0.3,1.1-0.6,1.5-1c0.4-0.4,0.8-0.8,1-1.2h0.7V40.4z M285.7,38.4l1-0.1c0.1,0.5,0.2,0.8,0.5,1
	c0.2,0.2,0.6,0.3,0.9,0.3c0.3,0,0.6-0.1,0.8-0.2c0.2-0.2,0.5-0.4,0.6-0.6c0.2-0.2,0.3-0.6,0.4-1c0.1-0.4,0.2-0.9,0.2-1.3
	c0-0.1,0-0.1,0-0.2c-0.2,0.3-0.5,0.6-0.9,0.8c-0.4,0.2-0.8,0.3-1.2,0.3c-0.7,0-1.3-0.3-1.8-0.8c-0.5-0.5-0.7-1.2-0.7-2
	c0-0.9,0.3-1.6,0.8-2.1c0.5-0.5,1.2-0.8,1.9-0.8c0.6,0,1.1,0.2,1.5,0.5c0.5,0.3,0.8,0.7,1.1,1.3c0.2,0.6,0.4,1.4,0.4,2.4
	c0,1.1-0.1,2-0.4,2.6c-0.2,0.6-0.6,1.1-1.1,1.5c-0.5,0.3-1,0.5-1.6,0.5c-0.7,0-1.2-0.2-1.7-0.5C286,39.6,285.7,39.1,285.7,38.4z
	 M290,34.6c0-0.6-0.2-1.1-0.5-1.4c-0.3-0.4-0.7-0.5-1.2-0.5c-0.5,0-0.9,0.2-1.2,0.6c-0.3,0.4-0.5,0.9-0.5,1.5c0,0.5,0.2,1,0.5,1.3
	c0.3,0.3,0.7,0.5,1.2,0.5c0.5,0,0.9-0.2,1.2-0.5C289.8,35.7,290,35.2,290,34.6z"/>
<path class="st25" d="M308,31.4c0-0.6,0.4-1,1-1h10c0.6,0,1,0.4,1,1v10c0,0.6-0.4,1-1,1h-10c-0.6,0-1-0.4-1-1V31.4z"/>
<path class="st24" d="M328.9,40.4v-8.6h3.8c0.8,0,1.4,0.1,1.8,0.2c0.4,0.2,0.7,0.4,1,0.8c0.2,0.4,0.4,0.8,0.4,1.3
	c0,0.6-0.2,1.1-0.6,1.5c-0.4,0.4-1,0.7-1.8,0.8c0.3,0.1,0.5,0.3,0.7,0.4c0.3,0.3,0.6,0.7,0.9,1.1l1.5,2.3h-1.4l-1.1-1.8
	c-0.3-0.5-0.6-0.9-0.8-1.2c-0.2-0.3-0.4-0.5-0.6-0.6c-0.2-0.1-0.3-0.2-0.5-0.2c-0.1,0-0.3,0-0.6,0h-1.3v3.8H328.9z M330.1,35.6h2.5
	c0.5,0,0.9-0.1,1.2-0.2c0.3-0.1,0.5-0.3,0.7-0.5c0.2-0.2,0.2-0.5,0.2-0.8c0-0.4-0.2-0.7-0.5-1c-0.3-0.3-0.8-0.4-1.4-0.4h-2.7V35.6z
	 M342,38.4l1.1,0.1c-0.2,0.6-0.5,1.1-1,1.5c-0.5,0.4-1.1,0.5-1.8,0.5c-0.9,0-1.6-0.3-2.2-0.8c-0.5-0.6-0.8-1.3-0.8-2.4
	c0-1,0.3-1.8,0.8-2.4c0.5-0.6,1.2-0.9,2.1-0.9c0.8,0,1.5,0.3,2,0.8c0.5,0.6,0.8,1.4,0.8,2.4c0,0.1,0,0.2,0,0.3h-4.6
	c0,0.7,0.2,1.2,0.6,1.6c0.3,0.4,0.8,0.5,1.3,0.5c0.4,0,0.7-0.1,1-0.3C341.7,39.2,341.9,38.9,342,38.4z M338.6,36.7h3.5
	c0-0.5-0.2-0.9-0.4-1.2c-0.3-0.4-0.8-0.6-1.3-0.6c-0.5,0-0.9,0.2-1.2,0.5C338.8,35.7,338.6,36.2,338.6,36.7z M346.5,40.4l-2.4-6.2
	h1.1l1.3,3.7c0.1,0.4,0.3,0.8,0.4,1.2c0.1-0.3,0.2-0.7,0.4-1.2l1.4-3.8h1.1l-2.4,6.2H346.5z M355,38.4l1.1,0.1
	c-0.2,0.6-0.5,1.1-1,1.5c-0.5,0.4-1.1,0.5-1.8,0.5c-0.9,0-1.6-0.3-2.2-0.8c-0.5-0.6-0.8-1.3-0.8-2.4c0-1,0.3-1.8,0.8-2.4
	c0.5-0.6,1.2-0.9,2.1-0.9c0.8,0,1.5,0.3,2,0.8c0.5,0.6,0.8,1.4,0.8,2.4c0,0.1,0,0.2,0,0.3h-4.6c0,0.7,0.2,1.2,0.6,1.6
	c0.3,0.4,0.8,0.5,1.3,0.5c0.4,0,0.7-0.1,1-0.3C354.7,39.2,354.9,38.9,355,38.4z M351.6,36.7h3.5c0-0.5-0.2-0.9-0.4-1.2
	c-0.3-0.4-0.8-0.6-1.3-0.6c-0.5,0-0.9,0.2-1.2,0.5C351.8,35.7,351.6,36.2,351.6,36.7z M357.8,40.4v-6.2h0.9v0.9c0.5-0.7,1.1-1,2-1
	c0.4,0,0.7,0.1,1,0.2c0.3,0.1,0.6,0.3,0.7,0.5c0.2,0.2,0.3,0.5,0.3,0.8c0,0.2,0,0.5,0,1v3.8h-1v-3.8c0-0.4,0-0.8-0.1-1
	c-0.1-0.2-0.2-0.4-0.4-0.5c-0.2-0.1-0.5-0.2-0.7-0.2c-0.4,0-0.8,0.1-1.2,0.4c-0.3,0.3-0.5,0.8-0.5,1.6v3.4H357.8z M368.9,40.4v-0.9
	c-0.5,0.7-1.2,1.1-2,1.1c-0.4,0-0.7-0.1-1-0.2c-0.3-0.1-0.5-0.3-0.7-0.5c-0.2-0.2-0.3-0.5-0.3-0.8c0-0.2-0.1-0.5-0.1-1v-3.8h1.1v3.5
	c0,0.5,0,0.9,0.1,1.1c0.1,0.3,0.2,0.5,0.4,0.7c0.2,0.2,0.5,0.2,0.8,0.2c0.3,0,0.6-0.1,0.9-0.2c0.3-0.2,0.5-0.4,0.6-0.7
	c0.1-0.3,0.2-0.7,0.2-1.2v-3.3h1v6.2H368.9z M376,38.4l1.1,0.1c-0.2,0.6-0.5,1.1-1,1.5c-0.5,0.4-1.1,0.5-1.8,0.5
	c-0.9,0-1.6-0.3-2.2-0.8c-0.5-0.6-0.8-1.3-0.8-2.4c0-1,0.3-1.8,0.8-2.4c0.5-0.6,1.2-0.9,2.1-0.9c0.8,0,1.5,0.3,2,0.8
	c0.5,0.6,0.8,1.4,0.8,2.4c0,0.1,0,0.2,0,0.3h-4.6c0,0.7,0.2,1.2,0.6,1.6c0.3,0.4,0.8,0.5,1.3,0.5c0.4,0,0.7-0.1,1-0.3
	C375.7,39.2,375.9,38.9,376,38.4z M372.6,36.7h3.5c0-0.5-0.2-0.9-0.4-1.2c-0.3-0.4-0.8-0.6-1.3-0.6c-0.5,0-0.9,0.2-1.2,0.5
	C372.8,35.7,372.6,36.2,372.6,36.7z M378.4,37.8v-1.1h3.2v1.1H378.4z M388,39.4v1h-5.7c0-0.2,0-0.5,0.1-0.7c0.1-0.4,0.4-0.8,0.7-1.1
	c0.3-0.4,0.8-0.8,1.4-1.3c0.9-0.8,1.6-1.4,1.9-1.8c0.3-0.4,0.5-0.9,0.5-1.3c0-0.4-0.2-0.8-0.5-1c-0.3-0.3-0.7-0.4-1.2-0.4
	c-0.5,0-0.9,0.2-1.2,0.5c-0.3,0.3-0.5,0.7-0.5,1.3l-1.1-0.1c0.1-0.8,0.3-1.4,0.8-1.8c0.5-0.4,1.1-0.6,2-0.6c0.8,0,1.5,0.2,2,0.7
	c0.5,0.5,0.7,1,0.7,1.7c0,0.3-0.1,0.7-0.2,1c-0.1,0.3-0.4,0.7-0.7,1c-0.3,0.4-0.9,0.9-1.6,1.5c-0.6,0.5-1,0.9-1.2,1.1
	c-0.2,0.2-0.3,0.4-0.4,0.6H388z M389.5,36.2c0-1,0.1-1.8,0.3-2.5c0.2-0.6,0.5-1.1,0.9-1.4c0.4-0.3,0.9-0.5,1.6-0.5
	c0.5,0,0.9,0.1,1.2,0.3c0.4,0.2,0.6,0.5,0.9,0.8c0.2,0.3,0.4,0.8,0.5,1.3c0.1,0.5,0.2,1.2,0.2,2c0,1-0.1,1.8-0.3,2.4
	c-0.2,0.6-0.5,1.1-0.9,1.4c-0.4,0.3-0.9,0.5-1.6,0.5c-0.8,0-1.5-0.3-2-0.9C389.8,39,389.5,37.8,389.5,36.2z M390.6,36.2
	c0,1.4,0.2,2.3,0.5,2.8s0.7,0.7,1.2,0.7c0.5,0,0.9-0.2,1.2-0.7c0.3-0.5,0.5-1.4,0.5-2.8c0-1.4-0.2-2.4-0.5-2.8
	c-0.3-0.5-0.7-0.7-1.2-0.7c-0.5,0-0.9,0.2-1.2,0.6C390.8,33.8,390.6,34.8,390.6,36.2z M400.5,40.4h-1v-6.7c-0.3,0.2-0.6,0.5-1,0.7
	c-0.4,0.2-0.8,0.4-1.1,0.5v-1c0.6-0.3,1.1-0.6,1.5-1c0.4-0.4,0.8-0.8,1-1.2h0.7V40.4z M405.1,35.8c-0.4-0.2-0.8-0.4-1-0.7
	c-0.2-0.3-0.3-0.7-0.3-1.1c0-0.6,0.2-1.2,0.7-1.6c0.5-0.4,1.1-0.6,1.8-0.6c0.8,0,1.4,0.2,1.8,0.7c0.5,0.4,0.7,1,0.7,1.6
	c0,0.4-0.1,0.7-0.3,1c-0.2,0.3-0.5,0.5-1,0.7c0.5,0.2,0.9,0.4,1.2,0.8c0.3,0.4,0.4,0.8,0.4,1.4c0,0.7-0.3,1.3-0.8,1.8
	c-0.5,0.5-1.2,0.8-2,0.8c-0.8,0-1.5-0.2-2-0.8s-0.8-1.1-0.8-1.9c0-0.6,0.1-1,0.4-1.4C404.2,36.2,404.6,35.9,405.1,35.8z M404.9,34
	c0,0.4,0.1,0.7,0.4,1c0.3,0.3,0.6,0.4,1,0.4c0.4,0,0.7-0.1,1-0.4c0.3-0.3,0.4-0.6,0.4-1c0-0.4-0.1-0.7-0.4-1c-0.3-0.3-0.6-0.4-1-0.4
	c-0.4,0-0.7,0.1-1,0.4C405,33.3,404.9,33.6,404.9,34z M404.6,37.9c0,0.3,0.1,0.6,0.2,0.9c0.1,0.3,0.4,0.5,0.6,0.7s0.6,0.2,0.9,0.2
	c0.5,0,0.9-0.2,1.2-0.5c0.3-0.3,0.5-0.7,0.5-1.2c0-0.5-0.2-0.9-0.5-1.3c-0.3-0.3-0.8-0.5-1.3-0.5c-0.5,0-0.9,0.2-1.2,0.5
	C404.7,37,404.6,37.4,404.6,37.9z"/>
<rect x="119.2" y="-7.3" class="st26" width="382.4" height="25.1"/>
<text transform="matrix(1 0 0 1 89.8457 123.4924)" class="st27 st28">$4,027</text>
<text transform="matrix(1 0 0 1 122.7368 81.631)" class="st27 st28">$5,292</text>
<text transform="matrix(1 0 0 1 391.3367 239.731)" class="st27 st28">$537</text>
<text transform="matrix(1 0 0 1 421.5617 242.731)" class="st27 st28">$478</text>
<text transform="matrix(1 0 0 1 486.6617 246.831)" class="st27 st28">$353</text>
<text transform="matrix(1 0 0 1 519.7616 234.306)" class="st27 st28">$651</text>
<text transform="matrix(1 0 0 1 188.519 225.1558)" class="st27 st28">$881</text>
<text transform="matrix(1 0 0 1 222.9051 231.3983)" class="st27 st28">$837</text>
<text transform="matrix(1 0 0 1 288.6873 190.2845)" class="st27 st28">$2,015</text>
<text transform="matrix(1 0 0 1 321.5783 180.0716)" class="st27 st28">$2,253</text>
</svg>
